<mxfile host="app.diagrams.net" agent="Mozilla/5.0 (Windows NT 10.0; Win64; x64) AppleWebKit/537.36 (KHTML, like Gecko) Chrome/129.0.0.0 Safari/537.36" version="24.7.13">
  <diagram name="Page-1" id="BgO_aBdHNa-CjOOPh8CL">
    <mxGraphModel dx="1621" dy="1581" grid="1" gridSize="10" guides="1" tooltips="1" connect="1" arrows="1" fold="1" page="1" pageScale="1" pageWidth="827" pageHeight="1169" math="0" shadow="0">
      <root>
        <mxCell id="0" />
        <mxCell id="1" parent="0" />
        <mxCell id="gQKAg9snvbFnoSpJ1Kl--78" value="Dynatrace Monitoring" style="rounded=0;whiteSpace=wrap;html=1;fillColor=#fff2cc;strokeColor=#d6b656;" parent="1" vertex="1">
          <mxGeometry x="314.5" y="470" width="170.5" height="60" as="geometry" />
        </mxCell>
        <mxCell id="gQKAg9snvbFnoSpJ1Kl--69" value="" style="rounded=0;whiteSpace=wrap;html=1;fillColor=#b0e3e6;strokeColor=#0e8088;" parent="1" vertex="1">
          <mxGeometry x="808" y="390.73" width="141" height="60.27" as="geometry" />
        </mxCell>
        <mxCell id="gQKAg9snvbFnoSpJ1Kl--57" value="" style="verticalLabelPosition=bottom;verticalAlign=top;html=1;shape=mxgraph.basic.diag_round_rect;dx=6;whiteSpace=wrap;fillColor=#d5e8d4;gradientColor=#97d077;strokeColor=#82b366;" parent="1" vertex="1">
          <mxGeometry x="34" y="160" width="100" height="50" as="geometry" />
        </mxCell>
        <mxCell id="gQKAg9snvbFnoSpJ1Kl--2" value="" style="image;aspect=fixed;html=1;points=[];align=center;fontSize=12;image=img/lib/azure2/compute/Azure_Spring_Cloud.svg;" parent="1" vertex="1">
          <mxGeometry x="854" y="137" width="27" height="27" as="geometry" />
        </mxCell>
        <mxCell id="gQKAg9snvbFnoSpJ1Kl--1" value="" style="image;aspect=fixed;html=1;points=[];align=center;fontSize=12;image=img/lib/azure2/compute/Azure_Spring_Cloud.svg;" parent="1" vertex="1">
          <mxGeometry x="66.5" y="125" width="26" height="26" as="geometry" />
        </mxCell>
        <mxCell id="gQKAg9snvbFnoSpJ1Kl--10" value="" style="verticalLabelPosition=bottom;verticalAlign=top;html=1;shape=mxgraph.basic.corner_round_rect;dx=6;whiteSpace=wrap;fillColor=#f5f5f5;strokeColor=#666666;gradientColor=#b3b3b3;" parent="1" vertex="1">
          <mxGeometry x="317" y="40" width="460" height="50" as="geometry" />
        </mxCell>
        <UserObject label="" treeRoot="1" id="gQKAg9snvbFnoSpJ1Kl--13">
          <mxCell style="whiteSpace=wrap;html=1;align=center;treeFolding=1;treeMoving=1;newEdgeStyle={&quot;edgeStyle&quot;:&quot;elbowEdgeStyle&quot;,&quot;startArrow&quot;:&quot;none&quot;,&quot;endArrow&quot;:&quot;none&quot;};" parent="1" vertex="1">
            <mxGeometry x="317" y="90" width="460" height="330" as="geometry" />
          </mxCell>
        </UserObject>
        <UserObject label="" treeRoot="1" id="gQKAg9snvbFnoSpJ1Kl--15">
          <mxCell style="whiteSpace=wrap;html=1;align=center;treeFolding=1;treeMoving=1;newEdgeStyle={&quot;edgeStyle&quot;:&quot;elbowEdgeStyle&quot;,&quot;startArrow&quot;:&quot;none&quot;,&quot;endArrow&quot;:&quot;none&quot;};fillColor=#bac8d3;strokeColor=#23445d;" parent="1" vertex="1">
            <mxGeometry x="338" y="107" width="121" height="260" as="geometry" />
          </mxCell>
        </UserObject>
        <UserObject label="&lt;div&gt;&lt;br&gt;&lt;/div&gt;" treeRoot="1" id="gQKAg9snvbFnoSpJ1Kl--16">
          <mxCell style="whiteSpace=wrap;html=1;align=center;treeFolding=1;treeMoving=1;newEdgeStyle={&quot;edgeStyle&quot;:&quot;elbowEdgeStyle&quot;,&quot;startArrow&quot;:&quot;none&quot;,&quot;endArrow&quot;:&quot;none&quot;};fillColor=#bac8d3;strokeColor=#23445d;" parent="1" vertex="1">
            <mxGeometry x="496" y="110.5" width="125" height="260" as="geometry" />
          </mxCell>
        </UserObject>
        <mxCell id="gQKAg9snvbFnoSpJ1Kl--17" value="" style="line;strokeWidth=4;html=1;perimeter=backbonePerimeter;points=[];outlineConnect=0;" parent="1" vertex="1">
          <mxGeometry x="497" y="142" width="125" height="10" as="geometry" />
        </mxCell>
        <mxCell id="gQKAg9snvbFnoSpJ1Kl--18" value="" style="line;strokeWidth=4;html=1;perimeter=backbonePerimeter;points=[];outlineConnect=0;" parent="1" vertex="1">
          <mxGeometry x="337" y="141" width="121" height="10" as="geometry" />
        </mxCell>
        <mxCell id="gQKAg9snvbFnoSpJ1Kl--19" value="&lt;b&gt;Broker 1&lt;/b&gt;" style="text;html=1;align=center;verticalAlign=middle;whiteSpace=wrap;rounded=0;" parent="1" vertex="1">
          <mxGeometry x="354.5" y="112" width="60" height="30" as="geometry" />
        </mxCell>
        <mxCell id="gQKAg9snvbFnoSpJ1Kl--20" value="CLUSTER" style="text;html=1;align=center;verticalAlign=middle;whiteSpace=wrap;rounded=0;" parent="1" vertex="1">
          <mxGeometry x="636.5" y="57" width="60" height="30" as="geometry" />
        </mxCell>
        <mxCell id="gQKAg9snvbFnoSpJ1Kl--21" value="KAFKA ECOSYSTEM&amp;nbsp; &amp;nbsp;&#39;&amp;nbsp; &amp;nbsp; &amp;nbsp; &amp;nbsp;3 BROKERS" style="text;html=1;align=center;verticalAlign=middle;whiteSpace=wrap;rounded=0;" parent="1" vertex="1">
          <mxGeometry x="402" y="59" width="224.5" height="30" as="geometry" />
        </mxCell>
        <mxCell id="gQKAg9snvbFnoSpJ1Kl--22" value="" style="shape=image;imageAspect=0;aspect=fixed;verticalLabelPosition=bottom;verticalAlign=top;image=data:image/png,iVBORw0KGgoAAAANSUhEUgAAAOEAAADhCAMAAAAJbSJIAAAAhFBMVEX///8AAABhYWHNzc3T09PCwsJKSkpycnL8/Pz19fXg4OC0tLTj4+Pa2tp/f3/n5+fv7++6urrGxsZoaGg4ODgnJycXFxeXl5eKiop3d3c+Pj4vLy+fn5+urq5PT0+oqKhZWVkeHh6FhYWQkJCbm5tFRUULCws6OjohISEpKSkYGBgyMjKhW/z/AAAHnUlEQVR42u2caXeiMBRAEwTZBAFXXMAVtf7//zeHPQvRaFtnyLz7oaciTblAkpeXAEIAAAAAAAAAAAAAAAAAAAAAAAAAAAAAAAAAAAAAAAAAAAAAAAAAAAAAAADAf4PhnzG+aidHUb8TblgNFPRz5phkopxghBlutlqCHua4KSVo4Q6UulH9VstcNb9H6ggGlVJWOAVm9XGqjuGmNJpZ9GfsKWN4LoWCZoNWblgoY1j6xO2GUbllp1g1NIhNZfc/Uyac4Wtded9mqhiOS0MyFl0XW/aK1UOiXbGrAFwZw/KK4XbDotzgK2N4LIVMNko1lDEc0ZGoUYdt1E6DQx7P7Seu1UdFrXby3XBzrz8ciT3CrzYkP/TQ0e4aWxCX0NrR3/QwBWB0COrtCZiz37n9U9ziBxJzXt/o/1WMOmopSfCjteQjKZOAFNGCrhSOtvSv9e9UVB4YOU3tJI/3aatkbYox925r8QX9ePS2nJXB2nJEbr5QTeugvmXJpOqAknbyjnWc4SQvZl0oaxgnKEry+MkOsoxoxcLm/OVxsf7bsVTYEco4TM2zZnzAUxpq1ScTW3mwOz5ihNy83bVwHAQH27gXhmPseU2Un+IOw+HvGbrsQLEd8B/YQH0uMgxwcsr3QhZGaL5LEFomZVVfVYZ8rPFXDavqSdStCbeFMvR9B+eG6SVBRobwCK1DojGzx0RfG/8LhheuarjceJI0tLDr4RCN8SFF6H7wdia6lD2PcbdsOze0m7azkruYt79oeOOSpxEbEVCGC7y6TGeouBd1fL6csbX5Kg2n7F1aZRdO+f060T9nSLc0U+6fhg8Ni+14UHis8mNPlmg437qZbawrw83mRP4dUS9/19A5ruub5hRw9ZDo12KuzycM9aJJclPbRMg287vR8xHaarsUeXl/Y1q27/sxGWZcPmOoD6mQxbSZtnTDhenC3uLVQGr3EcOYC8u21UF8sT38mRkvf9tQ+4ChPRPMzIyT9nPZ5AdnbujRA8Pu4SHeoSU933bcbprglYqs/nnDK34dp0+GZnPYsavr0eIuIZiiHhnqXF5msKdsriEnuER9Mlx1zKVp9OUKZo+u4L9u6HVVLNSknmKLzBGXLdAY9cpwSXV/DVQXkQfU21J6vexYT/SuYfQRw2v3yostnzNFdiDIzjCGRklYx0X6oQhuJ/npssLiuyJMNMpk+zBq9mYMq4LcroJQUVAo3Rem3Bf4hdPJjvHbIUNeDabN/Z0Z9f8j4kHx+LAOtKo5I29FhR8deflH1ZCrWnVNfN3QpMO+E6UREweWPjGM6XaNPiGmtGEk2nH5pqFJ12Cf6WcSacOYTtwexAVJ5Un5LxbvGZp04ioVRAzPDWP6TD0q6KPX0KQTyqM2pnXdZvwpUw9j+kyN671meUH3Vwx/th6azNTNmRYeZOSBjaLyPhkOoiiKDKotjZnUe0IL63N5wx9tS01mZKWzUwDWnjowYX84Yc6UxxV0kzb8wf5wErPxX8zFg2PqwAQxzc5nx6A+NyYN5A0fxzTbF2IafmCF+dzdUsIQc5FyxqUV6qn578elVRAqE5dWjNgLRi2PG8sbOuwFowoK5NuJZ2OLpezYgjtTne10JmvocJvpgr6kDZ+OD3EqNz7E7PGGXY2VJmvIFXQRF/QLY/yN+C5dMAnmhP5vE+m79MgYJl2H/dE8DTd9/E3Ddiq9NDy/byjMtaXiXNtFbNj0WlHX+r+LvGETh3QWdH7BUJwvtWNhvnTAGc7qBupKT67aHd3QQ8N53eN/WVTwFwgL+k7O2xm+kvP+oif5O7paQ8IwaSpOQhWUCgNqL3w+9++J5i22r8xbjOlGYsfNFtOrBMV5moButDX+Np22BTmZny4lFsAQc0+bgGtpJeeeQqq1Cbkp/yOWM2xWgIRkQSY3uMNF3287A4SkHtbqmj8cvjZ/eKAaCcwsAjhiWcNmRmFEFuSzgnlBpo5W7h1ZM2nD780Bn8mFDNWEOF7neSY7vGN5w3rAlFnEWcW3sqALWdAVoWH+42y/ZzgUzePronl8srVJHg7NHxrWBSV0oMwXtM8PcoSQFrxnaIrWYgSCTJRHNhJW9rZhs5JnSY0s+YKGNkoMH6Hszbs0FaynyYTZxC0Zktg3phOSN2wKKlobe82sLGwKijR0RMdgc5Qw7FoTNZZeE7VjLnLVhZLZtvWoo8fnZrnPbC/NF3RziIKOQ88exxLPvwjWtQ2fr2vzJqZpmm3IbZZUN8OoPtBpiJBV7Fo1XDrzd8gpNrQjl7i7oHueYSQK8nzNfP6knXBtov58beLzvtZw3egnFmx+oyBDvER28uvrSz9BKopLc/YKrBEOO65SGwTZ+wf6/SDo7GraULT/a/V3T5+3MK69ft7CETwzQ5no1TMz2z4+M3MQPPcUIlW4Cp5dM1URtEXPHyrzuLojeoYUK2bIPwesjOGIf0nEnE8h9RrR8/hDZQyngncqHJUxXAjei6ErYyh4t8kaqUOs+vtput8xpCGV0HnBK1IL7l1fV8Xe9ZXP3yj+vrb/4J176D94byIAAAAAAAAAAAAAAAAAAAAAAAAAAAAAAAAAAAAAAAAAAAAAAAAAAAAAAADQY/4AvdRk0QjdayMAAAAASUVORK5CYII=;" parent="1" vertex="1">
          <mxGeometry x="505.5" y="376.5" width="43.5" height="43.5" as="geometry" />
        </mxCell>
        <mxCell id="gQKAg9snvbFnoSpJ1Kl--23" value="P1&amp;nbsp; &amp;nbsp; &amp;nbsp;P2&amp;nbsp; &amp;nbsp; &amp;nbsp; &amp;nbsp; &amp;nbsp;P3" style="rounded=0;whiteSpace=wrap;html=1;" parent="1" vertex="1">
          <mxGeometry x="346.5" y="187" width="100" height="30" as="geometry" />
        </mxCell>
        <mxCell id="gQKAg9snvbFnoSpJ1Kl--24" value="P1&amp;nbsp; &amp;nbsp; &amp;nbsp;P2&amp;nbsp; &amp;nbsp; &amp;nbsp; &amp;nbsp;P3" style="rounded=0;whiteSpace=wrap;html=1;" parent="1" vertex="1">
          <mxGeometry x="508.5" y="195" width="100" height="25" as="geometry" />
        </mxCell>
        <mxCell id="gQKAg9snvbFnoSpJ1Kl--25" value="sre-payment-topic&lt;div&gt;P1&lt;/div&gt;" style="rounded=0;whiteSpace=wrap;html=1;" parent="1" vertex="1">
          <mxGeometry x="349.5" y="290" width="100" height="27" as="geometry" />
        </mxCell>
        <mxCell id="gQKAg9snvbFnoSpJ1Kl--27" value="sre-gameday-topic-1&lt;div&gt;Replica 1&lt;/div&gt;&lt;div&gt;&lt;br&gt;&lt;/div&gt;" style="text;html=1;align=center;verticalAlign=middle;whiteSpace=wrap;rounded=0;" parent="1" vertex="1">
          <mxGeometry x="340" y="160" width="130" height="30" as="geometry" />
        </mxCell>
        <mxCell id="gQKAg9snvbFnoSpJ1Kl--33" value="sre-payment-topic&lt;div&gt;P1&lt;/div&gt;" style="rounded=0;whiteSpace=wrap;html=1;" parent="1" vertex="1">
          <mxGeometry x="508" y="298.5" width="100" height="25" as="geometry" />
        </mxCell>
        <mxCell id="gQKAg9snvbFnoSpJ1Kl--39" value="" style="line;strokeWidth=2;direction=south;html=1;" parent="1" vertex="1">
          <mxGeometry x="393.5" y="188" width="10" height="29" as="geometry" />
        </mxCell>
        <mxCell id="gQKAg9snvbFnoSpJ1Kl--41" value="" style="line;strokeWidth=2;direction=south;html=1;" parent="1" vertex="1">
          <mxGeometry x="368.5" y="188" width="10" height="29" as="geometry" />
        </mxCell>
        <mxCell id="gQKAg9snvbFnoSpJ1Kl--42" value="" style="line;strokeWidth=2;direction=south;html=1;" parent="1" vertex="1">
          <mxGeometry x="686.5" y="170" width="10" height="29" as="geometry" />
        </mxCell>
        <mxCell id="gQKAg9snvbFnoSpJ1Kl--45" value="" style="line;strokeWidth=2;direction=south;html=1;" parent="1" vertex="1">
          <mxGeometry x="672.5" y="335" width="10" height="26" as="geometry" />
        </mxCell>
        <mxCell id="gQKAg9snvbFnoSpJ1Kl--47" value="" style="line;strokeWidth=2;direction=north;html=1;" parent="1" vertex="1">
          <mxGeometry x="531.5" y="195" width="10" height="26" as="geometry" />
        </mxCell>
        <mxCell id="gQKAg9snvbFnoSpJ1Kl--58" value="&lt;b&gt;&lt;font style=&quot;font-size: 15px;&quot;&gt;producerkafka&lt;/font&gt;&lt;/b&gt;&lt;div&gt;&lt;b&gt;&lt;font style=&quot;font-size: 15px;&quot;&gt;(ns: sre-kafka-client)&lt;/font&gt;&lt;/b&gt;&lt;/div&gt;" style="text;html=1;align=center;verticalAlign=middle;whiteSpace=wrap;rounded=0;" parent="1" vertex="1">
          <mxGeometry x="51.5" y="172" width="60" height="30" as="geometry" />
        </mxCell>
        <mxCell id="gQKAg9snvbFnoSpJ1Kl--59" value="" style="verticalLabelPosition=bottom;verticalAlign=top;html=1;shape=mxgraph.basic.diag_round_rect;dx=6;whiteSpace=wrap;fillColor=#f5f5f5;fontColor=#333333;strokeColor=#00FF00;" parent="1" vertex="1">
          <mxGeometry x="811" y="176" width="100" height="34" as="geometry" />
        </mxCell>
        <mxCell id="gQKAg9snvbFnoSpJ1Kl--64" value="" style="verticalLabelPosition=bottom;verticalAlign=top;html=1;shape=mxgraph.basic.diag_round_rect;dx=6;whiteSpace=wrap;fillColor=#f5f5f5;fontColor=#333333;strokeColor=#00FF00;" parent="1" vertex="1">
          <mxGeometry x="812" y="275" width="100" height="30" as="geometry" />
        </mxCell>
        <mxCell id="gQKAg9snvbFnoSpJ1Kl--65" value="&lt;b&gt;&lt;font style=&quot;font-size: 15px;&quot;&gt;CONSUMER&lt;/font&gt;&lt;/b&gt;" style="text;html=1;align=center;verticalAlign=middle;whiteSpace=wrap;rounded=0;" parent="1" vertex="1">
          <mxGeometry x="829" y="274" width="60" height="30" as="geometry" />
        </mxCell>
        <mxCell id="gQKAg9snvbFnoSpJ1Kl--60" value="&lt;b&gt;&lt;font style=&quot;font-size: 15px;&quot;&gt;CONSUMER&lt;/font&gt;&lt;/b&gt;" style="text;html=1;align=center;verticalAlign=middle;whiteSpace=wrap;rounded=0;" parent="1" vertex="1">
          <mxGeometry x="828" y="180" width="60" height="30" as="geometry" />
        </mxCell>
        <mxCell id="gQKAg9snvbFnoSpJ1Kl--68" value="" style="shape=image;imageAspect=0;aspect=fixed;verticalLabelPosition=bottom;verticalAlign=top;image=data:image/png,iVBORw0KGgoAAAANSUhEUgAABXgAAAHNCAYAAACkQxPiAAAACXBIWXMAAAsTAAALEwEAmpwYAAAgAElEQVR4nOzd+ZNd553f9/fznLs19n0jQHDBwn3fRImSZjTyTDyTOC5nyvFScSX5LZUfUknFyU+pOPkXXBWXYzuusVOOncnYM57xaKSRNKIokSOSEimSIAmSIEEAxE7s6L7LeZ78cO65fbsBUlyARt/G+1US0Oi+e5972P053/N5Qs45I0mSJEmSJEmaOPFGPwBJkiRJkiRJ0hdjwCtJkiRJkiRJE8qAV5IkSZIkSZImlAGvJEmSJEmSJE0oA15JkiRJkiRJmlAGvJIkSZIkSZI0oQx4JUmSJEmSJGlCGfBKkiRJkiRJ0oQy4JUkSZIkSZKkCWXAK0mSJEmSJEkTyoBXkiRJkiRJkiaUAa8kSZIkSZIkTSgDXkmSJEmSJEmaUAa8kiRJkiRJkjShDHglSZIkSZIkaUIZ8EqSJEmSJEnShDLglSRJkiRJkqQJZcArSZIkSZIkSRPKgFeSJEmSJEmSJpQBryRJkiRJkiRNKANeSZIkSZIkSZpQBrySJEmSJEmSNKEMeCVJkiRJkiRpQhnwSpIkSZIkSdKEMuCVJEmSJEmSpAllwCtJkiRJkiRJE8qAV5IkSZIkSZImlAGvJEmSJEmSJE0oA15JkiRJkiRJmlAGvJIkSZIkSZI0oQx4JUmSJEmSJGlCGfBKkiRJkiRJ0oQy4JUkSZIkSZKkCWXAK0mSJEmSJEkTyoBXkiRJkiRJkiaUAa8kSZIkSZIkTSgDXkmSJEmSJEmaUAa8kiRJkiRJkjShDHglSZIkSZIkaUIZ8EqSJEmSJEnShDLglSRJkiRJkqQJZcArSZIkSZIkSRPKgFeSJEmSJEmSJpQBryRJkiRJkiRNKANeSZIkSZIkSZpQBrySJEmSJEmSNKEMeCVJkiRJkiRpQhnwSpIkSZIkSdKEMuCVJEmSJEmSpAllwCtJkiRJkiRJE8qAV5IkSZIkSZImlAGvJEmSJEmSJE0oA15JkiRJkiRJmlAGvJIkSZIkSZI0oQx4JUmSJEmSJGlCGfBKkiRJkiRJ0oRq3OgHIF1LKQEkYoyk6h9fSn07MXosRJIkSZIkSYuPqZWWhgSp/oBrE+7OufmUqG/y2t6yJEmSJEmS9MU5wauJV0/thlQdr8gkQoBAgBC++A3nTJkTs7dQhcekBE70SpIkSZIkaREIOed8ox+E9EVU1QmQUmQ0Vxsghtmg99T5xEw3c2kmc6mXme4mUob5sW8zBprNQKuARiOwellk2/q5xz/KnAijd0t9n9V9mfdKkiRJkiTpRjDg1USpp3VnA9ZKCBCGwe7F6ZLDp0te/6DP/sN9zk9nzl4qOXcpc346kdLcTT6ESLvIdDqRTiPQbgU2rY7cu7PF3u0NNq+JbFhV0GwMg+Ochn9X17enV5IkSZIkSTeKAa8mwtUWTwtAGIWqmYvTmRPnSn78+gw/+mWX1w/1uXA5URShmrMNEPKVrQ05V1/LVF9PGTKZnOHWjQ2+cleLB25v8/CuFutXBlZMReoZ4JwS42+gOGpwMOyVJEmSJEnS9WfAq0VttoZh9nPj07qQSSUc/rjkOy9d4s9enuHdowMGZaBZACGP6hgC8erLCg7fAdU7YfaOUoacA2XKNIrArm0NvvXQFL/9RIedGxpjPQ+BnBN5rL4hxkRK0eoGSZIkSZIkXVcGvFqU6sqDalo3AHlsKrbaZLslvP1hjz/7xQw/fWOGo6dLun3IAcKcy3/5x5JzIACNBmzf0OCpu9r8lUc73HNrk3Zj/H7SnDC6apKo6iSc6pUkSZIkSdK1ZsCrRadqY0hV/UJKw0nZMKpWuNzNvP5Bjx++OsPL73U5fCpzaTpR5kyzqGobwthtxbHF0L6oTFXH0C8hhMCqqcjW9QUP39HkG/e1efjONsunIpDJOVT3nCMhVJ29Gad5JUmSJEmSdO0Z8OqGqzprq0qDuiJhGJESmO2zne4mXnqnxw9fmeG1D/scOtHnwkwmBmg24pxu3Wu56Nn828oZ+mUipcCKKdi+vuCeW9t844E2T+5ts3Iqjq6Xh72/46rJZAx8JUmSJEmS9KUZ8OqGm1vHMOzYJYxWQ/v4QsmL+7s890aXfR8OeP94n5leptmAIs4Pdq9ncFp3L1R3kDOUKdEfQLsZ2bmp4K7tTZ6+p81Td7XZtKYYXXO8o7d+rlY2SJIkSZIk6csy4NUNc9VgN8yGnsfPlrz2QY+/fLPLywd67DvYB6DdnBvs1hPAX7aG4XM88qpXd3h3OVfPZaZfVTns3trkkd1tntjT5OE7m9yyroBQh8JXBr1Y3yBJkiRJkqQvyIBXC6ru1/2kYDeViRPnSl59v89P3+rywltd3js6oNMMtIpAjIH5G+yCT8Mm4CqBcrUUXKbXz0x3M7dsKPjK3W2euqvDY7tbbF5b0CyqVHo86AWneiVJkiRJkvTFGPBqQcyf1gXGwsxMfwCnzpe8/G6PF97q8uwbM5w6m2g3AwSIYTbYDSmRYlywed1fpZ4gzjlCGAa9GXLOdAeZNcsiT97d5um72jy2p8m2tU3aLRiuHkdOafTcDHolSZIkSZL0eRjw6rq6arAbGFYWZMoEJ8+VvPROl2df6/Lcvi6XptOwgzcTwvz6gmoxtsWZf85O9WZmg9ucA4FMsxl5fHebr9/b5mv3ttmyvqAIEIZdE/PDb4NeSZIkSZIk/SoGvLrmqpzyymB3toohA4HTF0qefW2G7/x8hpf3dxkkKMtMUVQB5+zaaYs51L2aufUNmSq8TSkQYxVw37Ojxbce6vAbD7XYsalF/ZrA3KC3up3Z25uc10CSJEmSJEkLwYBX11RKdSSZCEQy9cTuqGCBD44N+Mmb0zz7eo+3D/W4OJOZ7mUaDWiMJZhLYYJ1/nNIKdEvoVUElnUCt21q8tV7Wzx9T5sHb29TB705J8gRYvU6LoXXQpIkSZIkSdeeAa+umXrydDS5O+zOrSdT3zrU46X9PZ57s8s7Hw04dbak28902nMndpdimDn/OZUp0etXr8+6VZHbtzR4am+bR3e3eHR3iyIEyJlEpi7orQLz2ddYkiRJkiRJMuDVF5KAmBJpOK87p44hQyyGAWTOvH6wx8/f7fPcvi7vHOlx/GwmhEy7GYmhzi8nrYbh86kWYhv9C6gC7ZShP0gMUmb18sidW1o8dVeTR3e1efjOFlPt6kopZ3LOs7UVMY5uNM5thJAkSZIkSdJNxIBXX0gV5kYIaXbCdNSxC9O9zDtHery8v89P35zhzcN9Tp/PFI1Mu4j1UO+SnNb9rMafe85V/3BvkFixLHLH5iZP3dXisd1t7tnRYP3qxuh69eJtlarGgSUcjkuSJEmSJOmTGfDqM6sGRtNwEbVqcjeE6uMwDGwvTpecOpd57s0Zvv+LGX75fo/z04mpVqBRzF6uvq2befS0nuqdH/SmlJjpQxHgzm0Nfv3+KZ6+t8UdWxtsWDUW9ObE+Lu3nqK+WQNzSZIkSZKkm5EBr36l2WC3CnVh7rQuZC5MZ46eLvnhq9N8/5cz7D8yoD+AVhMCYRTszt6mQWTtamF3Hv45GFT1DFvXFjxzb4dff6jD3u1NNqwMhFEobNArSZIkSZJ0szLg1SeqQ8JRty5zF/fKOXOpm/ng2IDv/WKa59/s8v7xAYNUTaIGclUbkKsqh6XcsXvNpDTMeaswPSUgBHKCohFYPRV48u42v/5Ahwdua7FhVaAoZheyGw97DXolSZIkSZKWPgNezZEArhLsQj21WwWJ3T68frDP916+zF/u7/LRxyXTPQi5CnVDjKMFwaql2AwZP4/5wWxKiTIDGVoNWLms4P7bWvzmox2e2N1m45q5wfvcd7U9vZIkSZIkSUuVAa+AenC0imLrGgaoAt1QfTC8XOanb83w3ZdmePlAj5NnSmZ6kGOmGeOcKganR7+8+a9h3dHbT9BuwIpO5PYtDX778WU8c1+brevqjt4q5M05j4L2jFO9kiRJkiRJS40Br4Ar6xhCqLpzh+kuZy6WvLi/y49e7/Lmh30OnSq5NJ1oFMxZPK2qFXBS9Fq7atCbq8XYGjGwdW3BrZsaPHNfm6fvbrFnW3MYys8GvWDAK0mSJEmStNQY8N7krhrshtlO1xNnS156p8vP3u7y2vt99h/r0+9DuwnNGMlO7N4AswuyBSBlmOklBoPMjk0Fu7a2eOruNk/ubXLn1gbtZlFdK6d69bax77lhvCRJkiRJ0iQz4L0J1WHueLCbAxShTvoSh0+WvPxun5/t7/LKgT7vH+8TMrSagSKGOickkwj26y6olCDGYVabEqFOaDP0y8SlbmbLmoK7drR4cm+TJ/a22bWtwYpOHfTmUXWDQa8kSZIkSdJkM+C9iVwt2A1htl6hLBNHTiVePtDjxf0z/OztHodPlbQagaKAWF8wQYounLaYjE9PV/UNmW4fVnTgvp0tHt/b5qv3tLhtY8HqFQX1hHZOaRTWG/ZKkiRJkiRNHgPem0AV/kFKswuoVVUMEciUKXPqXObld7r88Jcz/OC1LhculXTa1bRuDBnmh7npyk/pxrmyHiMNg95At5eIIXDPbS2+eX+Lbz00xW2bGnRas1UcOVeXr9TbiUGvJEmSJEnSYmfAu4Rd0a8Ls6fzk0kJjp0p+em+Lj/45Qw/3dclU4W/MYSxhdPm3p4Wt6styJZzJg8/3rmp4Gv3dvitR6a4d2eTUEC8atALwyMDEJ3XliRJkiRJWowMeJe4K0PZ6tt94Fif59/q8RevTvPGoQHdXqY7yBQR4tjkZpXtOa47iebUNpDICcoMRQg0CrhlfcGju9v82v0dHtndYqodqdqV56ycR4oRNwFJkiRJkqTFyYB3iaiD2PEaBmA4hRtGf79zpM/zb3b5/iszHDje59JMptvPNBsQx/p4ndZdOq420dsbJALQaUW2rY08cGeLr93b4Zn72ixrVdUd1eD3/N1DHG1nbh6SJEmSJEk3ngHvhBuePU9KiUAkz+nYne1Yfe2DHj/ZN8Nz+2b48GTJmfNV926nFSHMzmwa7C5d86exc4ZBSqQS2s3I5rWBe3a2+Oo9bb52b4eNq4rhNXNV8TDcU0Qiibr+A4NeSZIkSZKkG8iAd4JV3br1ROXwk6GaxAXo9jJvHu7z8js9fvLmDO99NOD4mQExBjqtONax60TmzWZOfcMw6O31odmoOnrvv63NE7vbPLK7xc5NBVdbjG3U72w/ryRJkiRJ0g1jwDthqkw3DVsYZusYQgjDiV24MJ14/1ifF9/p8+PXZ3jrwx6nziemOoFWEUfjuk7r3rzqOd5Eoo5nA1DmqrIjlXDLhoLHdrd4Ym+bh+5oc9umgqL4lKAXDxJIkiRJkiQtNAPeCVFN6I76GIC6hqFO1DIfX8gcOdXnR6/P8PybXd4+POBSN9FpRooQyKG+ZFXn4On1qreBepsYyZl+gsEgs2Z55Ik9LR6/q81ju6qJ3k6rGF4sQZ5t6q3DXg8cSJIkSZIkLQwD3kUuJarG008Jds9fKvnwZOLPX5nmJ2/2eO+jPv0SGrGe7B1OaqaI59Lr09QTvaOdQq7qPwY5MNWER3a1eea+No/vbrNzU4NOC+qR8JRmF/dzqleSJEmSJGlhGPAuUtUUJKQ0XsMwN9gtS3jzUJ8//svL/Hhfl0OnSnJKFEUgwBVTlOOn40tXVVeA1AuxDf/IOVEmIAQG/cx9tzf5nceX8cx9bW7b0hhGvJ8W9F65PUqSJEmSJOnLM+BdROpT28cDMqhrFCJV3Bbo9jMvvdPlOy9P8/N3exw/U1ImSBmKGMYWT7NnV1/WbNgL1fZUZmjEQBHh1k0NvvXgFF+/r8U9O1vE0bYXqnA4peE08OxigG6PkiRJkiRJ144B7yJShV+JnCKE4dQuEUIV7F6YTjz/5gw/fr3Lawd7fPRxYrqbIWcaxdzgzGBX19L86e+UEr1BdUBh1fLI1rWRr93b5qm9bR7Z1aLZqBdjg1FJb4xkt0tJkiRJkqRryoD3BqoD3fEaBoAcIOZAGI5Dnj5f8sJbXZ7bN8O+DwccPtlnug+NAhoxOrGrBVVvY4Fqarw3SJQps25Fg63rCp7c2+Kp4YJsU51q8rwaSp+3qxn1StvTK0mSJEmS9EUZ8N5A8ysZ5nbswuGTfZ5/q8dfvt3lrUMDDp7sk0poNKAYC3YNdXUjjG93OcMgJXr9zKqpyC0bCx6+o8XTd7d56M42G1YV1BfMZOq9TnCqV5IkSZIk6Usx4F1gVZb7ycFuTnDwZJ9XD/T42f4eL+7vcfBknyIG2s3qcmF0WwZjuvHmB71lSkz3oNOEO7c2eWJPi2fu63Dn1iZb1xWj6+WcGN/71O8Jt2lJkiRJkqTPzoB3gVxtAbXxYLdfZo6cLPnFgR7PvznDc290OXWhpN0ItBoRwtVuE09t1w13tVA2ACllZvrVtO6OTQVfuavNtx/ucOeWBlvWFbMHNQx6JUmSJEmSvjAD3uvoqtO6VKelVzIzfThyqs+L7/Z57vUZfra/x3Q30YiBEMKohqFaZq3q6zX30mI0e8AhkakmzTMQcqZMMEiZLWsKHtnV5jceanPfzhbrVxe0m1AfwRg/ADKq6AXDXkmSJEmSpE9gwHsdXC3YhbGQKmf6CQ6dGvDCvi4/eHWGl97tEXK11FoIeRQED2MvwIBLk2N8AjeRIMXhpG4ghsyq5ZEHb2/xrYc7PLGnzfpVBa1Gfe0wfN9UEfHs+8iDG5IkSZIkSfMZ8F5DKUEkkYhUoWxlfBIXAgeP9/nhq9N85+czvHNkQJmhLDONYjzUBYNdTbr5VQs5V58rCRTAsk5g7/YWv/VIh28+2GbzmmLOZefuniIxpuGksO8LSZIkSZIkMOC9JupT01NKECKRYadoiIRQv7yB1z7o8pM3unz/1Rk++jhxaToxSJlmMTewsn9US031Hpk9YJEzpJwYlNAsAmuWF+zYGHnmvjbfvH+K3dsao97pnEO1+iAAkTyajreDWpIkSZIkyYD3GrhiAbUAMQQg0Otn3jjY44W3ejy/v8uHxwccOzsghkC7GYmjcV2ndbX0XTHRO/xcrw+EwJY1gdu2NHl8d5tn7mux95YmzUYEMilnQq6u40JskiRJkiRJFQPeL2B+r25KqVpMKkAMVeB0aSbz5qEeP3mzx4tvTfP+8QGnzidajUCrEQlhNtwypNJNpT6WMTaCG4CUoT9IdAeZDasb7N4aefiONl+/r81dt7ZY1h52+uZqQj7Mu9lqit6eXkmSJEmSdHMx4P0cqnWeqgWj6o7dDBQhjtKmjy8k3v2ox0/f7PLi/j7vfNTj3OXEVCvMuZzBrlTJw8Q3zH6CMmcuzyRWTEXuu7XJg3e0ePreNnff0mDNysbogjln6j2YU72SJEmSJOlmZMD7GaRq9bQ5wW4IEEIdJGXOXMgcOjXgh69O85N9Pd460qfXS3TagRjiaJE1AyjpKoYHT6oJ3CrwrXt6Z3rV++2h21s8eVeLZ+5rs2tri9XLqxoUgDyc6gWDXkmSJEmSdHMx4P0UVRXDbKgLc4PdTObSTOb9owP+5GeXee6tLgeOVv26raK6cJhzHnnyFHLpUyQScV4XdQZImX4J3UFm9/YGX7+nza890OHuHS1WTAVC+JSgl0iKNlxLkiRJkqSlyYD3KsYXTasD2vFp3UGZmenDq+/1+PNXZvjZ/i7HzpRVhUO1BNRYiGuoK30RVUXv7OKDKVUBbhgeONm8tuCpvW2+cX+bx/e06bSgiPVUbxX0jvZu9XGaOD8+liRJkiRJmmwGvEPVGeKJVK3UNPp8CBAIVWaUA5e7iRfe7vKDV2b4+YEeJ86U9EqATBGYc1q4p4lLX97891FKiTIBIdBsBDasDDy+q83XH2jz1bs7LJ+Kw2Q3kHIaljgEIJNjHL3PfWdKkiRJkqSl4KYPeOspwbFMF6irGGY7Pi9Ol/zwtS4/eHWGfR/0OHU+0y0zMWQaMc6pYjDYla69+RO9OcOgTKQMnWZk9fLAg7e3+Np9bb79UIeVy4rhNecuxjYrjhZN9O0qSZIkSZImlQHveB0DwLxg96OP+/z0jR4vvN1l38EeR8+W9PpQFMwLdq1ikBbK+EGUnKFMiX4JnSZsXF1w784WT+xp85W72+zc1BheKw9rG+oaFd+zkiRJkiRp8t2UAW8ajuvWwS4AAeJYz+7B4yUvvdvjxf1dXjnQ5dCpknIYIMWxYNdpXenGmR/0ppTo9iFG2LYu8tCdbZ7Y0+KB21vs3d4cXquqbmBszzdakM33siRJkiRJmjA3VcA7G+zO1uxWVQxVqFPmzIGjJT9/p8uL73R5+Z0uR8+UNItAqxEIITD3xXICULqR5tc2wLBtN0NvkChTZv2qgofvaPHU3W0evL3Jrq0t2q3qCE1V3TD7rjbolSRJkiRJk+amCXjHqxhgPNjNzHThgxN9Xn63x1++1ePFd7ucu1TSLCKNGMhhzi0RXJ5JWrRySoQYq4Mxw/qGMgWWdQIP3dHkK3vaPLKrxZ23NFnRma1jyTld0dNr0CtJkiRJkha7JR3wVlnuJwe7ZQnvn+jz4ts9fvhqlxfe7jJI0CwghDwn3AlXvQdJtatN037q5UnEa36wZHyqvnosefhhmRODMlMUkftubfDth6f4yt1tbt3YYNkw6K12h1VX7/h+w6BXkiRJkiQtVks84E2fGNKcOl/y7Otd/vWPLrLv0IAYqvA3hjyqbBjeChBHf0n61eFstZhZIgM5jX0hVm+j+r14PesQqrfs3DduzpByriZ7c2bHhgb/0aMdvn5/h7t3NGk166C3evxVnUukPlAkSZIkSZK02CzZgLeaJhwPkKqnOSjhx2/M8EfPT/Pq+13OXMwMykyjqCZ7XTxNmlW/j2pV7cFwMrYejZ1/nQwxBAhQtVbPvv8CgTLXH9dT8tdnlnf0eEjEFCHWj7uqYihLiEWg3YANawp+57Ep/pOnlrFtfTHcD4Tq+TPvRZAkSZIkSVpEllzAOx7sQiSERAjVVN77x3r88YtdvveLyxw6MWBQQlFAMRbeXN+oSVqcEnX+OVZrMDS/nmSYfY6mYcsEqYQyZcoM7WZgy5rIjg0Ndmwo2LaxwZrlgelu5vT5zMvv9dh/uE+/zBQxEMJCHlC5cqK3N0ikFNiwKnDvzhbffrjDrz3UYe3yOJxArl4NF2CTJEmSJEmL0RIMeIcBbaxOsa7rFt74sM//9WcXeOHtLmcuJBqNKtgNAUiQosGubh6fJagcBbsZ+ilTlpl+CYMy0xtApxW4ZX3k1o0NdmxscMu6BrdsKNiwOrB6ecHyDixvFSybgk4z0i+h2ys5cynzj/7kAn/y4jQBaDbiAoe8tdmwN2cYlAkIbF4beequNn/vW8vZta1FJpNTHh44qq5pyCtJkiRJkhaLJRfwQjWFGzKjcPfld2b4p9+9xM/2d+n28ihQslhXN6v51QtQBbopQ5kSg7KqM+kPqmBz3YrIprWRLWsabF4b2by6waZ1kQ2rIutXFaxfGVm7PLJyWfGZ7v/wqQH/+DsX+M6L0/RLgHzDQtM6WM5UB4VmetBpBn7z0Sn+699czu45Ia9TvJIkSZIkaXFp3OgHcC3Vi6lVKzllMvD8mzP8k+9c5IW3Zmg2wg2cFpRujJQSIcY5VQvFcNNPGfopMRhUk7kxBNatDGxY1WDdysiaFYENKyOb1xVsXddg+7qCbRsim9c0uLK8AciZclhpUHXwXuUiBLZvaPD3vrWCU+cSz77WpXkD90QxxlFPb4iR5S3olpnv/vwyBPhv/mrk1k0FYSzcrStg3IVIkiRJkqQbbckEvOPBSwiJQOT94wP+5Q8u8YNXZ1i/MpIJo0XUDHe1VM0/eFF3TNfTuWWCwQAIMNWCdcsL1iyPrFkR2bQ6ctvmBndua3DrxoKdGxssn7pyKjeTSeXwgMq8IHe4vhpzTw2oFlOr2rCrr+zc1OCrd7f581dmbmjAC0CKo2H+HKBZBPoD+P7Pp+n1M//dX1vFrZuKORO8dcgrSZIkSZJ0I93oWOWaqQKXYbgUIjln/uK1Gd442GPVskBdtpuSU3daWuYHutXHiZSqKoYyVeFuswh02pFOK9BpwrqVke0bGty5pcGe7U1239Jkx4aC2bg2VylthkyiLnMZP0gSwie/p66c3o2jx0uGRhFYvTyOem1vpNnHP/t8mo3ATD/z7OszLG8H/tv/eBWb1xaEYE2DJEmSJElaPJZMwFvXM4RhrPTs613+9MVpTp4r6bSK4dcgmMlo0s1bFLAOGjOQUxrOx1bvg2Yj0CTTalYLou3e2mLPjib3bG9w144mq5bX07n1vO2cWdzhZ2fDXWDs40TOkRg//4GTPLynVvOzX2dhxOFialWA22wEpnuJ7786w87NTf7W15exfKp6jep9jkGvJEmSJEm6kZZEwDt3ZfvMsbMlf/TCZfZ92KPdnK1lcHpXk2rOxGiESBwFujAbumYCZZmZ6gR2bSl44I4Wd21vsmtrk51bCtqNQIyBIkKcM2IbyDlx9TUXq4ngKvi82nvos72vUpotNIgBUsqcPJsIoY57F4/xKoZ2I3Lhcub3n7vI7Zsj33qoMzxLwCleSZIkSZJ04y2JgBfmnuO972CP9471GZTQaUZKIHpKtSbZsHahjkhzrv7IOTAoIYTMlrUFu7c3uXt7g/t2trhtc4NVU4HlU1Utw/wQ9ZMC3fFwc+yzsw/jiz4Fqsnj6u0aOHNxwPEziSIurnC3Nv46xJg5cSbxb386zd23tti2LoKLNUqSJEmSpEVgSQS8swseAQTeOtTnzIVMs1mdCh5JXy6Zkq6zBMTZP5g/01oAhMigzPQHme4gs7wTuGNzg123NNlzS4t7b22weW1k/crImhVz39o5J1IeL2+oXD3Mvfa1A2n4Z8yRNPzXpW7mzKVyGPBebXL4xqv7jIvh6/TC212efb3Lf/qVgk4zkHK2qkGSJEmSJN1QSyLgTSmNQquUMq8e6HH6QqLVGPf1yVAAACAASURBVJ0QfqMemvSZxFQfhKi21XredlAm+glmulUAunV95I4tbW7bVFTVC9sabF5bsHVtg1ZzLLrNmZJMGMtNA1cPdBckmEz19PHstP2HJ0r2HezTWOR7ofpbEwLMdOF7P5/mgZ1N7tnZIodMYbG3JEmSJEm6gRZ5tPLZhRghZw4cK/nwVEmvl+m0AmVKRAMYLUKJ2YXS6gnznGGQEoMBDFJmRbtg58aCDasj29cX3HNrk123NLh9U5PNa4s5t1dVLlQfB+qO3UiOCca6c2/EpGkdLOcQiQHOX0r8dN8M+z/q0yzCIp3frcy+XpFmM/PLD3r84r0e9+xsEUMYW9jOjm9JkiRJkrTwJj7gna1mgF6ZeeVAl5luotkEMgSnd7VYjFUwAKNwtw51y0G1SNrKZYHVayIb10R2bWlx/+0t7rm1YM/2Jo3xBPEqU7qjLwHk4eJoKX6pIfZ64nf8vVYb//wnBcdzr1eVT3z/lWl++FqPQYJmMxAJi7rPtn5sIQc+Pl/yk7e6PLanxd7tLTKZwPDlliRJkiRJWmATH/DGGCmHAVJK8OahPtM9KOIw5Fqc6zfpJlGd3j8MdSPU/bo5JQYJUglFEVjeKVixBjavbnDPziYP3t7koTta3LKhoNqIM2RIOc2pq60zxdkJ0kRK45OkXy51nB/uzg9gx0PZqwW049ePw8XUPjg+4Ds/n+H9Yz2m2pHwCdddTOou3hwiyzuBtw/12XdwwN7trdG3Z9TlIEmSJEmStIAmPuAdnw7sDjL7j/TpDjLFMGcx39VCmr9YWhyFuomcqq/nFGgUgal2oNOA7RubPHRHgwfvqKZ1N60qKGIghPGl1kL1v1RFuXXGG0bh6+x9XauMcW44Oxslz3QHAHRaxa8If2cnfEOonkO/THzn5Wn2HezTbARiGD6/CchF6+C8KALHzpQcPNEHqrMEckiO8EqSJEmSpBti4gNeqLtGM8fPJN79aECvn+m0DFu0cOoQdJix1n8MqxISOQXKXC0C2G4H9t5S8OidbR7b0+LuW5usXhZpNpjTF53J5HRl/0KMkTwWul6Pydc6NK7C2Tpkzpw6dZo/+ckRUk78xpM72LF1AzEGUspXmcJNpFQtTlbfxndfnuY/vHSJMxdLWs04ulycgIR31GEcAr1B4vDpktMXStavrE8XmK3fkCRJkiRJWiiTHfAOh3dDiPQHiQPH+vQGeTTzuNhP+9ZkGz8jvz6FHyDnamI3JRgMAinDqmWBB25v8eAdDR65s8XOTU1WLY+s6MQ5k7rjC6UNb5k4XI6tup/x+7t+ZidvAyEEyrLPd1/4gP/32WneOrqcHAJvHTvBf/lXetx1xzaYt0xaSrOPPIQIZN463OX//uEl3vso0WpGQmDe9PHkKGLg5LnE4ZMD1q9sUQW7yZYGSZIkSZK04CY24K3OCp+tZ7jczRw42gcCRRw2kpq06LqaN7GZI4OU6Q9KiIEtqwv2bm+yd0eDu3c0uW1Tg41rIutWzH3b5ZzJc1Ld2bB4VLtwnZ/JfHXtQgiBXq/H9188wj///oBffrgcimUQIt/9xWXu2DrDXXdc/boJRg0TFy8n/r8fT7P/owGBTAyLe1G1X6VZwOkLicOnSh68o5pSzk7xSpIkSZKkG2BiA94YEzlVk5IAMz04cKykzNl8RdfeMLfLJMJwAytidWr+ICdmelAm2Lm5we6tLfbc0mTv9ia3bW6wY0ODlcvGg+BcbaeMd0TH0Z3Uoe6Nloe1Ch+dvsTvfe8Urx/bRGeqQxFKQoycOZ04cWZmznXqSuwYIzmn4XR95gevzfCDV6fpD/KommFSw12ARgGnzieOfJyY812c4OckSZIkSZIm08QGvClFAml0Yvj5y4l3PuqT09weU+nLGp80DUQCMCgTvQGUKbB2RWDv9iZ3bmnw2O4Wd+9scsfmJu3mbPCXhtULY0umXWUBs8W13RYhkMsubx28yJtH11A0CopQkolcvHSJe7cP+No9K+ZcJ8aqpqB6XtWzfendLv/yh5c5eT4TA6NqhkkNQzPVPubsxZKDx/vDILt6rpP8vCRJkiRJ0mSa2IB3dAr7MFg59vGAj04nUs40ijpssQ9TX9xo4bThRpRyoiyhN4Bl7ci2dZEdGyMP3NHmsd0tHri9xeqxSd08FuqGMPx7Xqi72MPAXr/H2QtduqlFkRuUOXB5psctKy/yt399Nd94eOucy6dUTSLXgef7x3r84fOXeeODHo0CimJ+qD1ZUkqEWPV+l2Xm6OmSD04MuH1zk/FqDUmSJEmSpIUywQFvPUkXuNwtefdYST9VE4KVyQ2RdIMkIM52qFY1A1WoVyaIMbCsAxtakftva/HMvW2evrfNtnUNRouM5Uwmz1koLQPkYfD5BTpa60C07rad78pJ4GsjZ2h3lrFr2yp2rjnFkfPVdO6W5Zf5r769jL/xzW3EZmfUHxzjMAANVXfvdDfx/Ve7/OiXMzSKQBEDk/6+rB97BhpF4NylxPvHSm7f3Bw+fw8sSZIkSZKkhTXRAW/t/OXMhycGhDR2DvwiO91di9coHI2QiZCqrt1BgkCg2YysaMJtmwoe29vmyT1t7tnZYvUyIM+WLlQBbBj+P1P16SZSmtur+3nCv/nh7tXC0c9ymS+iqh4oeGjvGv6nvznDHzz7MRcvXeRvf2szzzyyhcYw3K0D3jp/rqd3X9rf5U9fusx0D4oYCOGT7mkyNQo4ezlx8ETJ3B5eF1qTJEmSJEkLZ6ID3npI8sJ04oPjA6o4Ln/aVSRgfFh33kRphhwy9ba0bmXkiT0tntzb5om9bdavjHRaYdQvS4Cc0thWl0eTnHWo+0Xz1vHgNgCEUIWp1cOr754Q4q+c8v28xm+r0WjxjYe38eDuzaQ8YO2KFkWjCUDOebbCYnTfgQNH+/zxizO8dWhAq1GHn+Nh9+QrIpy/lHn/eH/O55fSc5QkSZIkSYvfRAe8dch1cRoOnuiTyRN9+reuryp0raYrZwdq637dTFlCt0xMNQL37mzy1F1tHt/TZs8tTVZMBVqNK/t1AUaJ7liY+2U3w/lBbRje4KVLF5mZuUgjRlrNFu2pZcSiRT1BfK3qGuaEyyESiwbrVjeANlDVN+Q8fn/V9epO7FcO9Hjp3e5wUbUwXFhtaQWfjSJybrrk3Y8GdPuJdjMSQvW6OMErSZIkSZIWykQHvMUwTPrgWJ+T5xNFqDNfAxZdzdztIudq4bTpLsQAt28ueOCODk/ubbN3e4tb1hWsXlFXLswLdRmbck3XfrG08anY6uPMBx8e5v/5/nHePb0GcoOVraN8+5Hl/NbTO4hFmxDCNQl3a+Mhb77aYPzYlG8avQaZU+dKntvX5cipkuWdOH7xJaF6yomiiJADZy8m3jtacvf2QIhxGPBKkiRJkiQtjIkOeCFw9sKAA8f6pASN4bNZapOC+nLqoHIUmuZMf5BJZWDtyoIHbyvYu6PJ43va7Nra4PYtDUbj4TlTkgijgDMSSaSxhdiu12Me3X7OfHDoOP/izw7x73/e5uRMNUXbym1OnT9HqxjwjcfvpNlszHm+X8b49T/1tq5Sz/DTfV3ePNgjDyuxy2vcDXyjjfqUc7XP6Q5g/5Eee24paNSHmK7DoneSJEmSJElXM3EBbxqeCl/nbacuJj48WVLEemGrpTMpqC9nPNgNwKBMdAfV4ljbNhTcfUuLB29r8NCuFnu3t8amTTNlmUaLglVzqcOP48IfQOjOTPPivhN855cdptnK+lWRSMkgb+CVDzOrf3KOx+69yJrVa6oJ0mvUw/urVIOs1X1Vr1Xm3OXEs/tmOHYus6wzXGpuCb4h6+2hiDDdS+w/3Cc9vmz2AkvvKUuSJEmSpEVq4gLeKixKlGX177MXEx+eGBDDp15NN4Hxjl2otpWcod9PDDKs6ER2bCi497Ymj+1p88SeFrduLGavnxPkKqyMMRJCtShYjnPzuoXOK6f7JYc/TnTDFmIMpDyonmsxYLpcztFLLfq9HuRECMWCLTNYDbLO9vQC/OztLq8d6DHdTaxoRxKjWeglpX5OjQgzM5m3DvcpywyNapnHkKIhryRJkiRJWhATF/DWYVKo5gc5cTZx6GRJLMDqy5tUAmJ9SvxsZUBZQoiBZVOBNSsKHt/V5Kv3dfjGvR2Wdeq53Nn4MQyLZqu/EjnH6nZvdFKXIaeSVHaBKQLV4wIIIRMY0C/TgjdPpznTu3BxJvHc613OXMx0mpCXYrI7T4yR6V7i/eMlZy8mptqR6EJrkiRJkiRpAU1cwFtJhKJKj94/XnLqQmLDyoLsGO9NpZrYpR4lJecqWBukagG+GGHHxoJv3Nfh1x6a4pE7m4RQV3lkcsrkefOucVhxMFsrcONDuuVTDfZub7O2cZKjM1sIoQVEUoqsbJ7jjnXnmWpvZKEfa5wzvZv4+TtdXni7y4WZxFSreixhCS94mKnC/wBcms68faRk45pIo3ChNUmSJEmStHAmKuAdRSbD0+iPnC756PSARjE7LejiRktbFRdWf8Y42wObgZwDMQaKAPff1uIbD7R56u4Od24u6LTCMNytLjcewNW9urP/XjzbT86ZZmuKpx/cwXsf7ef3//IM57pric0mMZ3n8dsTv/vNraxduxYYX+zs+qruZraneHoGfvxGl7OXMs2ien/WfdmL6OW8tur6jghlzrx3rM9juxusmBp+2X2RJEmSJElaABMV8NYLOlUn1geOnBrw0cclrWJ2ctdAZWmq+3WruoSxMDbDgEBZZlYtCzy2u81Te1s8sqvNjo1xuHBaHeymYf0CRCJpdMhg8YWQ9XZcTcgG1q5dzd/5rT1s33yEV9/7mEaR2La+4MHdG3j07s3MVk3kBXoP1PUMEXJm36Eez77R5XI30SxmO5CXsmHtcLUIX8ocONpnujc1CnjBkFeSJEmSJF1/ExXw1qeE1458XHL045LGRD0LfR51QDa+eFrI1cTkTD+Tc+aW9QVP3zPFU3e1uXdHi20bClqNOtTNVH261e2NtqHIje/W/RT1dl4/3hgj69et5neeafL0/V1CSKxc1mBqahkhNsm5ei3GL3/9Hlv1uMrhY7wwnXn29S6nzlUrH9bTu0s92KwrQqoJ3sC7R/t0+8MeZ6BY4s9fkiRpKah/bl2oM+F+lYX4eV7S4rPY9kU190WTY6Ki0dlFnarw7sCxHodODug03eCWvqpjd5AS3V5meSdyz60NHtvV5sm9LXbf0mTHxubo0uPTuvX166nTSdhBjU/wznbdBlqtZWzZtGzOZRc63CVCTrP1DAdP9vnzX8yQEjTqqdYJeI2/rDj2XMtB4sjJkmOnB2zfUBDD3JBekiRJi89iC1IkabGo8wUPOE2OiQp4YRiW5Ey3l/jwROLC5cTU2mrDy9kwZamYndytgt3eIDFImXXLI3dvb/HwrhZP7Gnx6J0tVq8ohtfKw7Cz+teVgefkbRvjz6HaxvNVL5NzXqAdb6q6Z4EYIpd7mVfe63Pg+IBWAxpFHaRP3mv9RYy/5he7mXeODbj/jjbtpgutSVp6ftV/jxZKCGHOhIs/+0n6our9Rz0ssRgYpkg3p8U2vV+fuavJMTEB75yDqwHeP1Fy/lKi3YrD9tHF16Oqz2d8Z1bESMqJmR7EGNi4umDb+sjTd03x1F0tHrqjRVEEIJNSpjopftzNFTTCwux8I5EUE2H4fvzweJ/n9nVpNAIx5NGlbhb1ax4jRAIHjw+4NF3Sbk7MrlWSPrP6gOJi+GF/sTwOSZNt/EDRYDDgzJmzlGXJ7PoW11eIgbIsaTWbrFy9gnazvehCHkkLY/x9//Hp00x3ezQaDXJagIPqEUiZTGLNmrVMdTqEUGctBr2TYoJSiLnTcIdODjh9IdEo4AYOkegaqHZkw18cqU7/7/ah3QxsWB24fVOTX3+owxN7mtx9a2t0vZwT5Gqxq8DVfhBaGqH/bIj4yU9mIXa41c+/1QRvGIa573w04JcHekSGC64x2017MwlAIvPBiZKLXVhHvRikJC0d9X9nL1+e5t333mNqqj3/x7PrJ0K/32f16jVs27qFEJzglXRtHT12jN///T/g6NFjo0rA6y2GyPT0NLfdvpPf+e3fYteu3Qtyv5IWtz/4d3/Iq798jRXLVpAW6MzQ+ue8v/k3f5eHHnxgdGBfk2NiAt7ZBlWAwMETJWcuJppxOLtpkjJxxmsYoArqyzJTxEC7Bffd2uKvPt7hmfs6bN9Q1zCE0WXJufrep0imPm30s4eLn1Ri7lHzK9Uh/CjkDYHDp0qef6vLxxcTy9p1N/bN+bqFEMll5uDxAeculbCxUW2q/vdQ0hKSUiZG+OFf/AV/7a//LuvXryUt0A/+MUTOnz/P3/07f4v//X/7B2zZvGlB7lfS0lcHGCdOnOTf/rs/4vU33iCEQCBc5x/lMkWjwblz5/jKk0/y0IMPGPBKAuDPvvvn/Ls//EPWrltPGgzI1zXwqs6K6vf6tNpNHn3sUR548P6b6LzcpWNiAt40L+I9cKzPxxdL2sNVncLNdTb+BJv9Ro0vJFYCeRDIIfPgbW1+69Epvn5/+4pgdzyMjTGSU2I8VPws2eL4xM/VglzD3bnmB+H1a/Pe0QGvf9Cn1QizUw4p3oTvw1QFvCFz+FTJ4ZMl999WVTZkE15JS0q1TwtEyt5l+v2VCzbZEUJkpttlMCgpYvGrryBJn0EIYbQfizFS5gQ5E4Y/717fGaJQDazUa4gs0NSwpMVp/CeqMpejoTZCuP77ouFfKVdRcnSCciJNTMBbhSgAmWNnSo6eLukPMlPNKjLMN2OuNHESKUVCTASqxdNyzvQG1cTuw3tbfPWeDl+9p8XOTU067dmdyvxg91qcllkFl1fuuJzgnW84uhvqHX3m4ImSP335Mh+e6FOMv4Y34UuW0rAKJFQ1De8f73NxJrGi4yktkpamWESILdrt9oKtQB9jpN1q0Wg0CFf5b7ckfWmh2tfEoiDGuCA1DTFGiljf33W/O0kToj7TudFoMBgMrvv+KISqD3z2DGt3SJNoIgLe+neHquMz8/7wNOg4tpHfhLnSRKn6SKsgLORIypnpfmJZO/Lo7hZfuavNN+9vsXNzi2XtuoYhzelXvlbBbiSSAsOTrgJHj5/jz55/l03rpviNp3bTajW/xDNdOuo6hhgjKUMgQIDj5xL/6i8u88NXp0kZGnF2uvpmDMXrpxyBRhjWx1woq4CX2f3XTfjSSFrKciKlRM75uv/SkYcTbimlBeuhk3QTW6AD9NUgQP1/922Sxgx3CQtxIH3+UFJ2fzSxJiLgHf8PXh5OD16YhqKw4nKxq0O/AIQM/ZSZ6SWm2pGHbm/zjQc6PH1Xizu3NVjeqU65HA9250/TXosAMTFcnC1UtR9vfHiZf/rdS9y58ThPP3w7rVbzpl+4b36NRQiBEODyTOb3vneRP3z+MhemM51mHH6/4k0Z7s4XI3xwouTspcSOjUCGGFN1ioEkLUELtRCRJC1N4RM+lqSF+TnryvtwXzSpJiLgHZ/cDATeP9bn/HS1wFr1OS1Os8FsWSa6fZhqwwO3t3lqb4un72nz0J0tplr1ImtXBrv1x9dFgJOnz/Kzty5yqncL8eQhUnl97moSjcL1ECFkzl9O/KsfXebfPn+ZM5cSy6ciqbw5p3Y/UYCDxwacOj9+UGq4CKDnGfxK8w8sLAaLtbJlsbw+n2RB9uGSJEmSJGBCAt7xX2RnepkDx0ouTpe0my6ysRiNpnZzZJASvQE0G7BrW5MH72jym49O8cy9bRj2udanXlbmLqb3ee8XZoOFPLyHGKue1PHAub63947M8ONfnoW4kUuDqeFifnOfx82irmSoC0/KnChiVYty/EziOy9f5v/80wtcnMmGu1dIhBgJGY6fL/nodHWkoDoauriDuEWpPqB3gycD61PCF2vIO+fg5yKZoqweRliUr5ckSZIkLVUTEfBCPQGUOXi85PiZAYMyMNWyomGxGP9lPsRIOQx2O03YubnJfTsb/PWvLOOpu9vEUFdbpXlVCJEY0zCM/XxTX+P3n3Oec91cnyY/PkE5DEPOXm5w9GynCudCY840+M0UTlSvXxWEhzAMykP1/N88NODf/OgSf/zSZboDWNaOw+qBm+f1+dWG64wGKCK8f7zPqXMDNqxukJJ7qc9qFFjGxTHvXIemiymsnH8ga7E8rnHjoTi4r5AkSZKk623RB7xzz0INvHu0z3Q3U8RhHX2qgrtJ//1xmGl80le5HsvI1bf6ZW69etzVL/MZyCkxKKHdDKxaGXh0d5v/7KtTPHlXh8Zo4Lrqc81pdmq3ChdnP/685ocJ3d6AyzN9lk+1aDWLKyZ4ixAgz3D0TJ8eKwmxIMW1DMYi3sUanlxL9fcP6q7dNFrMEDIvvNXlH/77C7x1uE+3B42iWkznZnhtPo/x928zwuGTiSOnSzasblz1Mrq68bM1UkqcPnWKY8dP0mgWLFQZTwB6/T5r1qzmlu3bq30Fi2t/MD/cvXTpMh8eOkRK1dT9jTikkHOm7PfZsHEjmzZtvGKxBkmSJEnS9bPoA97x05tTzhw4OmCmB4165fpF8gv355Gu0sf56U/j+jzHOO/vL3QbsbqFnKvAtsyBmX7i6Xs6/BffWsGDtzdZPlV1J0Pds5uH143k4eTo7G19MSml4QRldT//+j+8yr//i/3857/9AH/j2/cyd6G+yoHDZ3njwDmK5toqnKDNmbMX2bxmNTEW5CW6UnddxVC9d9JYNQOjcPfMxcQf/eU0f/CTS7x/rIq9m41ouPsJxl+ORhE4crrk2JnEg3MudX0O1CxV586e5Z//3r/kH/4f/4h2q0UYdhlfv6A3V4tBxsjFCxf5nd/5q/yD//V/YfOmTYQQFkVgWQfg9cKHAOfPX+Af/5N/yu/93r/g0qXLNJtNUr6er9O4PLyXwGBQsmz5FP/j//Df83f/zt+qPrtIXjdJkiRJWuoWfcAbh6f7A+QE73w0YLqfiBNSv3u1MKwKKq789Tvn6vJlrj6ufy/OuYo1copk8tjk6/D2YiAMbzDEQCSRQyBS5Z2jU8eBHKuIqf5cCF8ucMq5Ct4vdxONGPmNh9v87teWc8+tTdavKsYu98UWUJt/qu+nCcPbunz5PK8cXs2P3l3PU8frLtT6NU2jhPfQ8R5vH56hGG5jGdj3wQVu27KMTqdgqeUSKQ3jxZggVdPWMNxGQqDeIt8/NuD3fnCRP39lhnMXMyFAUVQVBIa7ny4DzSJw6OSAI6fnbnu+bp9PJnDh/HkOHT7Csk5nbD9w/QLe6gyCyIWzZzj18cdX7GtvpPF9YQiBEAKDwYDvfPe7/LN/9s95/+DBqjN7dDrEAnXyBkhlyUx3hv/57/99fuNbv14dvJvTrS5JkiRJup4WfcCbUiIGgMy5yyX7j/SZ7kGnOblhSWR4OmuGQVk9x0FZBRqbVkdWrwhMtSLtZqDTCLRbofq4Be1GoNMKtFuREKDXh94g0e1luv1Mt4R+P1f/HmS6feiVmX4vMTP8eq+X6Q6g28uUqazC5sAoEAY+czYwGMDKZZG/8vAU33ygw8N3Nrlza2v09TrYrX7hh3pS9NqEXVdfkO17LxzmneMdiuXbKGkOH8eVlz17sc+Jj3sU7ergQSBz5OQlprsDOp1r8PAWnf+fvfeOk6O48/7fVd09MzuzWdKuhJCEQJgcjAkmY4MNjw0cTmcfJhjHc7q7x77w5Of3/O5s350fm2Aw4IRBEtE2Z3K0QUgkBYQkkvJKm3OcnZnurnr+6OlJuwIE2tlZqd6vF2h3Z6anuqq6uutT3/p8FVpKRFgNWWE3jK5+c3eG1VsyvPB6mnXb0owkdbafVd4W9cpFIS3JwLDPrm4Xsks5UprI571FSIEdiZCIx0nE42X7XiklrpsmlhWVK4HSha7wmnzppZe5+dZf0trWTk11ddnLKyWkUhkiiThX/cUVfOPrX+Ggg+YBE73QDQaDwWAwGAwGg8EwdVS8wAtBlKnSip1dPgNjCuVrhCPwK0gwCf01g3glhchuxbay5fOVwvXA9cH1NVFb0FgraaqzaG6wOKhRMq/RpqleUlMlidiCqA2OI4jYAseCiCNw7MDfNmIFAq/rBwKv5+vg+J7O/k3juhrPh4wPGVfj+tnfPU3GI/eZlBcIwJns7xlXoyYLMS5B6yBacf4syTnHxfjA/FDY1fi+zorFoQ1A2FZ72V5ZGwEhJIVJ4rUOjh+aXRRG+K7cMEprtyZWFQc7CoAQGq3DiGWVbROBp8ip21oLdne5jGc0DXtXyook57FcmIBOKRAgCyJ2t7ZnWLfV5ZkNKTa1ZOgd0VhCE4vIIDov+/lKudYqlZxNiAVCQ0e/oqXbZ1HTDNluUIlojVYK3/dzomY5UErlItwrjbAeNm/Zws9uupl1617BcWyEEGWrp2D8Fbiuj5SS0049le9+55ssWrgQMEnWDAaDwWAwGAwGg6HcVLTAWzi/TmU0m3e7CK2x7exm2kqZNBYkqgpkM4nK2i2kXFBKUx2XLJ5rM7tO0lAtmT/LYn6jpKnB5qBGi4NnS6qr9qY5Cre+7otm1PgK0q7OC7xvgwCUhpgjSFSF7aDxtUboYEt/MLl/nyJ8VjkXQpMeH6erb4Cm2Y3EYlXB9t+sfUX+NDzaR2tIug6WXcVICrQ7hnAS2S3D+XenfEkyYxOPa6QAX2m2dXqMpbKWIDCzBYqCrF7Btu68JYevAvFx7ZY0z25Is2lXmq5BH8cSVDmSQjV9Rp77NJCrJx0szPSN+rR0e0UCr4nife+US7isNIrE0qw1Q3t7G7f+8lc88eRTOLad61Pl6FtheXzfRynFB088gb/57rc55uijgXzk7oweOw0Gg8FgMBgMBoNhhlHRAq9A5cS7dEawud3D16GDbWVQGJmqtcL3wQ2CJEnEJE0NkuY6i6MWOhyz0OGQZosFc2waa0qj+nTeI/Zdm4oR2AAAIABJREFUIwhkyPdeH6FmIpBYEuJRiEf3TkgJrRe0Dkokke9byCr13E2nXJ57ZScrNg7y2XM1xx85l6D75hO2oRWtnQMMu3GwLCwh6B9KsrvLY+HBCcJo4rC2Uq5FMm2REKEPLfQMKzJueGJZv+DyBQ6+b3IJ1Jhc2PV8Rc+QZs2WNM9sSLFmc5ruYUXEhqqIlesPRoh8b4RR044NfcM+u3tcIO/3YarUsDcUirvh9ZhJp7nt9uXcc8/vEUIgpSxbdHNYDq01ruuxePEirvnSVZz/0Y8A+cheM34YDAaDwWAwGAwGQ3mpWIE32Eme306fzCheb83gK10xIkl+shtERCotiDmaGkcyp87i6EUOp3wgyilLIsyfHVZ1LnNakDCtSJvdW6H2/QvdoSirhSo4XFjv70Y0CATmiQnU3l8jheJAmGBvYDTDbY8N8HxLM4cvTHLkIWNEYnVF9ef5itVv9DKSrMJ2LJSvGc8IRlOTb5F3LEkkInJ1gIaxTA2uLkgOJ1RWtauQTrcH8oJKUF+KYmEXDcPjihfeSPPkKymeey3FwKhPVURSFRFl3f6+PxP2EtuCgZEgSroQpWSldyVDhVCaVC3krnvv49777mNwcIBEIlH03nKUByFIjaeYPauRL3z+c1z5xcsBcknVzFhiMBgMBoPBYDAYDOWnYgXeAJWLKBwYVWxp9VCqMhK35LapKoVSgogjmT9bctLiCCcuiXLSkgjzGiSWCJIF5T8XTIAn3woskVKVRQRSgFSggsDX7P9CgTCMnn23AnLwuUCM2DdbckuTCY2kBC0jc5B2gr7BLkbG0swqSYTm+ZrXto0wlopiS4mnNCPjiq5+l6ML3he2RiIyTl1kDKWzacakwBU1DI54gI8lrYr14QwpFHZCD1iRq/+g/fqHFau3pPnT+nFeeDPNyLhCI0hEg+RfBUfL9b1KuMZmKhqwpWQo6dPS7TM45lOfCDyktX7/ix+G/Z9ScTccB5955lnuWLqM7Tt3UFVVVfbyaK1xMxmqYlE+/enL+M63vwXZ+1mhNYMZPwwGg8FgMBgMBoOhvFSwwBtspZdC4vmKHR0uybQmGgltBaZRKMmKmFqD0oLahOAjx8X41BlVLDkoQlUEHDufxAqKLQdCcXfyyXB5Ivxk9n+y8BcK/31PR9ynZRcEAm8qmeTlTR0kvTiWLdndmWFwVDNrVvC+UIZWGtr70mRchYyAZcHgSIa2HnfS49dXaWbXaDq84EKQCHwNL23s5diFktmNtVSgJSdQaK8r0WFyr1zkXJAhb3BUs3ZLiidfSfHimylGU4HHshRgSVGy8EA2kVrZT2W/xZKCwVGPlk6X+sOiCCH30oLFcCBTusj11uYt3Hzrr1i3bj0RO1J035hqQTUUd7XWKKX47Gc/zXe+/S2qsxHEpe81GAwGg8FgMBgMBkN5qUiBtzRocjip2N7lI2WhZDo9k0iVTaimtWQ8o5jbIPnc2dV87qw4c+oKtvZrNSFKdzJB10yGJ0cQSPgW0NmfYsX6fnw1H1tqMn4+w33oQgyA1ngF2eEsKRgcc+noD/0jKHKeOLg5zgcW1bF7s8ayNQKBELB+az8dfTWBwFvwseluqSDqWqGyVgzhdaIBhCDQawXJtOLlzWkeWT3Ouq1phsY0Y2lFxALHzvt1FvZF0w33LRqwJAwnYUeXzwmHFS/2mOveMBml3uPhtTqeTHLtdTfwzLMrEEJgWVbZ+lFhNHE6k+HCj13AV7/yZQ5ZtDB3jwv/NX3bYDAYDAaDwWAwGKaHihR4oVi4G0oqdna7SFEk55WdMGpSI/GVZk6d5LNnVXPNBQmqonnRLI9E5hLFlS/L+UwntBoIm3o0JdjaGfxuCclQKkZaOcF7iz5pkfTrUNrCAoSEZNJhIBm8WirUfmBxM6cdpXjy1R50ohGRXUDY0S0YTOa9axGBncV0K7yhpYbM2gKLrKAbikDDY4q121I8vDrFG7tduvp9RlOKmAMxR05IoGb64tQQSrm2BcNJn13dXtHrptoN70ShPcN4MsVPrruBRx97nFQ6RVUkghbl8c0uEnfTLid/6IP89Te+xgdPPCH3HmPNYDAYDAaDwWAwGAzTT0UKvFIqtJLorHw3PKbZ3u4hxPQKpDKr8mmlcD04/cgYl55WRVVUorQCrbNuB+FkFwKR17A3SBnUcTYklXEXBtNV2ShVxcCITzI92Vb3bMK37G8CRdqPMOZFJ7zT9zWWZXP4QTYLG0bpyDQGF4MQDHuN9A0HiwmWDNpWSzVtLRn2JQWgQJckUBseU7y6I8OKTSk27HDZuDNDxoPqGFRHJTpraWL8dcuLJSVDY5rtXX7WOzxcBDJWGIaJhIuDoR2ClBLXdXnw4Qf57e1LGR4eJpoVd8uZVM33fXzfZ9Gig/nyl6/hvHPOATC+uwaDwWAwGAwGg8FQQVSkwKuURBQkWGvv99nd6yNENpxy2ggmskoLlsyzufCkKhbMsdFKBwmUsvG6UlVAuOcMJhQ6LCGANF0DSTxdDVZQq8PjmrQ7SSS30MStcSxRg9YghcYXEUZSFtpPI6xoQWRc0JcOO7iKj51Uy2+fS6EjVYENiJXg9V0jnDngMKehLtCNVbZtyyRiqKyam0+gFvxdBsouAENjio070rzwVpqX3nTZ1JJBAFUxQTwm0DqUvEFkE/iZfjn15CKkBaQ9TXu/R9egYl6jREiy9iKmHQx5CiNltda56NwVK1Zy089vpbenB9txEGUSdyEvNPu+TyKe4MtfuppPXXYptmMXJV0rtZUwGAwGg8FgMBgMBkP5qUiBN9x4L4UkndG0dPuMZzQxp/D16RNIlIbTj3Q44dBI8AeRFxtznqbTUbD9kKHhNNtbk2grgUSA0AynoqS9bGfQuUBfhIa66sD71NdBLG/UtukdcXlpUwennrAoOEYWrTWzGuq58DSXl95q4/XuKI4jcWzNCxsGOOeYCHMa6gKxWKpcxOxUUiqWhHYVIifoaAZGPN5q9XjhzQwrXhvnrd0eti2IRwRIgQB8Py8CTbdv9YGGzHokayS2BaPj8ObuDPMaYwjyOxMMBigWdyHvu7thw0Z++ZvbeHXDRmzHKavvLgTjYyaTIVFdzef/8rNcffWVVCcSuXIWRhwbDAaDwWAwGAwGg2F6qdiZWSiZ9o4oWns9rKLA3ektttaa+lqL6pjI/g5ahxGShn1B2P6jSZ+OXhchAuFSoEm5krQXJk4TufdaFpywOEoiBp4f/M22JYPDaV5+vR9RkIBNkE8MdMTCBFddEKcuNoTvB1uO3+q02N6us1+R91eeqmA1pSZPUCSlzIq7mtFxxcadLsv+nOQH9w7ymydH2N7h49hgCY3IiruG6UepoB0tCcm0YmuHW/L6dJTKUMkUWup2dnVy+9LlPP7Ek1iWVVYRNRRuPc/DcRw+cu65/Jd//D6zGhtz7zGirsFgMBgMBoPBYDBUFhU/S+sb9gJ7BikQFVJcDQit0bpQTlM5Ucfw/ihMsJZMpekdGkaELwjQTgP9wx6Qzto4BEQikgtOmc+sGki7GQSSiA1DSc2mFkXYXJp8RKzWmkg0zjknzeOTx3YSjyRxPdBOMxt3pdnV1oGQIleefS3ih1YM+d+DiN0gCVrgA+z6irdaPX79xAjf/9UAv35ihF3dCluCJQW2JQusHExUXSUQVr8tIZnWbOvwi9JDmsUgA5RG74rcdbts2V3csXQ5Uggsyyq7NYNSinQmzemnnsZ//afvM2dO04TymkSNBoPBYDAYDAaDwVA5VKhFQz6aqXtIsas7G8FbIXNJoUEjsum8QoHRJE7aV5S66wodREmL7C9SSnZ0JOnpizBnVpBALfCttJg7t4nmRDtvqip83YCUijHPoW24Bq0EWECBWBJmqq+rqeFbf3kKg+Nv8ewWH8+ZzZrNw6x8NcXl8+cFHVLrfZYgKy/WhAsDpeKNxvU0WzpcHluTYtXrKTr6fUbHg1ctqREybzihFCaBWgUipSSZVmzvcvGVxs5GnJtEa4bSMSi0Zrj1F7/mjqXLcd0MkUikyJN3KssCeXF3fHycU07+EN/97rc4+uijgfyOB4PBYDAYDAaDwWAwVB4VJzHkfAiz0lVrt0/ngI+Q05terRApBAOjmmS6cMKrTLKZfUioZ9QlHOY3xwllX0Gw7X3zrlFau1O59+fFB8EFJ1osboKUFzieCivCiFvFpq2daO3lon5LvS8b6mr4zucO4/yjktQ4g+zsreaNjlj+uwXwPv1T8xG7MptsK/hdBJ4RgMbzFBt2ZrjpoRF+cNcw968a581Wj+GxIGua1gLXF3i+xs8lY3tfxTJMARqFFOAr6BlStHT6gMbKCvuGA5fCe0WhuPvkU0+x/M672dHSghMNkqoVRsxOJeHxU6kUHzj8cL501ZV85KPnIYRAa43WumxlMRgMBoPBYDAYDAbD3lGxEbwIweCoR2ufh+dpRDS/BX26J5fCgs1tLj2Dilm1FppAKRdS5iIpDfuGRNzmoFlRlJZB9C4SS0Jbb4aeQW/Sz3zqvMNYt6OFbS/0oWobcCxBctzn0efbWTy/jtrqoNsLZMmWY8GieQ18+1Mg/rib2x7rob27Ee2No2VVYOug916YUwokKifphSKvDgqBzCZv02jWbEnz5/Up1u902dnhMzjmYVmCqC0RQjO/0eLi0+IMjvo8uT5F14DCmqS/KRQyt36jTMToNKCVBBkkAUxnNJt2u8xvsojZxQsMhgOL0mjZsA9seu11br7ll2x8bRMRx0EiKYflSlgGrTWe51FXX88XPv85/uoLn8e2LCPuGgwGg8FgMBgMBsMMoKIEXhUENuaC2zoHFB2DQRKpnBHCdIu7QiLRbNzhsqXD5ciFQZRVsH0/lPDMBHhfoDUkEtUsPqgGyxtA23UgBUJA74jNSCbovlqIwBNZKRACO5LgsjMb2dnVyyu701TFY6QzmtVbFMmMpjb3mXw2+Lx4AQfPa+CrF2uOXVzFvNnVYDmh/e8E+4h3h0JJWZRZqzBqbyytWLclw582jLO51WNzW4aRcYjaEItYgUDoKWwLzjomxhc/mmBrm8erO106+n1K+9tEESZIAGhE3vIiZdBfpATfhzd3ZTjvuBixihp1DeUkL9iSs2YA6Ozs4uc338LK518ArbFsuyxiarAgGYi7SimkZfHlq6/immuuIhqN7lGMNhgMBoPBYDAYDAZDZVFZUoNUSCXxswpvZ7+ivdfHtirDnCE3wdXQP+bz6g6Xs45RNFRLNDoQAcWeJ8CF2/MnbNEuEAAP9El0IDiAUhrLspg7q4q6yA4GVA0aCyE043413UMacLGEg9I6G0EdiCanHdvEpzpS7OoZZigTARy6xhp4c+cwcxsiWMLJ2ToUihehyHvowY0cenBjUbn2VuAoen82eZoo+PzwmOL1XRle3pzmxTcyrHozTcQWxKPBf6FNhdKBZUljteS846MkooKoLYhHJb7SJd8X9MGUG9gDCBEEHQeJ2FRO0DGUD1uCp+CtNh/XDdpLQ9aqwXAgEvpuCyFIpdIsXbacBx54mNT4OPF4HN/3y3SdKrQW+L4HQvLJCz/OV7/6JebMnpMrQzkTvBkMBoPBYDAYDAaD4b1RWQJvdtIbhuvu6vXY1esGiYl03pd1uggnuEIIamKSF99Ic+xCm8vOSIAO4juVnlykzQuIEHquFovBQZSnmUIX+DAHWdWoq4aTD6/i6c2gtMASGiua4PWdg2zdqVhyyMEAOU/bICmR5JwP1rK7d5w/rh6le6yWpB/joVWdHHVINc2NDopiwVUpldsWrdG5cF2RDx/fK6FjT1FvPYM+m9syvLTF5c/rA3/deFTQXGcF5dDFkcJKKWKO5LQjohy/OAIIHEdT5RQ7RoTCeCqjmF1rccKhERCK9Vs9RlJBpK/RaMqPEBLf12xrdxkeV8yus0AE/VWbNjlgKIyG9X0fy7LwfY8H/vgQt/7il4wlx4hVxXJ2COUoTzhGeUpx1umn8Q/f/88sXLAwV4bgvmv8og0Gg8FgMBgMBoOh0qksgRcVeFYqAQJ2d3v0Dmrm1EuCQMUw+nX6cWx4ozXD4+ssPrgkyqImizBx1sSIUFmQLT0v7KZdxdCYJh6F6ioLqQKf1gM9Uqow8RnAgqYEnzijmVXbRhh1a7EcQdSBN1rSbNrhsOSQQBAVWQ8FrYNo6rmzG7n8YwJLdnLv8yP0J6O8vAW6+jI0NwbJ8nTWNLmwzt9WZn8PEbxKa1IZTfeAT2ufz1PrUzz1yji9QwrbEjgWZHyN54cRxdleLsESkrQHs2sFF5wYI+pIQBOPCWIRUSIEg9KKWFRw2elx/voT1bQP+Pz498O8+IZCa4UQctKryEToTRXZOteanmGfXd0uh861sBDBIkIFjWmGqaNwgU9rhWUFizl/fmYFP/7pTxgcHsGyrFxy0am+HsPj+75Pxs1w9FFH8Xd/+12OOfaYkncGDvNmaDAYDAaDwWAwGAyGyqbCBF4AiZCazkGf7iE/2HKug4z0ugI8RAujsGIRwRutGZ5en+TLH6+BrE1D+J5CkRfIiruBCjmW0jy9fpz1213OOSbKeSfEUJNZNxzgBNG4EY5aVMcx89pZ3RLFV1XYFrT2WezsDgQRQd6PICesI5g3u4HLLxAItZtlzwv6xqvp6E1y/GEJhIzlbBqmEteFDTtc7lkxymBSk05rZtVKauISz9OkfXA98H2dTWgUnJFGo7IWDPObLE45IpqLJq6OWlRFBWHx85YWgotPqeIzZ8SJxySptMdYUkEuFWBeTsz15ayAY0TefU/oeywkCAVb231OWqKpjcuy9D3D9FN0HxBBckeANWvXcesvfs2bm7cQi0ZzuwnKJe5qrcm4LvOa5/K33/0O55x9Vu7v+Qhe00cNBoPBYDAYgKIApHJgciAYDIa9pWIE3tLxcmenS++wIuoEUYpSyYoIdCscYKO2pHvA57F1aY5fHOHkw4NJemEUbz5qN0zTBRt3prlnxTiPrx3npMMiLGiyAYEQCjOfDpAFYocQgoOaEvz3Kw7j69e20DYsqK6uwpX1tA5qRkcGqK5pAAIZsyh6GknTrHquuSSC67/FsxvGqEkcBjJStrqORuDkwx2OXFCPFAJLgLQCURYdxHG6PnQNKlp7PFp7fXb1eLT1+mxt9wDN+cfFiEfInqOgKgJRRxBa8Hp+cM5nHh3hyxfWZCPKoXvQZ3O7hw71bxRagecLNIHPr5AKqwIWT/ZHwjqVgJSCbR0ew0lFbdzKvZ4NIjfsx+QX+YJ7QFtbO0uXLuOpp/9ExHFySRfLKe6Oj4/T3NTMNVdfzWWXXUo0Gi0Sd82EwrA/U7oAv68oPKa5fiYyVfW+J8xY9u7Zl21jroPpxYxv+4Y91aPYg2fknv6+N5QurBcGjeUweXvKRmmy4X2FuTcZppKKEXiLI1cF29pdeoYUjhWIdlrmrHkrBiHAloLtHS6PrE5x2FyHhhorG0gaJNVCiJyXbNeAy582ZHjgxTFea/FYMMfi0tOqOGxeIPYEY7q50GFitnkpJYfOr+VzZ2iWP5+mfzxCLBZl/dZe7n+mnysvach9doJFhpDUVse55uIlXHy2z8LmBCDRemonGIXlsC1BfeLt31+fkBw21yKV0aQzmpQLY2mF0jCvwcKyRLbMEtsW2JbA9SDjaaSADy5x+NpF1RzSlL+su4d8RsYVUSf4XStB2oUPLXE497goLT0+f1g1jmUbq4CpRSLQbO9yGRqDg2dnxzUVJL8zdb9/UirsCgSjI6Msv/Mu7v+PB1BK4zh22RKZheKu53nU1dZy8SWf5Jt//TWqYjGAInHXYDgQKJyQv5+I9dKJvZm0vT37qt7f7riGd0/h4t++EqnMLpDpIbx/l7blvhjfwmMeCO36dvUYnn+4OL8vKazrPb1GQWJxw9Qjs33+7drm3ZBrPyEmRjYaDPuQihF4SyeVWzp8ugYVth1OjCsT25akXc3qzRleeivNRSdXZX1OFUJno7K05rlNKR58OcnGHS4t3R51ccmnz0hw4clVgMiJjUbsCSiM4M3/0eazH13MUGo3D66FYbeBtj54eYvgypyXqSgWd3Pex4JZ9TXMqg8OVY5ERqUrv7nbwR7uC1KCbUmqq6C6ak9HDX1bBR8/KcZQUrH6rQyOpbnivATHL47m3jec1OzuDRYapABfaTxPc9xihy9dUM35H4zxHy+Oc++KJJGKGQn2T4KFCs2OTp/+ER9wgkFNq5yNg2H/Yk8P3r+//z9YuuxOBgYHiceD8b+ckbvh2Hf++R/lm1/7CnX1dUXvKVdZwnF5OilHtPKBdr6VyGTPBAC+7wPB7goh5Ptun3DXVnhNF3Kg1Ptk1mQQBjAEfTBf73JKBJJwnCsUYUx7ZNsDcgkrCtsE8tdD8Gv+Gfnd1JFGo7NbykKrsdJmLWznyYSSA6VN9jWl95iwbgt/3xfXmVLq7a8pmLHJwieOW6LoNRDZ+8TEelRK093TQ39/P0NDQ4yNjTIyOsboyAipVBrP83A9F9/38X0fgSASiRCJRHAiEaKRCLZjE4/HaWyop7FxFrNmzWJWY0OQm6Hk+7TWReWcCWNbuXdulLI3dVJYRhFswUaRDdzLtv/7qVulVO5Yhd9XSe1VCUxV5PS+ohKvs0IqRtYJrQwg2G6+q9tlNOXTUG2h1MQHhelGAVIphJRYAnb3uvxu5RhHLLBZ3OwgRRByvL0jw9OvpnhiXZo3dmdQGrSC846PccGJMexsVKbWhZ1lus+uspBZ2wshJLMaG/jix3z6h3by6KseKVVP50ialtYuFh3cnK1Dnftc4U2l8KEzENwEMHUX57t5OA7bWymZ7Qf5QUzn/lfc/4MkfZoTD40wr9Fi084MaMG5xwVReL5WWELS0e/S0uXi2AJfaTKu4pQjYlx9foLzTwzeOzDs70lvNuwjwj4oJAyPK1p7g0mUlYuCMIs6+yulEVGPPvY4v/r1bezYuZNEIpH153h/D4t7SzKV4ryzz+Hb3/4mRxx5BFBecbf09+mKBJoKYemdqKTzreQH033FZBME3/cnnaD19ffR3tpOd28Pg4ODDA2NMDoyRsbP4GU8fN/Dsmxsx6aqKkZ1TTX1tfXMnj2LuXObOHj+AqLRSNExQ8GscBK+P9f7ZJMwpYLnLtu2Jv1Mb28vvX19DPYPMDAwyPDoKMlkkmQySSqVyokivtaBxZVlYVkWsWiEqngV8aoE1dUJGurraWhspLGxkbnNzUg58dqerD3Ccu+PbTKZqKJC4ftt2qSUTCZDOp3Bc12UUvjKR2uwHIuI7RCxI9gRG9t+d1NKpVTuOoSJYu/+2h77mtI+HP4bjm9hMleAjo5O2js66O3ppW+gn9GRUUbHxnAzGTzPQ1gWMcchEo0SiUSoisVoaGxgzpw5zJkzm6Y5TVRXJyZ8f1F06wz0HCvsa4URu1rrovoL6ezsZHdrG22tbbR3dtDX28/g0GAwdg0PMzY2RnJ8nPHkOOPj46TdDL7vozyFrzx8pZBaYDnBvcSxHWzbwXYsYtEotdU11NbVUltbQ01NHfW1tcye3cjBCxawYOHBLFq4gNmzZheVrbQdyvU8tzeEz8LTVZ69EXcLx8zC64mCOm/ZtYvOzk66uroZGBpkZHiU1Pg4nu/jK4UtJREnQiQWob4ufE6Yy5LDDg2e/Q1vS6l2Uyn9uJBKur4mo2IEXgiEK6012zt8BkYVIp9TnEoTQCRAtvPZlmTc1WzY6fL0K2m+elGE8bTiyXXjPLU+xZqtGQZHfWxLIgUsmmdx4ckxFjXbwap3dr5X6Z1lOphotyCY3zybL34sjS07eXRTirfaPJ5+qZMrmucQceSEzxf+W/waTHe/ypfvncuiVHaFXCjQQbKm5nqb5hPzl7HWCqEBAVvaXdZtc8m4CikFpxwe45qPVXPOsRFA0NLpsqXdxZFBNEfuO0qiyE2/fH+EdScAW8L2DpfuQY+m+uD6N+xflIpKYfu/tuk1bvjZTbz22mvEqrIh+mW4rgrLMDQ0xMknf4hvffPrnHryh4DiSfVUE5ajkh7Ypnp8q7SJViXV/VRS+NxQGtkG0D8wQEvLLnbt2k3Lrl3s2tVKa2srXV2d9A8MMDg4xMjICG4mQ8b18ZWHJSV2JEJVVYy62loa6upoampi3kHzWLRwIYcuPoQFCxawcOFCFh+yKDcJD6+xUguU/aEdJhURJ6lvgL6+fto7Oujq6qKnu5e2znY62zvp7e2lr7+fvr4+hkZGGBtNkhwbJZlKoX0VRL+pwG7LdiSW5RCNRKlOxEkk4tTU1NDQ0MCsWbOZMyeYSB900EE0zZlFc/Nc5s2by9zm5iJRJBRx9iehd7IFjWCCHEapTxS9BwYHGRgYYHh4hKGhYcbGRhkbTzI2MsbYaNAGqfFxUukgElEphef5gMZxHGzbDoSMiI3jBFGJ8Xic2rpaaqqrqY7HSVRXE08kqK2tYXbjLKKx6IR6DttiMpEqPCdDwGTtXHq99fT00rJrJzt37mb37l1s39FCe3s7XV3dwXU2PMLY2CjpdBovK7bHolEi0SixSJSqeJxZsxpobm5i7pxmmuc1sWjhIg45ZBEHz5/PggULSCTiue8rvJYKr6lKbbc91WH4t5Dunh52725l164WdrTspmXnTnbt2kXLrl20tnUwODCIUgrLtrCkhZQSKQVSSETBNZc/ZjZ6Ph1EhEJhBL1CaYXyg0WUINoX6urqWLhwAYsPXcyhh2TvMQcv4JDFizh08SHU1tbmylup41pYBtfzGBgYwPe97G6CqUgunxcGG2c1UhWNveNzWGl/KL2ehoaH2bxlKzt27GTnzp3s2LGDtrZ2Ojq66B8YYGRomLHxJF72XmVbFpFIhGg0RmNjPXNmNzF//kEsWXIYRx3xAY4+5miOPupIYrFY0W6T6W6nSmCyHQlaa4aHhhgdT2LJ8D5ezqjeQJ/0PY9YtIrVFCeoAAAgAElEQVRZs2ZV3LN9KRUh8BYORDrrU5lM68B/t8J9aaWUaMCxwPfh8XUpjjs0wlu7XX756AhtfT7VcUlVROIqqIkJLj8vwelHZLfSF0y2KjEEvVIoXpGE4z4wn6Z6m1iin9VvarR29ntPKJn1I0ZJkNmtoKWnXPD8rrVACk3EkRzabPGNT1Rz5jGx3OvtAz6b23wKgzgKheasTjwTF+UrFikELd0efcOKpvrpLo1hqijdkt/e3s51N97E2nWv4GuNXaYHg/A7gig4j4MOmsc3vv41PvmJiwCKHirLVZ7w+1zXpaOzk+7uHizLRk51NK0GZDCJsizJQfOamTOnacrPvfDYnZ1ddPf04HleIDapSfYx7yuy5xvWeWNDA/PnH4Rt2/utaFIqLJRO1Hzfp6e7hy3btvH8Cy+w4rmVrF27nq7ODmR2QmZZNrZt5SJF7XiceIn/olKKgf4Bent6eePNzbhuBtd1iUQiHHnkkZxz9lmce85ZHH/cscydN4/ampqizxeWL/x5pjFZ9GDppNh3ffoH++nr72fb1h28umED6155hQ0bN9LSsotMOo20LGzbwbJsLEdgCSu3LTmeXQibzEdUa83o2BhDw8Po9g5838fzgnHOy7hYls3BCw7m2GOP5sQTT+CkEz/I4YcfxpymOcyaNQvHtosiRytNENkbSsWJPbWH62YYGhpmZGSUgcFBdu3azeYt22hp2U5razu7W9vo6uqiv7+P1FiSIJLACnKJSFkwVIU/BEvUWuu8n6TWoDVWJEpT8xya5sxhbnMzs2fP4eD5B3H44Us4/LAlNM+dQzyRIBFPUFNTg+PYRQsihedReJ4zqV32NZO1c2Ebe55HZ2cXm7dsZdWq53lu5UpWr1nL4OAgtm3n/gvHtmg0SjQaLboOtNak0inGU+P09HSzceOmrMWAh23ZHHrYYk45+WROP/UUTj3lZBYdcghNTXOKhJjcGEdlCiDvtPg3OjJCR1dQj2vWrOXFF19i9dp19PX2BnXoOEScCLZtUV9f9953Ak0SIVxKWJ/btm3njTfeJJPJoHxF46xGzjzjw5x37rmcdtopLDx4AbNmzyYer8q3AxMTtE1XW4R9or29nd///n76BwaCsSK7I3XfGXEGOz08z0NIyacv+wuOP/44HMeZ9N2lY0ywCCty5enp7mHbjh08t3IVTz39NC+/vIbBgQFsJ4LjOLlxS1oWiUR8wm4E3/fp6emlvb2DNevWkh5PEY1FufjiT/K//sd/5bhjjz1gPK3fDZOJuwAvv7SGFSufY3BoEEvIAml3qnfh5S1p0qkUs2bN5qKLPk5DYwNWBWuTUCECb9HqvxZsafcZHQfbzl72FWbPMBnhObzV6vI/bx9kZFwxmtI0VFsgAtsJx5KceXSUT55aRVVUonQg0OX9dyu7s0wXpQ+tSmmQ0NzUzN9+uoaegTGaZi8hGpl8AN+/kCADm49sPG/xywX3iI8cH8VTtbzWkuGUw2OccUywqOD5QdT5rh6fzW0uth1EA0Nwv/WywrGU4VqzxJLh95g++l4RUiK1ZnefR/9IycQFU7MzndKtfuHDycDAILcvu5PHH38C13WJRiIIgv4wlSsnYXlCz8ua6hq+95//jksv+SRQnChkOh4uW1pa+dcf/5jbbrudSBnHbk8p5syexT9+/3v83d9+t2zfC/Dbpcu48Wc/p7Ork0gkOuWJPiHoB7bt8IUvfI7//d//GwsXLZzy75wOSsUPrfKL575WdHd289zzq7jvvj/w4gsvMjg0lBV0LZrnzg0Oot95T4UosAkIJ41CVOfK0NbextJld7J0+Z0cvmQJl116MZ/85EUceuhhbyv0zpTnv3eMHtSa4ZFROjs7WLPuFVasWMmzzz1He1s7WuucwFRfXx98DvIi4bugcFu/lLLIFiBMaEz2eMnxJC+8+BLPrVyF5/ssmD+f0z58Kud/9DxOO/U05s1tpra2tkicmolRiIW/l4pV48kUI6MjtLW3s/7VDaxds5Z1r7zK1m1bSSaTCCGx7SDyMOzbtbV11NXVv2fhKry3+J4fCMe721DKzz7H+0hp0dQ0h6OOPJKjjjyS448/jhNOOJ55c5uIx+NUVcUnRL9PtqBQqe0ylUwmfriuS0dHJ8+tXMU9997Hy2tWkxwbx3EcIpEIzc3NwDtfY6X+oo7jEIvFikSr/r5+Hn74ER544CEaZzXy8QvO51Of+guOP+5Y5s2bhyy8lnTlRGG/07WitWZgYJDNW7bw9J/+zOOPP8GGTa+hfJUT8d5tPe5LwjLGYrGitlBKsXLVizz77EriiTgnnHAcn7joIs495xwOO2wx1dXVOb/twtwL090WHe2d3LH0Tna27JyyehRS4mZcLNtiwcEH84EjPjCpwPt2UbuDg0OsX/8qv//D/Tz08CP09vXlfJPD54W3K394nPD+5DhOEDDV0MDo6BjrX32V7q5u9DH7Jqnl/sCexN0NGzfxw3/7dx57/AmqqmJln68IIUil0tTW1nLVFV9kwcKDsazKTyBaEQJv4cDrK83m1jQjKYUtw9crO3owN5EmiNDrHfHRSgflFwKtFEoLDp5tc8lpVTTWZFftcr67lX1+lUDpJEipwLuyJhEnEY8ipRV4EOn9e6DM9ZP8D0WvB5dScD1VV0kuObWKi06qwnFEbp3Lyg6a3QMeg6OKpgYL31fZ1V6IOJLmekF9wqJ32Ke9z8cyHfR9ohBIhNB09Pn0jYRegIGobnIrznxyDyYQRDwJQcZ1efSxx7njjqUMDg4Ti0Vz/o9SyrKIu67rUl1dw2c/+2n+8nOfpr6uruiBv/D95cSxJRHHIRaLEovF3vkD+wjP84g5URy7/AuCjm3nzreqqqosu3aCh+WgrsPJxmQJkGY6ky2uAIyMjPLMsytYduddrFm9huGREXzfJxKJFC2AiIL+v7dVE7aj1hqBwHGCKOnt27dz0823cu/vfs9fXHIpn//cpzni6COxZbF/YiVMvN+JyaIHC8vq+z5jo6Osf3UDDz3yKM+uWEF7ewcZ18X3/FzfK22nQt7PRDcIHNWEq9yFAnooKvf29vL440/y1FNPM3fuPC78+Pl84qKLOP6446itqykSeoNjiNzOqUpql3faTqyVIplM0rJ7N3/68zM8+8wKNmx6jZHhYbTWgU+k7xONRnPHKT32+xUd8sm4QjHeDoIzstPO/v4BXnzpZV5evQbbtqmpqeWE44/lzDNO5/TTP8zhS5YQj1cVLKIUWDcEhc7/XkFtMxWUtnfh+fb29fH440+wbPmdbHrtDdLpNL7v4zjOhJ1EsPftOtlCsG3bCOEzMjzMAw8+xGNPPMFpp5zClVd8kY9+5LxcJGPhs85kY0a5Ccd7KKgHrRkeHWXNmjUsX343z7/wAoNDw/iuH3h+O3buc4X363KIcpPVV+G9xrIkQjpkMhnWrVvPhg0bWbb8Ti699BIuu/QSliw5lFisakJb7OnY5UBaAmnn/aEn66Pvh9xzbfbfZGo8571eSGG/LLWt2rx5C3csW879f3yAnp4efM/HyT4vFJZ1b8ussjsdlPKxhEVzc1Oub+WNEg9M9iTubt26jZ/89DpWrnqeqngVTnYHWjmuv9DX2vM8amqqueKKy/nHf/gejfUNudcrmYoQeCE/2egZVLT2KjKupjqWFU0r/N498aarc5MFrSHjQX214NIPR/nQkmj274GiM903vJlE6SQonLjmxV2NkgKpDtz6DP1zFcFDsG3JnAWD1gq0RkhB95BPa7+fjd4FjUApTTQiuehDMb5wToL6hGT5M6P8+olRDojg6ClEEWYWliQzPi3dHulMUN9aq8B1Y5rLaHjv5B78sw+W4cPH6tWrufa66+no6CIScSY8ZE8VhQ/xkUiEM8/4MN/65jdobspHoEy7qCQllm3jOE6wxU1O7Yp44UO55VhIq/znbEmJZVtF5zyVhP1NiOC7iyf6U/rVZWeyaNIdO1u45dZf8Mgjj9Le0YlSgT2HXbA9v/Dz77U9wuup8Jjh9ZVKpdjZsovf3H47f37mz1x91ZV89rOfor4gQrKS7QFKyzOZAJhKp3jqqT9x51338uqrGxgYHGB8fBytdOBNOUkm+D0d/71SGL1bekyZex4PFrxSSZ+tyW103t7Bgw8+yumnn8qVV1zBaaedQsRxCkRelXMeqBQBvlQwKyWVTvPCCy9y9z33snr1Gvr6BxhPJklnMiDAtgLBak9blif7rvdSvsnau/BQoXDoui6pVIqRkRH6+np54cWXSVT/kkMXH8InLryIyz51CQfNOyj4DNkxrcASYtrvY2Uh2K1XKmxseHUT195wPStXvUBfX192t4b9ttfb3rIncbhwATmZTPLMsyt4/fU3+PjHLuDL11zNcccdm/vMdI5vky2GFLLy+ef57e1LefGll+nu7iGTyiAsgZ19NplOJqun0nuNJG9pkkxm2Lx1Gzff8gseePAhPnbB+Xz1mqtZfOihwORtsafvmSoEEktY2LadE9D29fcXPmePjY7huV7R68Frk9kzKB577EluvOnnvLphIyOjo4FN0x6eF/bmGit8v9aaSDTK7NlNwWsEwYFUuGA4VeR2zZT8vbevl59eez2PPf4ESvm5e3O5xw8hJFd+8XK+93ffpalpTtHrlXzPmXaBN7y+wgRrO7o9xtKKMAHuTIluLRZ58wX2lCIek5x9TIzPnJEgHgsEHa0rI8nXTKN09TFYfQtey1oOZsXNA7NelQpqIP/QWzxkiuyFtXazy5utHlLA4GjgE/2X5yS49LQ4i5ttauKSjn6PgVF9gNbkviUfeB1kV23p9ukY8DikORudorI3eVPZM45CcVcqhc4+xK17ZT3/8sN/Zdu27TjZKJCpntwUHt/3fVzX5fgTjuUf/+H7LDns0KL3TLuQpINIszCCIvxvKlbmC4+tlMoKBOV/mFbkIw2n8nyhNCO9IB/buP8RCnKF4u4zzz7HT356LWtfWc/Y6GjWL88pjgScRAR8L0z8bLDQKmXwn601Y6OjbHztdf75Bz9k5apVfOuvv8Gpp55SNOmrlEi3kNKompDCn//jjw9y5113sWnTG3T39JBOpybUdenxCpmK89zTMYUQOR9SrTXjqRQ7d7XQ3dPNqudf4txzz+Ir13yJD530waKoNyFlkBBpGsfNyYSZUn/phx58mLvuvZeNm16jt7efsbHR3Pm+l10S7+U83+kzhQJwoc1GKFINDQ3S19dLR3sHr7/+JsvvuouzzzqTyy77Cz582qm53TGlyaQqMdJ6XxEGbhTew+6973fccuuv2Pjaa3ium7vmQqayLgrb0LZtHMvCU4rWtjaW330PG157jau++FdcfdWV2XYOo+HKO76VLoYUXi9tbe3c+stf8fAjj9LS0kIm4xGJOERikaJxq9L6VOliW6G1imUFwU5jY2O8+eZbtLa188JLL/HVa67hLz/3mZxQWRjFXO77jUajKfYJ36fHLxBJldKMjIzieW7B64V2gzq3w0ArxR3L7+Ta625kV8tOFBT5U5eyt/VVuMho2zb1dbXEqqJhQaHMwmWlMGF3QtAgpNNp/vlffsQDDz1EOu3mAmTKhdY68B53Xb54xeX8zXe+xcHz509e5gptt2kXeAsFKM+D7R0eKTcbCMXMEjyK7AMIImYyGZjfKPjoiTHqq0NPqcJVZzmjzrFSCOt6sgurUi+2clC4aDDp1p6sFcDcBkHUEcQiks+fXcXpR8U4ZlGEeY1BH/U9zYMvJnlmQ4qIc+DW575GKYllaXb3+XT0+xzS7GSjUsKEeaauZyK58VwEiWh27Gzh17/5Lc8//yKRSKSs5QhJpVJ84AOH8w/f+x4nffBEYGLkbqUxVQ9wxccVRf+Uk9KvnMoH1gPN1y2cvGcyaR5/7EluuOnnrF6zBq2LJ2rhA/nUPicUPgsGWdUjkQhaa3p6enn44Ufp6+3jiisu57OfvgwraxdSatdQaRRuZX3xpdX84f77eW7lKl5//Q1c1835pxZ2vcIJUKU8m4VlcrK2Ja7rsnXrFvr6+ti+dQeXXPIJLr30EhYcPL9oZ4HMPkJN16SuyEJC5G23nnr6Tzzy6GOsev4FNm/ezPh4ing8QTwerzixarLn0lKRKhaN4fkePT09tLW1sXt3K2vXvcIHTzyBiy/+JOecfVZRXQTtEwQ37I+orPWalJK2tsDj+3d/uJ+33tqMbdu58a1c11rhsTVAtu2klGTSaVa//DJDAwMMj4xw5RVXUF9XmxXRAgubd3Y6f//kogKzwm4ojvu+x9N/epY7li5l5arn6ekJvFVD+6zwM5U2Zk3Gnq6laDQaeJCPjfHSiy8zPDzCW1ve4orL/4rDlxyeq49Kv9+8F4qeewSMjY7iZiN4w0UGEGidF/wzbobld97L9T/7GVu3biMaixKxLAT7fsxUSuHYNs3NTVhWgX98BfezsiIEQ8PD3PTzW/iPBx5idHSMSCRStt2P4Xjh+wrP8/nMpz/Fd77xdQ5ZfAhQnDOrEu6nb8f0C7zBsisArtJs6XAZz+ic/+5MpDgqRHP4QQ5nHhNFkfeIrfSOYdg/0QQPWMcc4vC1jyfo7FdcdGoVc2rzCS2EgFd2ZPjThhS9Qz418QPH62zKkQobQXuvT9dgmFgSEGahZyYyIcJNwPDwMHfcsYwHH36kKFKpnNG7o2NjLD5kEX/9ja/xny66ECiOGoXKnrgYDHtLOLF78MFH+Mm1N7Bh4wbisThYIBBlEnaLyS/6Z5OWCkFtbS0Z1+WZFSvp7OpiaGiIKy7/IvFE1QTPysJjlJvJPPGEEPT09PDQw4/wuz/8kVXPr8TNeFlht6ogeipvKl+J40zpTjDHcWhoaMB1Mzyz4lk2b93Cm1s285ef+Qxnn3Vm0Lc0KKGQ0xSFONnv23fs4MEHH+aBBx9mzbq1uBmX6uoE0ejkiWgquS1CQvHPsiwSiQSJRIKxZJLnVj3Py6vXsvaVV7n4k/+Jiy78OEcdecSkYlUlnuf7ITyfrs4ubvnlr/nt7Uvp7+sjEY/nhKFpW3Qo/FkEycB832fL1m1cd/1NDA4O8c2vf43Zc2ajZXYOrKfWHqA0wi78eWBgkAcefIDf3LaM1WvXEnFsqqsTEz4/U/tP6bgWi8WIOFHefONNOtrbadmxi698+RrOPvvMCWL2/njdAIyMjuL7XslfFZAVd9Np7li+nJtuuoUtW7aSSCT2uMtnX6CUIhJ1aGqag2XlbcP21/p/OyaLhE0mkyxbdie/+tVvGM0mwi2nuGtZFul0GqUUF378Ar777W9xbNZuJlwg0Lpydlm9HdMv8BasHKXSmrd2u6RSGmcmK7yEWYEhYkvm1EvikTA8XxVFWRoM5UJKIGvhELEFHzspnn1Fo5RGC40lBKNJzZOvjLOl3aO6qsDrqcIHs5mAUOQ8kNv78onWwAjoM43SCJHAjN/nvnv/wH2/+x0D/QNUVcXKKu5qrUml0jTNmc2XrrqSL119Ve49QfRdKDaZfmbYPyjcdnvf737PT667gQ2vbqC6uhoEaCUQcnr7fOFX+76PY9vYlsXmLdv4yXU3MDw8wte++hXq6mqB6Y3kncyzMqzfda+s56677+GPDzxIe3sHsVgVsZqqXKK6fB3PjPGlsE/4fpAIrq6ujv7+fpYtu5ONG1/j61/5Mpde/Emqa6qLFgrKIfKW9oPcDgzP4+lnnuWee+/jgYceITWeJBaroio2WVvMLESBZBieR7CluQ6lFC+88CKvb3qNtWvXcuklF3P+R85j1uzZufdbllV03czUeggJr72Ozg5u+vmtLL/zHoaHhoLxjXLtSHj3hG0Wi8Xo6+vl1l/8GoHgb7/7bWpqa1B6ovi6L9nT9undrW389vY7uOuue9i1ezfViXiup+1vz97huYRtkUgkSKcz/P7+P9Le1sE//Ze/5/yPfmS/FnklEoVmZGwE181bNBTmYlBKcfc993HttTeyc1cLiUR1MB/L7pDYl3VRaK9iWxHmNs9Finyy1f2l3t8tk91HM5kMd99zD7/45a/pHxjAKbO4K6UknU4DcO65Z/NP//j3fOhDHwSK2w9mRntNv8BL+PCr6Rj06Rz08ZQmKgQqm3l+JiIIhJsxF4bG8iaxGtDKROsZyo9SMrvHMNzKlo/wECJr8g48tm6cZzamSLma6DsutOQjdQzvRFBXQkA6o2nt9Rgb90nEZCBE7K8Gmfs5hQLI0396mtuWLWXHrhaq43HC+JZyibvBNukqPv/Zz3D5Fz5PxHFyUbv72wO8wQD5CdufnnmWa6+7gQ0bNlFdXZ2fyFWYN2fhdRiJOHR3d3PDjTcTiUS4+sorqKuvm/aIxFJxN51KseqFF7nu+htZuep5QFFVVZUdd3xQlSMw7QsikQhKKdavX88///BH9Pb28IXPf56mpjkT2mSq2mfC7hCCvj46MsqDDz/Erb/4Na+sfxXLsonFqrLbSmeusDsZuToGpK8QUlBdnSDjeTzw4COsXrOWN958i8u/8HkOP3xJzoM0/Gy5/UWnAiEEQ0OD3Pabpdx19z0MDAwQjQbenZV4bsXjW4Tx8SS33b6UOXNmc9VVX8wtQkzl+FZ63F27W7nhZzdy3+/+wODgIIlEYsL790eCegg8nAPrhggvr1vND3707yilOP+jHykax/YrJEgNo8NjeJ6f+3Nh3oOVK1dx489vobWtlXhVVU7cVWJqlKdQIHQiDnPnNmNZ1jt/aD9kst1BWisefOhhfvGr22jZtRvHcZBlFnc9L4j0/vBpp/H33/vPnPyhk4CZKe5CxSgzEs/XbG9z8TywRCg9VUjx9pLQowsBGVfRNaAYTvogQv+yfGZeg6F8KGRO3C0m8CWCHZ0e9z43xpY2j5gjJ3jpeb7C8xRe9sFZqSAk0PTnd4GSoa8/jiPoHPTZ1uEV7XEz9Vj5lE4aw4fFbdu3ce11P+OVdetJxBLkM19PbVlCcTf4WXDB+efzpS9dxUHzs5nHK9x312B4TxR05zfefIt//df/y6bXXicRryqKTILKfSCXQuLYDiMjw/zo3/6dO+++B8/zJti6lOPaLRzXCideqVSahx99nO///T/y1NNPI6XAtp2iaF21H3ifFtZzmPzLsR3aWtv4wQ//jVtu/SU93d1F752q9skdr6A8QgjGUyl+9Zvb+G//43/zyvpXcWwH27Ym+G1Xan9/zyhFmHk78OoNxKqOjk5+cu11/MsP/5VXXlmfe710Mj7z7n3Fq/3Llt/N0uXL6erqziUbqkRxdzKEEPQP9PKT667ngQcfzv2tsI32FZMtinR2dfGTn/yUZcvvYmhoKCeOh+/f/wkDS7IJDS2H1atX8//9n39mxaqVQP4ZtnBc218YGRnF9SZG8G7fsZPrbriRrdu3Y9t2/lqaInE3RClFxHFoampCygMrTwJMLu4CPPnEU9x04y1s2vQ6jmOXJYdE6T3C8zxOOOE4/ua73+Kcs88CKLK1m2lM691BKZW7jWU82NLp4av8draZ3PVlYMeIYwtGxhVv7nKL7tlyP3ggNswspAwExnA7V+m2LtfT3Lsyyc4un5gjsgOeIuMpMq5CIHBsSSImiFqBUb0QCiUlQZZfw9uSrWoNRC3oGvDZ3ulRONKZeqxs9rT9r6urm//5v/6Z9Rs2Eo1GELkHt6ndrRGKu1prMq7LKaecyjf/+qsceeSRReUtfL/BsF+Q7cq9vX389Nrr2bhpQ86vLfeWCu3vOdEpm8HbcRzS6Qw33/oL7rn3PiArglAeu4bg2HLCxGt0bIzbly7j//z//8KOnS0kEgksy8qKMxCq7JVaz3tLYTRbKIjEYjFcz+Omm2/m/157PTt2tuTeO5UivJTBLCEs0/DwMD/4wb9y/Q03MjQ0TCQSwbIL22L/aYdSCs+rtG0ijsNDDz/CP/zTf+X++x9A+cXCwXTanbxXlMqPYavXrOXOu+6mta0t5w9a6eJu4eK3lBYRJ0p7Wzv33HMfL728Ovda6ULce6V0sSW8NoeGhvnxj3/Kfzz4MGk3PWPuD/uSwnMMExlGo1He2ryVH/3w39i6bVvuffl+NbOulz0iYHR0pCjJGkD/wCC/+c1tQRJWpcsWSZuL4HVsmpvnIOWBFcG7J3F31fMvcOPNv+DldWuJx6sm3Funsizhz+l0huOOPYa/+c63uejCjwFMuvtxJo0Z01pSicyJnmlX88ZuD9cr9iubiWRTS6A0RGwYGFW8sj2DX/AeNUOjkw37L44tuOaCak4/MoqUWRsiCRaC+mqLkz4Q5XNnJfhvX6jn02dVUZ+QKC2yixWmP78bwkdLx4beIZ/tXcXm/0qZeqxkSgUAgL6+Xm6+9Rc8t/I50qlxbNvOvWeqKDy2UgqlNYcsWsjffPtbnHnGGQATtqrOpAcTg+Ht0BoiEQfPdbn3vt/x7IoVjI+niiYGlU5RxCgCaUl2727lt79dylNP/zn4e5nOJ7+zLD/xGhwc4o47lnPDDTeyY2dLUZRTMJ7A/nrfL4xkC0WRdDrDb29fys233EpbezswdZGIUHyPGR4Z4fqf3cTyu++hf2CgaKKZb4sDg4kifOC5u/7VDfzLj37EHUuX4bpurm1m4v1PiODe3dHRzr//+Cds3rIVx3GAyrRl2BNBGwU/RyIRnn12Bffe9zuS4+NT8G3FkbtDw8PccsutPPjwwwwODOBYzoy5N0wVhQEKvu+xYcMmrrv+Z7S1tgVvyNXPzOlje0YAgrGxsVyStVDIXb1mDXff9ztGRkZz0aLl6hdKKRw7wtymuUgpZmx06HulVNzduHETP732elasXEnEcQK/yDJY6wTBMcH3ZDIZjjrqCL7+ta/yF5demk2kNvOt7abVg7dwW9d4Jkiw5iqNPQMrcgLhTc2G/lHF2i0uV1+gsSICIYJka/vrw7FhZlE4gDXVW1x+XhzHAd+HExY7LJ5rM6dOUhu3iEckjbWS2bWSjYeVWBoAACAASURBVDsz/D/23jtMjvJM9/5V6OowOWiE8iiDJJQQkgBhwGsjMNFgGzDJxmScvd5d77fpfOc753y7e3m9TmCiAwgwNjkHCQECBEhCKI80mpyTJnVPhwrnj+qqru6ZESNpumemVfd1jYW7q6veqnrj/d7P/XT2aUjZ0F4zDEkS6ejVqG7RsHa53H5h/MMZwisIAgMDYV546VWeeOLP9AVDSYuIdE9OLKiqSlFREf/4s7/ny1++AEgkm3F63blwkS0QBNNWqOJgJQ8+9Hva2zuQM5iQY7SQpAxBBAk+3raNp/7yFPPmzKZ8djlA3KMuPW3ZubC1+rVgf5C/PPMMv/jlr2hrM8PCreRVE03FcrxI9dj1+XwEg0E2PP5nFEXhpz/5IQUFhcDovp/UMUY3DB75/R944vEn6OzqxOf1xhfHetxfM/vfxVBwth1P3Gu+svIwv/ztvYiSxE03Xm+/F5g4xKhhGHi9XoKhEE8++Rfee/8DVFW1Cd6JcA8WUv14g8Egb7z5FstXLOPGb37TJnlGo+0IghHPjSUQjUbZtHETD/3+j7S3t+ONt5mJUgfShdQ2E43FePqZ51h02mncdOM3yc3NswONJ/qzEkUBXTfo7+9HjVoJrQWqqqrZsOEJujo7kWU5o/XC8kn3eCTKJk9K+/XGA1IjKJzkbnV1NT//xS/Z/M67CJibQJqmIYhi2m0yTILXXD/NmDaN2267hW9edy2SlB3kLowDJkGMJ1hraNc4EtTjZsYwlE/oRIOB6bGmqga17TH210XBMGy/05N4I9HFOIIVnmn+a7ByvsIPr8jnR1fmce15Ac473c+imV6ml8oU55t1t7IxRmuXHvcQcivySKHr8R1MQDcMOntVWru1+MR0zLtjF0eBNTFxTlDe3fIe9/3ud7S0tOCRJEQpMxMCaxc8GAySl5/H3XfdwZVXXI7Ho0zYhAAuXHweLMImNyeXmupqHvn9H6iprTFVlhN0Ae8MWbQUyC+98hoP/+GPQMIzMB1I9RIXBAFD13n62ef45X//mubmZrxebxK5e7LBej+GYRAIBOjr62XDhid4+OE/2oTSaGEob/eXXnqFDY8/SUNTC16P4ujbTw6i/Wiw7t9ajHsVharDVfzmt/fx2IYngES9nijPylSMCxw8eIhHNzzBQCiExzNx1afOdxQI+KipqeWlF1+hpaVtVM4/1DPZ8elOfvHLX9PS0pJxEm+8wzneSJJEMBjkdw88yHtb3h907ESsb04YhkEwNEAkFrE/++DDrbzy6qtxe5t4vHWG6oWu64iSRG5evp3ob6I/45FgqHGtta2Vf//Pn/PKq6/FbSs8GUkS6iSco1GVSaWT+NGPf8BN138TWZbssX6ik7swDgheQRAJhuFgfQwBwy5QdoQqmx7Dsgx9YZ2PDsYIx/Sk70+Ctu1i3MP00BVFEQMDjyQyvVRmZpkHnyJhGDoGBmDQ2afxwGt9PLVlgI4+KxwqG9pqZiCKicmEIov0h+FQo/o5v3IxHrF79x7uu+8BDuyvQPZ4MjYhsCbn4XCY3Lw8rr7ySm668Xp88eQh1uTEhYtsg67rCKKIpsbY+tEnPPPcc4iiaIdeTtR67yRBfD4fXZ1dvPra62x+511gcBKc0YRTWQPwxsZNPPDQw1Qerp4wnp+ZhN/vp72jgw1PPMkzzz4HJJOIx/t+rN85w8yrq2u474EHOHy4Go9HzopFZzogilZiawFFUdh/4AC/ufc+3n1vi23XMBGIFF031butrR289vob1NXXOTyvJ+57t+xOrLXCvv372bRxI5Dctx3PeZ2/E0WR5qZmnnjiz3y687OTfnNqODhJXq/Xy6FDlTz3/MvUNzRmhUexc0zTdI2BgTBgEv/Pv/Aiff1BBMS4yjcz/YLVhgM+H2WlJUnfTdTn/HlItZKz0N3dw69/cx/Pv/AykUjEjsDIFLlrGAaqqlJWVsKt3/kW1117DYriHeTLO9Hfy5iU3lKxWegOqlQ0x8zENPESTfDnCoCVi1EWRUIh2F4ZJubgcsxQt/E/6XCR3TAnx6ZliqGbA79m/Rk6giAiIFDXrvGnt/p48LU+9tXHkATA0O3fuhgZDAN0A2QJekM6lY2q+WEcE2EhcrLCUsfW1tXzuwcfYuOmTXh9vowQTOYiyfJPMy0Yvnj+edx5x21MLiuzj3GSDBN9guLChQVr4enzetmzdz8vv/Iq7e0dJ0ysjSdYi4+cvDxqa+r43f0P0tHRCZBEUo3GvToXMNa/23d8yn333c/Oz3aRn5876LiTFU4CHkyS93BVFb+7/wEOVR4COGESzrK+sMji3r4+/vLXp/n4o21omhmi776L4ZB4dqJoZoXo7+/nyJEjE6pfEATTJ3TX7l08+9zzwMTfvIJE3Qbw+Xw0NTXx4iuvEgwFAU6IgB+0QfXWWzz/0ksoijKof8s0rFDvIf/GpEQJOJ9NIBDgzbfeYtPGTUDiWSaI+YkF5/uWRIFQKATA5s3v8PY775Kfl3dCGwvHC13X8QcCnHLKKfZnE2Xz6UTgrGvdPT08+PAjPPzIHwiHB2z7lIySu7EY+XkF3HjD9dxxx60E/P6ktdNE7mudGJO7sNWC8R6uu19nX52KOFYFShusRTZEVIPDzRpNXZYXjJXEIbvu2MXEhOUBaClMRdFsi1LcbHxPbYSHX+/j8c0hBiIGhX4R4p2yKOqk1zEnu2BtkHtk6BnQqGyJb27FkS2DS7ZBEMx309/fz4MPPcwzzzyLz+dLawi1hYT3pfnfsViMVWes5O477+DUUxcCDAorcuuRi2yEpdD76JNP8MU3V7JpUo5h4JEkItEI27bv4LXX30BVtaQF6Wj4vKYuZo4c6eb3f/gjW957H7/PZx+bNc91FOB8B4IgsP9ABb+593d0dR4BEl6ix0qMOH9jXWPHjk95bMMTCIJZ593IjKPBfNaGYRAKhZg1bTq3fvvbXPqVi/F6vRMikZGu6yiKQmtrG1u2fMDhw1VA9r1zSZIYGIiwb98BPv54m71pDse+ceXcEAHYvWcPL738Gkc6uxBFKSNzMydSyy/Ya6SUP0EgtWRjSfJJkkRTSwtbPnifhvqGpO8mfv0TiEQiVNfUsvOzzwj292e8Xlj9j6qqBAJ+yk6ZnPT9xH/Gg+GcW1hjVyg0wKOPbuA3v72XWCyGR8pMG3WSu9FIhNzcXK7/5jXcfdcdFOQXDLlxng3vZIwUvGI8mZCJjj6dw00xMtzm0g5dT6hKJAkGIgbbD0aJxHTHvWb3zo2LiQlDx95hburUePDVfl78aIBw1ECRRQzB8pB2k4IdLyRRJBQ2qG1TicTiidZwFbzjFwKaqvHHRx/j+edeJBgMxT28hLRPUpwTpUgkwqmnncq3v3UT69adbX8+ERaxLlwcL5xKLV3X0VQ1a5S7ThiY7VlRFLq6unjyz3+mqbkJSNz7aCl4nf3WI3/8Exs3bSamqYkEXxl+tidyvUyV1bqOx+Ohr6+Pvzz9LO998D6aoSepLY9lgWgRVRaam1t48eWXqamrSyKwMoV02YCkA1bov2EYxGIxioqKue6b1/Dde+5Cks084uOdHLfer6Io1NXXs/OzXWbk3HESn+MRVr9lGAaKz0t39xFefe11otEocOzvaKh+8O233+Htze+geL1YK5h0P7uhSCFd11FVlVgsRjgcHvwXiRKLxVBVzeZCnL/NFJxjasDr44MPP+Ltdzbbn2W6POmAKIqo0SjvvvMuu3btRrGTVGb23swEazp+v5/JZdmdYM25gZyYS2g8+eenePChh+np7kEw1WQZKY9N7sZi5Obmctlll/LTn/yI0hLTKmMs1NyZwBjdTZz0jKvWGtt1uvs1YOIY4Y8ETr9NSQRVg4pmlYg5no15iIYLF05YhG3qmNfeq1HdqqLp4JFFBMHqwMEld48PBnp8B1+gO6hT1RwDDAZt67sYF7DD/97cyKMbnqCqtsYOLcpUUlBd11E1jaLCQu66/XauveYbQILczbbwIhcunEj1WrQSrjnnWak40bDfsYDV11jK5N1797Fp02ai0dioEH1DJTzZtXs3Tzz5Z6qrq+2ohLHoS5wkh/WnquqgPydZlPrbTJTRWrh6PB4GgiEeeugRDh2stI85FhXvUPeyfccOnn32eSSHQjETdTLV2scwEuXThnkXR3s31j05381o3keqp6IoCNx4/bX84Pv3IHtkW1E9ETaCdN3cIDAMI55sSBi1MT0hxhg7ODc9FFmmt7+fDz74kEic4IVjqxvOZ2Kq6Q/w/gdb6e/vQ5KktNszDG4r5nuLxqJomhWpK5hKYlFEFCX7TxIT88ZYzGw3zraSqbpqlx0Dj+KhouIQWz/e5ih75knn0YYki7R1dvLe+x9QebgKxeOxv8v0+KbrGgF/DlMcFg3ZhqHIXYBnnn2B3/z2Pmrr6vEoiqliT+O45jyvOT5oiAhcftml/K//+T8oKi6yv3MS/tm0fpIzfUHrmRsGCCJ09qk0tGvIktXhZd9DBhAF00C/uVMjqiUmci6f42KskWhvpmWIIFiqXLOxTi6UmF0m09KlE9NMT95sa5+Zh4gBeAQIheFgk8aCaQaSZEY3ZGMfOBHhdEr7bNdu7nvgfvbvP4DP67W9/uLLiIyUR42p3Hnn7VxzzdcA7KyzLrnr4mSF6Uud+lmyTckxLSIEEIWxa0dO4kCWZUL9QZ5+5lm+9KUvMn3aNHtBcjztPXXxBdB9pJtf/fpeamtq8fv9ScelE05yDpL9KgVBQDfZRfNf4tZGBiAwaPGYROYMVSFGGbZwI07IffTxJ2za9Dbls2bg8/ntexoJIZ/qmd7b28sn27bT2dGJR1Eyoi5yXt/678S7MNB1M2RLF4jnCzAwEMw9acH8b1EADAHd0BBIqE+d70kAU7k1SmUWRXMeZRJkcN1113Dbbd8hPy/fvoeJQO4Cg8ZwiyQf6r2nhj9bGCqKJ7EJnXyesZovWPekqSr1DQ1UV9ewbOnpSX3BSJDaB7z2+ht8vO0TAoGAfZ503WPqe9J1HUMw0GMaJSXFLFu+jKVLl7JwwQJmzphOQUEeOYE8DEOjr7ePjq5ODh+uZtv27Wzd+gnNLc3EYiqS5PCRTiGQ0wlDNxAlEdkjc+jgIT7a+jFr1q62v5/I80pJlNm46W06OjoGzQkyeV+CIKCqKjk5fsriOTOyDcnWTwIWw/Xiy69w3+/up6qmJskbOxPt09p4QYCvXf1V/vYnP6KwsMD+zknwTuR6PhQyTvAmQ6D1iE5NWwyPoyTZ9pDB9NxVdYPmTpWYGh/E4pNVFy7GD+IhO+bMHc0w2Fsbo7FTQ9UNXMXu6MBq9qIEAxGNQ00xYpqfeISni3ECa+Dv6GjnV7/+LVu3fowoCMiyPCYLJEPXmF1eTiBOxFhElEvuujhZkKrkHSl0TUPVNDRNRzd0O7GltaCWJBlJMpMaCaIwiCTIVBtLuj9JIhaNsnPnLnbs+JTp06bZpKKzbMcCZ1huLBZj0zvv8O6W94nFYiiKMqgMmYKm6USiEUqKi1i4YCHz5s9h9sxZ5BcWkuPPwetT0HWVvr4g7e3t1NTUsnfffvYdOIAajdqZuIUMvSvnJkIkEuX5F15k7drVrFyx4phI+FTycc++vbz/4VZEhz9huu/Hqt9WuWOxGJqmk5eXx+lLFjF//jxmTJ/OpLIyiosKCQQCeBUFUZKIRqMEQyEGQgN0dXXR2NREU1Mj1dW1VByspKe3B0kQkRUZSZQQ48p7J5l3vMp0AzA0jWgkyle/eiW333YL5bNmmd+lkIUTbXwcKTHtJDlNxbJJwFufO7+DsZ8rODc/wuEIH2/9hHlzZpOTm3vMNlPWvQVDQbZ+vI2mxiYKCwvt7zPRB2iaRiymsmLFMi5efyFr165h5szpFBQUkJebj9erDPnbtWtDXHzRetra29m0cRNPP/s8hyrNKIBMb0xY5Lrf56O2rp53t3yQRPCOdZ05EUiSxN69+1BV1R7fYGz6A13X8Qf8nHJKWRKxmA1w1lXzvsx7e//9D3nggYfY/ulOMyIlAwS7c75mGAaqpnH5pZfw/e99lzlzZgMnR+RjxgleUdST/D1bu3Vq20wFb/bCVD3qhkFrj8pAxLHjisvxusgskkPWzE5N003LAKuTG4gYfFYV4YP9Ybbsi1LbpmLoBoIk4Prujh4kEQaiUNWsxSfmiZ1E9ymPLXRdx+8PEA6H+e9f/YbX33iTSCSC3++3lbOZhihJvPveFs4++yxmzpiObuhIoohhZO8kxYWLY0OiHZiehwMUFZWwePFiTjv1VKacUkZ+QQEBnw9N1wmFBujo6KCxqYEDFYeoOFDBQDhMTk7OmGZidxKIA+EBXn/jLc5YuYJp06Ydd1u3BK7WwrKtrZ3HNjxOV2cHsixnzJrBufgaGAij6zpr15zJBed9gaXLljFjxnSKi4soLCzE5/Ph9Xjs7KRRNUaoP0T3kR5a21uorqph87vv8drrb9LW1k4g4MvIos1ZLzwemR2f7mTr1q0sW7r0uEh4653s2b2PT3d8iizLGal7VvkEwUxGJIoipy9ZzPoLv8yyFcuYPnUapSXF5OcXkJMTsH2Gh0IkEqWvv5eenj66u7tpaWmhsvIwe/bt5+OPPqHycGVcxZaDx+OxbVaOt8yWLcQFF5zHXXfexrKlS4GJu3hPLWdC6ZYsSretHGIaoXCIcCSKKEBeXh5FRYXIsodIJExvby99ff0A+Hw+fD4fsiyP6bOx2r0syxjAzl2fcdnlX7EJ3uPZFPnko23U1dbahLZlkZBOdaBJ7MaYNm0qX73yCi65+CKWLFlCfn5e0vHWPVmw2lpOIEBOIMCMGdOZP28uZ6w6g4ce+T1vvPkWqqra7T+T/bGiKDQ2NrJ9x7bEl4Jgb4ZOJDjXueFwGOCYE7IOp5S3MBRBO1x/Zip4NQL+AJPLJmcVwZsaAWI9sz279/CfP/8FH3z4EQLYwhgn15Cu8lhl6evr54rLL+OHP7iHJYsXARN3fDhWjIFFg4iAbrOajZ0q9Z1qVhO8ui4ixetPJCbQ2aczZ4rpHTcB+00XWQRB0BEQ7MVTd5/KnjqVD/dH+ORQlJrWGD1BA79iqgUNXUdAdJnHUYIoioQjOvUdMXqCOgGfaCday9ZBZyLAMAxyAgF6erp5882NPPbYk4RCITsj91i9G4/HwwsvvMyqM1Zyy7dvji+QYaz99Vy4GEukWg9EImE0TWfO7Nmcf/65nLlqFXPmzGb69GkUFxWTk+NHFE2iKqaq9Hb30NHZSUNjIxUVB/lkxw4+eP9DqqpqyM/PNVW9GfaldZJ7giDw+htvct03vs60adOOe2Fo8QxWwpf3P/iQHTs+RVU1FMWbdN10wXpH0WgUVdU4fckiLr54PV+84AKWL1tKTk7OkL+zFsSK7EEpLKCwsIDy2TNZs3o1a89ay7p1Z/PnP/+FD7d+TCQSwev12tdL1z05ydFoNMpbGzez7pxzWbp0SdJ3I4EgCASDIQ4dPkx3bw8lRcUZK79JtA8wdeoULv3KxVx11ZUsW7aM3CHeRSphBYk64/UqeL2llJaU2t9pmkZ9fT0VFYfYtXcvO7fv4KPt26ipqcPv8+H3+49Jqewkd3VdZ+npS/nbH/+Qs89aY5fPIo6zZh4l6nGS13xXwWCIaDTG1KmnsPbsNZx26kKmT59GUXERuQGzv4rGooRCIbqPdFNdXcOBigo+27WL9vYuCgrybJ/asXpGoihi6AZV1dUMDISTPv+8MqWqWzdu2kxjY5Ntz5Du9hKLxTAMg5UrlnPLt27m8isupSC/wD4mlbyziGenDQ3ErSoFyM/P54sXnM/UqVPIz8vjz089jW4YCBmaazpJ90gkSl1dA61t7Uwum+Qw65tYGKoenUhdT012aWBg6IMjESxrAicvnjjGXFdYRGc2JEYejtw9eOgQP//vX/Lue++haQZ+vzcjwhirDNFYDDWqsv7CL/HjH36XM1aeAZw85C6MiUWDHvc4E1B1g6YOlWBYpyBgTraz8YGLYkKxLAjQ1KkSUz14ZNHOoOnCRTqRmmjCMHTTM00QAYMjfSp1bTpv7xrgg/1h9jdoRKI6fq9Aji+eWA0dUXfJ3dGA9R4k0fSQ6+nXqW6JMaXETMhg6NaEfmzLeTLCMAwkSWIgHOGN19/kwYcfoav7CEpccTQWY5RzId7a1sILL77CyhXLWb58mb2YGKuyuXAxXiAKAuFIhJycXM5aeyaXX3YJl15yKSUlxcP+xiPLlJSWUFJawsKFC/ibL15AbW0dL738Ci+9/Ao7Pt1JJBKx1bxj4d1nGAa1tbXs3r+Xc9adbfcFcGxzZgFsT9umpiaeevpp+vuDcfVu+uffuq4jCQLhaAxJFjnv7LO46cbr+drXrrLtZixiLpUYHSohi9VXl8+aSfmsmcyfN4df/vK3bNr8DtFoBFn2pPWdOc+pKApbP/qYHTs/ZenSJcdlr3C4qpK62jq8nsx47zrnhDmBAFdfZXoUFheZCWiGI6uGKlOq7YL1O0mSKC8vp7y8nPXrv8yBigO88eYm3n33ffbu3UNDYxOiKOC1fO2PMu9xzmN1XWfe3Dncc/cdnHfeFwCTTLZUetb9TXTYY79gEI1GMQyDqdOmsGLZMtasWc3aNatZsWwp/kBg2HP0dHezc9duNm3ezDub3+Ng5UFCwYEx69Ms6LpGTW0tA+EEwTsSgtbZP4QjET79bCddXZ0EAkNvDo1KWUluL/PmzeX73/suX73y8qQyOf9Sn2tqn+D0Hwc4deFCfviD79PT082rr72ZlCwuEzB0HVnxEAwG2bt3L6Ul55qK/QlKRA6niD8anO/M2qDTdZ1YLJaUSFKWZfPP4zF9yjXQNJVY/BgBAVk2358sy3gUBb/fT0Gh2bdmg+9rqhe19d9NjY088ODDvPDiy+i6jterZJTcVVUVQ9dZvfoM/u5vf8SaNcmbfyfLWimjBK81NzMMc3ejsUOjtVtHkWwBYVY/cOvOqttU+gYMivOOergLFyeM1A5YEEw/aBMG3f06lc1RNu6M8MH+KIeaogiAVxHwyhLOYV3UweV3Rwd22A8gSaDpAvsbNc6YDwnLLtekIdOwJl2K4mXv3r00Njay70CF6Tc4xmoXq3yFhYW8t+VdHnt8NsuWLU1SK7lwcbIh0SYNgqEQZWWTuPyyy7nnrtuZP38egB2yiyAMa4lle0MCs2bN5J677+TLX/4S//3LX/Haa2/Q1dODLIrHHOZ5orAWJD6fj4+3fsJ5565j0WmLHIuVz198J4UIx0PsD1RU8P6W99F1A1k2P0un8g3MBFvhaBTFI3P++efxd3/3E1atXDmojCMNfRUdfZ8gCKxZvYZ/+eci/IEcnn/++aTM9OmCHi8HgkBbWxuffrqTyy+7lOKiomMm4Ssrq6itrU3yiswEdF3n/PPP4+abrqe4qAhVVW3VeqqNwkhVZxaB5VSqiaLIqQtP5dSFp3LDddfy178+y0uvv8buXXvo6upEluW4BUQyEea0KzEMg2hUZeaMaXznlm/zja9bCUeNJHI3G+AkAiORCLk5AZYtW8ZXr7icq6+6kuKSEvtYTdMxjOSNEbOPECkoLOS8L5zLeV84l52X7+L+hx7kzdc30t7Z4SDWMzu3sa7Z2tpGb2/vkPc9EhyurqKtvQ0wcyPYff1xnOuo5cXslwbCYebMLue7d99lk7tO8iqVtB3yXCkKZCfxe+rCBfzohz+k4mAltbV1GX0vBuaGZygUZH/FAc5dd85RLVmyDamWDGaUiYpXUSgpKaYgv5Cc3AA5gRzy8/MI+P34A347gVo0GiUUGqC/v59wNEo4NEAwFCQYDHKkuwfF46GgINc+v/XvROS9LIvH1P62s7OL+x96hMc2PI6mafh8voyTu6qqsnz5Uv7upz/hnHPOARLkbjaND5+HzCp4RR1BtzKTCzR2qDR2akhi9tozgGOSAqAapgfxBN0RczH+YfZfwxO7mq4TCsOe2ihv7QzzycEIdW0aBuCV47vPmIpdQRcTpK4ounRjGiAKENUMKhqjRLUAXjPFnevNPYbweGQaG5toampB8XiSdvTHGpIkEQqF2PLeB7z86mtc+pWL4wsEAzPxfPbvTLtwAckEkKqqFJeU8J1bvs3tt36HSZPMMPGkBZRhzj6dC+yhyA3DMBCABfPn8f/+279QVlrGnx7fwJGuIzbRlEmVoGEYeDwetm3fTkVFZRLBO5JIj6S5ANDU1Mxbb21kYCCCLEtDEqqjBeez1TQNDIO/+eIF/Ozvf8rSZQnPVGdZRxSqDwi6juFQlBqGwamnLuD737ub9vY23v/gQ1tFmi44SxkIBPh052d88OFWLv3KxZ9LMKcuNusbGmhubkGWM7c003UzUdRF6y9k7py5APbzOlGlk9X2hlL2FpcUc/sd3+GyKy7h0cce57nnX+DQoUqi0WhSsr9U0iUcDVNWWsYN13+Tm264HjGeEFEQrARj42OcPlE4yd1oNEphYSGXXfoV7rj9Nk5fstg+LlHHBGDoeu5MbLZ8+VL++f/5R6ZOnsojf/gDPb29Y2rXoKoqbW3twLG9N4tU27/vAN3dvUSjUQYGBuzzOP+cONZ7dB4fjUbJzcnhwi99iZtvugFItgSx3tdIzp9qHeC0AFi8eBE333gD//nzXxAMBjO24WMYBpIoMjAQpvpwjR1hnO3zSucGkqXWBYGCwkImlZQwd+5czly9kuVLljFv/mymTpuO4vEc9ZzdR7ppaGqiurqGw4cPs/Ozz2hr62BWPAmkhYn4TJMtsczNdUEQ6O7p5Y+PbuDBhx4hGjWTtqadwNZ1W12vaRqqqrJ48SJ+9MMf8MULzgcS0SUTlUw/XmSW4NVNNxezCxNo6NRo6lKR5eymMsxOHzAgNyBx0RkBSvJlM5OzCxejBCexq+ukLEDNjYWoqrO9MsrrOwb4pCJCc5eGgYCBgSgkhPHL0wAAIABJREFUDzaGLiK4it20QxJBVQ0qG1QiUYM8P2A4ldYuMgXbOiOuBDKMoUOQxrJsoiji9/vZV3GAJ558irPXrqG4uBhzS8DdOHRx8sBaUGu6jsfj4c7bbuW2W29JInedJJvumOCntuVULz1rk620tJQf//h7BAeCPPWXp+nt7cXj2PTJFDweDwcPVXLw0CHg2BaGFoFg3eP+AxW88dZGW6VpHZNOGwPDMFBVlTNWruDmb92URO46F14jLYftDWmpg+N+5IIAy5aezp133EbFwUra2trsUNu0wRH5cWDfAbZt2+7YeBv+nmyVa/y99Pb00tvXj6J4MpqEx9B1ymfOTCTBcfiFnkidGGojxTq3dW9TTjmFH//ge6xZeyb33Xs/m999j1hURZLEQb9TVZX8nDyuvOIy7rn7dgI5gaz0VHSSu6qqEggEuOH6a7jzjtuZMX2GfVyqLUaqMtT5/53PfeqUKdx++y2oWpSHf/9HgsFQUkLJTN0f8fwf3d3daKqKFK9/I4Wm6Wi6ztRpUwkGQ/aczTAMNE1D07RBofBD3ePR6o2z/4pEIpxz9llc+42v2Z9Zx1i2Icf6DFOjLMG0S1m//sv86bENHD5clZG+wDq/LMuEIxHqGxoc7yJ7EoI54SR2wYr0MfD7A8ycMY1LL72Eyy+7lPnz5uHzeQf58B4NhUWFFBYVsnjxIgxDQ43pdHR2IGeNIjq5bkRjMR59bAO//NVvGBgYsJNojmQD+rhLYL2/+H9Ho1EWzJ/HPXffySUXrcfj8QwaH04mZHgk1M3lZ7yB1LWrNHZoSIKAMSFtvEeAeIVSdR2fIvKl5T6mTTIbuDk2TPzJiIuxhZPMBeKJ0EyCUHSo4zftGuBfN/TwL49188LWEI2dGhrmzr8siYMmGVkwT54QEAWRmGZQ26ZxJGiFspK9feI4hnMX3znxGw8LR2d5rDDWbdt28NRTz5hklGMhc7JNZFycfLDquKaZc8hLL/kK1193DZMmldph4akE1dEW8c72lWp7kp9fwL/80884//zzUIcIAU4nnASNrhvU1NbQ0d5hR9ocC6z7O1R5kN279yI51Lvp7N+sZ+n1Knz1qiu46MIvAwmP1+NVRDvfmXkeww7RXr36TK666nI8Hg+qqo7yHQ2GqbKW6ejqpKLiEJG4r+jRCAG77sSJomAwSCgUGhMyZah6PBpjSaqK0mqXFiFmGAayx8N5687lV7/8Bd+9+04Uj0w0FjO/J6EkjkajfO3qq/jHn/0Dubl59vmyidy1YJGUMVXlm9ddy2233maTu85nl0pcpvZlw/VpkydP5u4772ThggXmOR12IulGomwCGDAwMEBUO/Y26vUqfPXyy3jh2b+w6c1X+fWv/otbvnUzK5Yvw+fz0tvbR19/P+FwmGg0iqZpGPE6ZcSjOZzlSUXSs9B1fF4va9esZtWZq4DkujyUWngkSJ1jWqTxlClTOO8L5xLIyRlkO5FOiKJIJBKlqaUFTXMKBrKL4E2NDFBVlYGBASaVlfGD79/D0399ir//6U9YtvR0AgG/vUlovXNN0+x26PyzPreOEwBRkFAUD1OnTGHSpElje+OjAEtE5iS8//TY4/z23vs5cqQLRVEc0R/pKUPqxsjAwACzy8u5/fZbuf66a/HE1cMnK7kLY5JkzawUvUGN9m4t/v/BIPsGaADi6l1VhUn5AlefEyDfb2mYwfXZdHHCiJvjCqIej1sk7jVoEIkZbKsM8/ZnET7cH6GtW2cgaiZYkyUR5zrC2mnLujY4jmH1eYIAMd2gsjHK7MkSsiS6Cv8xRGobGI9twudVaGlp5ulnn+WLF3yBBQsXnLQTGRcnH6zFsGEYzJw9m29/62ZmlSfCH52ExrGShk6y0VJP5eXlc+u3vkVLSwtbtrxPTk7OsAmnRhPORajXq1BdVcOBgwdZN6kUK1X30e4x1euxtq6Ozz7bjTnrBj0DCUessNfLLr2Cr1y43r4f6/5O9PrOhZ4V+VJaUsKVl1/GCy+8RGNjU5IH32jfq/MZyx4PLc3NfPbZLlavWX1M5wkGQ0TD4Yz346Iks2fvXs46ay25uTlpWxQPtWHq3MAomzSJe+66k4L8Ah54+BEa6uqRPZ64BYvGddddy9133UFxcWGcE8/OiBUr3FgURdacuYqbbvwm5bNmAoOf3Ujqc2qfZiWjm3zKZK677lqam1toaGzE7/dnnCwXBINwOIyuquAd2W+cZVQUBUVRyF+Yz+zycs7/wrn09fXT3XOEhoYm9h/Yz/79Fezdd4Cq6ip6+/rweBQkyfRTlyVHEiCGiOSI9xuRWIzl8cR2zuNGq52knsfv83PGyhU89/yLhIJBW12f7o04sxwafb29qLEoELC/yyYVr/UYLXJXkkS+euUVfOeWb7Fy+XIKCgvsY4d6v85n4Xx3iei/ob2Yj3czczwh1VLkqb88zYMPPEhraxNe7wgb8YnC0Qeqqkr5rFnccfut3HzjjQCDyN2J+qxPBGNC8ALUtKm09+h45EQonJBlL8BAR4gT136vyMp5CnOnykB8kgmuTNLFCcHe9UW3sn0gYIYqHmiMsWlnmHd2h6lqUekP63gkUOQEsevs+NyqmHnYzx4QBYN99THOXOilNN99GS6Gh91uBYH9B/bzpw2P82//+k/IkjwomcDJOLFxkd2w6n8sFsPn8/L1q65k1RkrAGzy4kQm9c6QW0gsfM/9wjlcuO1LfPbZbrS44iyTi15FUaitraeqqop155ydVN6jwUlU7Nmzlz279xIIBDI29zYMg7z8PNavv5A5c+ckLXpHe/ElioJdB+bNm8u5687h6WefR9M0ZFlOS3+YIOFNlV9rexvbd36WRPCO5D41XQMjodbLxMLU3GA2ePqZ5zhz1SrWrTt7yI2R0SxLKtHrVKMWFRVx63e+hazI/PpX99LY1Iyu61y0/kvcdfttLFgw3yoRhjE6GwTjDYIgEA5HmVw2ibvvupMlS5YAyX0bHLvaHZLtWgRB4LJLv8JTT/2V6ro6Ag4v2cxBIBwOo8ZGruB11htI9M+KV6HUW0ppaSlQzorlK1i37hzaWttobW+ntbmF2vp6Kisrqaqq5nB1Dc1NTWiahsfjsf+cak3reuFolGXLlrJq1cohyzKaMAwDRfGwePFifF4FVdXx+UZuD3Ai1zX/FYjFYvQF+ykoLExSFmcHdAzDtC7UNI1AToCrrriCO++4nUWLTjWP0HXb8gc+n5gdLlIota46//9E7Lecm94Ar772Gvc/8BAVByvxeBR7gzWd9+ZUu8fUGGVlZdx80w1cf/21eL1K0nuaiM94tJAxgjd1B6S6VaOtW0fO4ucuICIYEFVhepHI1ecEyPUlOui4ZapLrLk4Zjg7LU03k6iJ8Y61vk1l064w7+8Ls6c2Smefjs8jkKOIGKnErlv5xgdEEBA40KDSE9QpzTe1KS5J52IoWPXBqyj09wd59vkXuOwrl7Bm7ZlIkjSsesCFi2yANXEXBIG5c+dy1ZWX4/f7B21ujMY1nEphQRC44ILzePe9Lby9eTM+nw/InIWLJEk0NTVTV1uX9PlIrm8tyA4eOsSBQwczmrhHVVXWnHkmSxefDgxOajPa17PutSC/gMsuu5RXXn2dI0eO4PF40pbR2+pqFUWhvb2dPXv2JH0/HCng7KMlSQJBOupvRhuWc/uuPXu47/4H8Hq9nHnmGfb3qqraaq3RXjg7378z/NnvD/Dtm24iFonxf/79P1i8aBH33H0XK1cuByx1VvYu4FVVJSfHz9q1q1l/4ZcQ488+HRu3k8vKWLz4NHbt3h1XMmbWI1QQBMIDEWLqyG0IUu/dWXdS21NRYSFFhYUsXGhaUaBDbUMdjY1NNDQ0UN/QSF1dPXX1ddTV1VNbW0dHRweSJKEoCl6vD0kSKcjL47SFCygsKByV+x7uviziT5IkZs6YhqJ4MYzMWDQk7HoAA4LBgYxcN/OwyF0dSRK5/rpr+d49dzN9+jRHQkIGkfwnYsExEaICRwJrkwnggw+38qtf38unO3fayVoNQ4/bQ2aA3I3FKMwr4IZvXsd3bvk2BfkFLrnrQMYI3sSE3Pz/Vc0qrd2mgjfboDuSXam6js8jsmy2woo5XrsBWDiJ656LY4Rdr+KWHkYKsdvWrbKrOsamXWG27B6gtVfH7xHJ8UpxG5TBpvJu9RsfsN7DgTqVfmtOZYAouW/IxdBwtuW21jbuvf8Bps+YxrRpUweFcZ7MkxwX2QVr8RuNRsnPy+PCC7/MjBmmN+Voh+SlEpCCILByxTLOXXc277zzrk0mZqJ9GZiERXCgh6aWVjsp0UghCAK6YVBTU0v3kR5KSorjc9H0zsF1XSemqlx00XrmzZ8LDB2qP1pwbm7JsswZK1dSXFTEkSNHkq492jDdMsxr9vT0UFdbh6rGkGUz2/pw9+okpHw+Hx6HAikTEEQR0TDwyDKvvf4mfT19XHvd11m1ahUL5s9DTqljmmbYyauGK+fxWKJYbck6r8/n4+abbyQUDrNq5QrOWrsWSBD4zhD5bIAzxDscDjNn9myuveZr5OTkJB03WqS6cyNk+fJlvP32O1TX1NgbxJmMTIhpseOyJBvqWaRuyjn7A6uvnjVzJrNmzrR/032km8PV1VRVVVFVXUNdXR3NLW20trbQ1tZGXV0D8+bNYaY1zuimj2+6ogEsz12v14/f7xsTBa1umJ7X2QZn9I/skfna1VclkbuJOYQBZFrNPr7hnOt8unMn//Gf/8X2HTsg/szSrf53tm1VVfH5fNx44ze5/dbvUFxcNOHV0aONjCp4rR0RgNoOlSP9KoW5UtysOVMlST/MOiUiAOEYzJ8mcsmZfrxxwURi53kMC+liQiHRcYnoWG3J3IWMRA3q2lWe/yjEG9sHqG/XkCVsYjd+Blw6d7xCN0NkDZ3GrhgdvQlvclfB62I4WHVClmU0TeP5F17g0ksu4utfuzppkZZNvmkuXFj1OarGKCkp5orLLsXnD9jfp4McsxYV1jh8+ulLmTlzJvUNDShK+vtmXbfGCAOPLNHZ2U5tfT1zZs9OIruGg/XMKg8eoqGhEVmWHMqk9AkNrGsU5uezcvlyFMWTFCI+2nCS+5bSaFJpMYsXnUZLa0vGFIoG0NXTQ0NDE+Xlsz73fq33k5+XT25OTkbJHOt5WaH/b27ayPadO7ho/YVcfNF6lixZQklxMbl5ufh9PiRJAJKfodU2rPtIbYOft+niVOQ7f1uQn88//PQnSdcZLYX+eINz08MwDGbOnMm569YB6Y/EWTB/PkUFhRyMafj96Wmbw8NS347uWYfyPrU+T6g0zflRYVEhZxSt4IyVK+zjq2tq2btnD3v27mPb9u3MmT2b8jnl5jnix4w2iTTofIJBXn4+YnyTJZNzOcMANRbL2PXSjVQPakEQWLFsKT/98Y+YPn0aMHiDOBv7mROBVf8qKg5y77338/bmzYiiiMfjySi5G43FyAnkcNlll/CD73+P0tKSuHI4033X+EZGPXgFwXw57T0anT06huHsrLKEgNIxk14houkGigeWlCucu8Q0nrbUu+7ugouRIFWJ5yR2dd2gqjXGxk/DvLkzTGWjig4EvGKKKMdMwoboEoXjE+ZmEIKIgEFVs8bZiwz8ihDfRXbhYngIgoAkSaiqyh8ffYzZs2ax6sxVg2wa3LbvIhtgETxexcvcuXNYttQM+3dO7EfX03XwQm/u3NmsXXsm1U9W4/HIaV942+QEpsKvq6uH5sYm5syefdTfpZa7qqaGtvY2hypTSGsUmaZpyJLE6tWrKSkpApItFNKlgHOSjQYCq1efybbtn9Lc2oI/AwpFSZQYCA1QXVtN+ayZI154Tiotpqi4hJ6e7oyFylvvwBpH8vLyiEZjPP3Mszz99HNMmXIKa9eu4cxVZ7Bs6TJmzJxObk4ARVHwKAreeMb0ocprkWlO/8nUaw9l15FK+DoVjNm6gLfqpKqqTJpUyurVqygoKLC/G02kqnjLy2eRV5iPpsXSrOdPP4YKiR9q8wCSyV6IE7dxomp2+Sxml8/i0ksvsY8d7lrHiqMRiHpcHQwgChI5gRzksQg3N0DLkDVEJuAk+FVVZfr0Gdxz913MciQvtP51w/tTYbn1Q11dLfff/wDPPv8CsiwjSVLahSSptgx+v5+vXLye//k//pXS0hKzhClJN913lyGC19mHCQJUNMToC2l4JMAwSU9DELOB3gUxnpvYgEjMYPEshS8u8SGJQrzqGYDoWjO4+Fw4BxpBFO2Jl2FAS5fO1ooIL300wM6aCLoeX/wJliu8HlfmiJjM7tjdh4ujw6mgkkWobo3RfkRl5mQP1oCVTpWVi4kLq4+wFthbt37MGxs3cdriReQEAmbYYxZ7Fbo4uWAREtFolMllZaxdszbpu3TV71TScNaM6SxZvBhVHXlioNGCJEl095g2DUDCRHUIpJIItbV1tLW14/F40l9Q4v2Tx8M5Z6+lqKjYLhPEi50mhZRg+iWY1xNEFi9eTG5uLmpDDDEQsEOg0wMDSRIJhwdoaGxC04246vXzUTb5FEpLi+ns7Mi4F2piLDEfncdjWkW0d3Tw6muv8+ZbGxFFgZKSEubNncOCefOZt2Ae8+bOZe7c2RTmFyDKMpIoIkkionj0hb+TXEsldq25q2XHcrL4KgqCmdxqUukkzjhjZdKzS49vtNmfnlJWRm4ggGYYaVOnjiWGI32TPKCJ9xvD1NkkWxDiOXRGgOFUoM5NptTrWaXUdR1NU4fr3tMKwfG/2QDnBorP5+e8L5zD+eefh+jIWZG6yeQijnj9bG1t5fd/eJSn/voMqqqixDf30t1XWOc2r+nlogsv5B/+/m+ZZJO7rohlKGRIwZvcwe2rV+kZAFkmbT42Yw7DQBLhjPlezl7sJc5km/YM2aJWdjHqSPXZ1XUdS4diQmDLngH++v4Au2qi9AR1IqqBIoEsiVgDcoLcdTHe4XxNHlmgpk2ltUeLE7zW+t3tM1wMhnPBK8sy0WiUZ599npUrVnDR+i8jCuJxedu5cDEeYXnARSIRpkw5hXXrzkr6PhOkhK7reBSFufPnIsuepHDfTECSJHp6umlpbTGvi4AxDAWQSi7U19fbCYTSCScxJ0giy5Yttb1E9Ux4shnmfFuMk4jz588jkOO3Cfn0KXgF24ItHI7S2twaj9obWZ0snzWT6dOns3fvPrxebxrKNzwSkWICophQWFuqqUgkgqZp9Pb20dDQxNatH6N4FRTFi9/vZ+qUKcybN5sF8xcwf95cFiycz6yZswZdx+mNmvoOEvVVt4VBJwu5ayEWi1FcXMSi004FSCLB0+YfLYrk5uXikTKb4G8skUr66rpubwod1U7FMIYld4dT5trRBE61cEobGKo/2n+wgob6RtRYDI/fP7IbczEsrM3hWTNn8I2vf42C/Hxg9L37swY6pkBEEAgPDPD4k3/mgYd+TygUyhi5a8Eah845+yx+9g8/Ze6cOfbnQnxjyn1/ycgIwSuKIpqjw9tfH6WnT0Ue4a72RIE1jROAmA6zJ3tYNddDjs8yfLeOyxK1sotRhdk5YfvsgpXJ06wttW1RXvokwlvbQ1S1qmi6qfj0eQbvSrud3MSEKEJNm0p7j/n+DQEEI/sn29mAoSYXmZhwOENsPR4PBw8d5JVXX2XZ0tOZMuUUuxyZKo8LF+mAk+iJRCKUlJSw0uGZaH2XLjgT9wCUFZdQPmsGLa1tGU1KJEkSfX19dHR0JH0+krbd0tpGb28fJSUlSYrk0YaT0PB7/Zy5ahWyLNnlzyQkSWDWzBkUFRam3ZfcOq2ZxCdCW0fHMamU582fx6yZMwiHwwQCgYwuoC1Yl3JGh8gOD1DDMJOsBUMh+vr70TRTZXj4cBU7duzAHwiQE8jBH/BRkJ/PzJkzmDd3LgsWzGfBvLnMm78An29o8no44jdbbRmGgq5DSUkxs8vLgfSp01KJyLy8PHw+70nrO3q0hG1Jz8RcpNnfp8JZf4dK8DYUwpEoBysOcqCigoOHDnHw4EGamprp7e2lrqHRbn/u/O34YBhm36VpGl6fwpKlp3PWWYmkjZAe7/6JDMMAQUyM1/c/+BC//PW99Pf34fV6Mz426bpOcXExa9esYcH8efEyxseLeJt020YyMmTRoNuEZihsUN0SIxiFPJ8wJqEH6YIYj6M2DJ2oarBwusypM8xH7ErIXYwMIqKom5sBgmCqcwyDNz8d4LkPB9hdHeNIUEMUQPGYtg3OTtatXxMbsiTS2avT3BVPtGbpd93Ba8Ig04o+SF6MC4LEK6++xtLTl3Drd25JykzuwsVEhdNDT/F6mTSpDK/iNdtbBgigVEI0P7+QBQsW0NzSmrG2biqNBIKhEEeOdCd993njQ19fP329vUlz7vSNK+a4JUoS4WiE555/gaKiIkIDISQxcwSvpczy+Xy2NUUmyEKT4I3R0909rLp6EAyD/Lw85s+fR15envXRmI37Q4Wza5qGlZDNWvgnEqtpRKJRgqEQLWqLrZbOzc2huKiYkpJiSoqKKSopoqysjGlTpzNz1nTKZ85g9uw5lJaWJJHvJ9t4ZY3ROTl+Jk+enPRdOupA6vP1+Xzx9oGt4D7ZcbR11XC+0NY4Yc3HUtHe3kFdXR119Q3xf+tpbW2jq6uLzs5OOjo66ezqIhgKIksyOTk5eDyyuwY4QQgCRCIRpk+fzjlnrUWJ2xSlOznYxIURT+Cs8oc/PsZDv/8Tba2t9tiU+Y1HkWAwSG1dLf39/eTm5trfuW1jaGQsyZqVAbiuXaUnaNiezbqWRS9GFE2ZuAG5PpHTyxWmT3J6nbkhAC4GIzWRGoLpGwc6te0a7+0O8/zWILuqVRQZFFl0RDi69SkbkOR/pxs0dKr0hHQKAkI8GWU2bYVlP5yT/0xdD8xFoterUF/fxMuvvsa569axcOGCpOPcMcjFRIamaRQXFTF9+lQgwe1mQilvkiLm4JuTF2DGzOm2iiRTbUoQREIDYXp6epM+H65dWyRDa0sLwVAIj5yY9qerzIahYxgiHlkmEg7z69/ciyiKqA6xRyZgRdXJHg8NDQ34fL6k5FLpgumlqtHb25uSTHow7IRXmDVr4fz5LFy4kEOHDsZ9bMe+rx6O6EokvzHrpSybGdWdCkZd1+no7KSptZVYJEYsFsUjS5SWljJ12lSmTpnCrFmzKC+fRfmsWcydXc78+fPJyc1Juo6maYPI32wbx1RVJT8vj0mlZUmfp2PMTlWmKh4PoiijqjEgsyr78YpUexALloodGF6Za0Bzayutra20tLTS3NxMU0sLLU3NNDQ20tTURGNjE81tbeiqisfjxev1IMsyiqIQCATsvsqdsx0/LMJdECTCkQjTpk3l3HXrBh3jPt9kWBt6zzz3PAcrDlFXW2vbLGUa1vwqFArx3pb3eea5Z7nphhvtiBJ3XTM00k7wOjcJo5pBRaOKqhrI8QRrQra9EAN0TWDBTA+Ly60dooSvlFsBXTiRlEjNYccQCuts3hPm9e1htldG6OnTCHilQeFzri9rdsDZL8gSNHbqNLarFMzy2AogdwAbv3C2Y8MwiEajtmVCJhejVjlyc/188sk2Hnr49/z//+d/IUmiq+J1kRXQNI1TTpnMtGlT459krn90LvQD/gBTT5mCbhiIGVDwJhaqArqqEQqFEl+OYA+wvauTgYGBjBCGzgWXpmnU1NaOaZi9RcLIcmaUcGZfG6M/GPxcD3SrPlmk85LTl3DuurPZs2cvPl9i4388jv0JVb2OICRbmFgQBAFFUcyw3twE8RtVVSoPV3HgQAWxmIooicycNp1Fi09jxfKlnHbaIhYsmMuC+Qvx+332+ZxEL4zfZ3MssN69pmnk5uVRNrk042WQJWnCP8cTwdGSoVlk7nCq3Gg0SntHJ11xBW57ezsNTU3U1tdRV1NHfX0DNbV19Pb2gCCgeEwiV5ZlJpWUJG2IWO3HUsBnMhIsG2GJLQRBQFNVJk8uY/Gi0wYd4yIBy0M/FlN56aVXkSQJRVGSnlMmn5lF5Pr9AZqaW9iw4S+sWrmKRYtOc8ndoyC9BK8OiLqdYy0WgwP1UaKaaWOTTZo03XbW1YnpsGiGh+ml5i5ophQmLiYGUgmfVAVvS7fOWzvCPPlOP4dbVPxeEY9HMFW7cRsQty5lL2RZoKlTo6lLY9EsBaundN/5+ERCxWQQiURYvux0SkpKOVBRQWNjE/54cox0T0Kc55dlhc7OLt7c+DaXvr+F877wBXe320VWQNM08vLyKCkqTvo80/XZH/Ax+ZQyM8VZBiazzqgAURSIxWL09feRl5uHSMK3PxUWQdDT3UskEkEUhYyQrVY/4wznH2tkqt+zNtPUWOxz89CnqgPLJk3irLVrefqZZ+nq6kaKE2/juc92RpAMhaESq0miiKQoeBUFMN9N55EuNm1+hzfe2khBfh5rVq/mb/7mAs5ctYp5c+dSUlJs1yVd1wd5pI7X5zMSWHUm4PdTWFCQ9F1G6qwkIYiZ6cvGA4ZT5wJH9ekOBkMEg0H6+/vp6e2lo6OdqupqDh+uoupwDYcqK6lvaCQcDiFKMnK8/5MkicLCwiETC1rtwhkJ4jxuItfr8QJN0/D5fEwuM9XxJ5Ov97HCahPWJoSFsRyD7PxCgsD+/fv4w58e5d/+9Z8J+P1J4hW3rSSQVoJXF0FwJIyKqAYH6mNEYgZy/B1ky96URe7quoBPEVgyy8PkQjnJGy7Ozbk4SWHtdwBgqXaxVOwGkZjBxxURnv0wxJZ9EYIDBgGfGFcHCYlzjEnpXWQCBiAJAs2dKk1diRAwN0xrfCKV3J1UWsqdd9zBl754Af/x8//i17/9HT6fqT7KVLI1Q9cRRJGcnBzq6up54KFHWLrkdIqKi1wVr4sJD03TyMvNpaioaEzL4VW8FBQUYugGiAkFViYUV5bHa7A/RF5u3ogUvP19/YQjkc8l41xvXYVAAAAgAElEQVSMDnTdIBJTR0gkiAhCguhZuWI5F66/kMc3PJEV475V146WmMci1bwej2ntEYmy6e3NvP7GW8yYOYNvXH0V11zzdU5dOB9Z9tjjrpnjRQRx4qt5TVJFwutVxuDiZJfqahik1hGnt3pqn6hpGrFoDE1T6Q+FaKirZ/fefezfv4/d+/ZzYP8BWlrb0DUNWZYRRRlZNlW+OTkJj9Dhzm99drTvXZw4LHV86aRJTJ1iWTtlLjGqixODs80qikLXkSM899yLXHzRhVxw/vmDxCvgEr2QdgVv/EHH21BvyKC6VSOmGfiV7Hn4FnGr66b/7pq5Hk6dGbdnsEdM0SV3T2LYSoP4ZocQJ2GsGVVnn85T74T485YgXb0asijg9SR77eq6q9zNbugImIT+kX6N5k4VMExf3pNg4j3R4CR3VVVF8Sh89+47ufii9RQVFXLhl/+GN9/cRENjgx3al5HwYIdfYiwWYdu27bzw8stcf+01yPEkQ+NdEebCxXDQdYOcnBwKi/LHrAxWGyosyLc+sBcZGYEgoKoq/cHgiH/SG+wlFo1ldFE73vqXTJbHMAwMTR+hiEWPTwUNDAHKy2fxjauvZtPGTbS3d8TJo+zos4fz8bXrpSDYDrBWaHBHezsPPPQQzzz3HN/42tXcdNMNzC4vT04gqk98j3kdkGUZr8f3uceOOibmIxsRhoqaHEqlq+s6hm7Q19fHwUOV7N6zhz1797Jv334OV1XT19eLgTkht/p6S0Fonj8hxjlaWSZq/ZzIUFWN0uJippySSGDoqniHx3CJBccCCSsgc57l8/k40t3Nv//HzymfOYvZc2YDyVZ5LjLgwWtgJowyDJ3qFlO9axG+2dLRiaKpqzSTORusnO/llMKEPYN5j6728qSGKJrKunjyNPNfg/4Bg48ODPDq9jAfVUQ40mcgiYBgWjI4vXazoKm4OApMAh8MAUQJmrs1Gjs1ppXInBTSigkCPZ4oyCJ3o9EogYCfb3z9a1x19VUUFRUCcNbas7j5phv4//73/0bTjpKMI11lFM2EN21t7Tz66AbWrlnDwgXzM0Y0u3CRDhiGjuL12tYnYwHLeiAQyLGTY2USYlyRFA6HR/yb8EAUVYuNi6RdJwNEUUT2SCYhNAIYJJJRI8CqFcu547Zb+fkv/ptgaABvkgdi9qwnjjYOOUm4WEylqamZBx5+hK0ffcxNN97AV6+4DJ/fn6TmnagQAHQdSZKRlYzlP896pOZHgMF1LhqNUXHgAFs//oSPt2/nwL799PT0EgqHiQ6EGYiEiUaj9m8FUUSI//dw9jPDzbHcedfYwDB0/H5fUvJGcN/HREJiI0VEU1V27PiUZ557kVu+fSNFRUVDesCfzMjYKBIKG1Q2qWh6guDNnoYlxhV2AgW5ImtP9VKYm/BLMycdLkF3siEx2TRJ3XhtsBOyNHZqPPVOkNc/jdDeoxGJ6SiehJLBJWFOLjhftUcSaD+iU9sSixO8Jlybl7GHrRLCbKOKonDmqjO55+47mTVzBgCarpOXl8uFF36JF196ib1799mkUCbLKEkSmqZxoOIgTz/zDD/47j3k5Obai53hFjwuXIw3WESqYRh4RBmPPAZhzJCk1FUUZWyiK+KbNLFYdMQ/UWMxNE3HjUpNPwzDQBREFI8yIsW0TUA5CMr8wgKu/cbX2fnZZ7y5cRPRSBRZluPnOzn6a9t3Mf5nGAb9ff18uPUjWlvbqayq5O7b76Ck1ExUZYqgjUGKzQkBR5j+ePGsnqhIJfqdiQyddeJQZSUbN77NBx98SHVNDR0dXRzpPkJfX5+pJI8nZhQlKWlDMZVEGmqtNqHq3kkATTdQvF58Pu9YF8XFCcAeEySJaCzGnx79E0uWLGT9hesHHQcndzvMGMHbH4GDjXGCNwuft2boeCSR5bM9zJgkAQK6odu7fC5OTlgTd0HAVs70BnXe3TPAG58O8MmhCEf6DXwyKLKYpNp1683JC1mC5m6V2nads5O+yR7lzkSG1a6jUZWVK5fxD3//t8yfNw+IhxHFjzt14QK+/a2b+Nk//Qt9ff34xKGzMKerjAAej4eBgQEe2/AEX7zgAtauWe32LS4mHuLheTogKRKK4hnrEuHxeBCEzDO8Vr5VTRu5YjGmxtB1V92SKQiicFz1IzFnFJg2fRo//cmP6O3t4933tqCqKrIsDyKqshWp9ygIAn6fD03XOVxVxSMP/5Hmpjb+9V9+xuSyyYiOzRdhwto1uG10tOBsS85516a3N/PmWxvZufMzqqtraG5uJqqqKB4PHo+HvLw8IJnIHSoRm/M6LsY5DB2PouDzjoH9iYtRg9OGx+PxUFVdy+NP/oV58xYwd87sJNHKRI7oGA2kjeDVicuo4w84HDWoaIgR0wRkMXskBFZFU1UI+A3OPs1LTrz/iIvJx7B0LjINs7onJpWGriMKIggGYLCvLsqrn4R5e/cAde06mmaQo4hWfFZcoenWmZMZBuCRRFqP6NS2xQBsH163bowfRCIR5s6Zwx233cZZa9cACY8oSx0ryzIXXHABa1ev4Z13382oiheSfYIbGhp59LEnmDZtGjOmT0PTtKSM5G7dcjHuIQigG4iChCyPvcrNbD8JL/1MwjA0NFUd8fGarqO74YsZgyiKKIoHwxjZesfpD2r12YIgsHTpUr733XuIxWJ8uPUj0+9dUewx5mRLFKTFn4/Xq9B1pJu/PPP0/2XvvMPkqM50/6vQXR0mKuecEAgUCUJIKJBsbAwmGJtkg7GxjcPuXu/dfHev7+46rL3rhG0yBhOFCAIRJQQooqxRzmFGefJ0qHTuH9VVXd0aSSNpukfT6vd55mmpq7rqVNU5p855z/u9H6FQkB/+4GEG9O/vtMSUJVoR5x/8lgz+cY1tC1asWsmHH8xnwUcLWbVmLY0NjYTDIbRQiLCcGXWbbWV1vrWzQoSaUn4W0bnhb5OBQID5H37EpAkT+PaD30QNqJ3erqe9kDOCV7bBxvbsGI41mBystbBtgaQUTkfpTYolKC9VmDRSy0ogV1TcnQ9wiNm0JUOmaldwpMFmxbYkby2P80lVEt0QREKys9jhNQfXq7mI8xdOfyHJ0Jywqal1UxtLyHLRO7Ujkb73ErFYM926d+fee+7m9ltvBvAm3O4kwZ189+nVk/vuvYuNmzZSc+BgZkKZHMOtK4qioCgKs199lUsvncC9d9+FoijFQVARnROSjTgHqq5lmTh9dgeMaSXptE6ryDIFNPQ+p2HbAlmWUINBJPn0SfVsknfWzOmA4Le/+wOLFi8hFosR9iV3Op/GBX4Fl6YFsUyLxx57kmg0yvcf/h7du3V13sOp/c+ne3O+w0/u+lW7+/bvZ/78BTz/wkssXrwEy7YJh8N06VKZMV5zUSRziyji3Ibb1lVVob6hntmvzuGiiy7k6mlTvX06e9LNs0XOrtp2eU9JxrRtth8wMRHpAWYBTSxtG4KqxOAeKoNce4ai/8d5A6cDSVdpSXKzAsvohsXanQZ/mtfEL2c38vGGJLIM4bCj2pUkO3UM57fF+nKeI9VxSsKx7KhtNtlWYxZ9EzsY/gl3MpmgpKSE22+9ma/fdzdKKmS2NXN/IQSKqjJ16lVMuXIKwUAQwzC8Y+YLLqnc2NjEa2+8yYpVK4HMJDZFsreIcx1OaLqEaVhe0puOhGGYjkKzAzpoSZJQ1bbbVAQCKpJcVC/lBw4xq6kBJ2vqacCv5PW/V2bNnME//sPf8uUv30y37t2IxeIYhpFh13C+9OF+BZeiKKgBleeee54XXngRXU9mvNeKY+rCh1+tm03urli5ip/9/Jf807/8G4sWLyUcCREtjXoL3Jm5cjJRrDtFFHFuwv8OCIfDrFi5itmvzqG2ts6zuPT3CecjcufBa9veCmpjC2yrMcEWaUq5gDpOS9iUaAqDe6koPvuJ4suhsOESu8crdh1vvJpam8WbEsxbEWflNh1ZllBSrUJCAttOWZkUVHMo4mwgg7AdnldVoL4JtlQbDO+TnsifzyuSHYHsLMwScNMXvsD937if8vLyjH2zJ9quAqustJT777uXtWvXsHHTZjRNy9szdMsvSRKhkMYnH3/K25eMZewlF6MqgWKitXzCdhX5RZwuPFWVJGFZFvpp2BO0J/wLObqun66Qtp3KALIkoZ5GuGlQVVOLVDksWBEeFEUlEokgnYElXfbk1K37EydMoE/v3gwfOoTnX3yJ6uoa4vG4Q3Kmni+cH3GDNiDbNpIsoygKdfX1vPjSywwdOoTP3XC9Z5VUFNucH8gmd03T5NNPF/HTn/+SFStXYdsmmhZECBm3EzyXfHRPNq4vJlcuoojW4Y7HFEXhw/kfMWL4cB7+3ncAPJuV8xU56zIkSfbmMU0xm23VJkKSCmvQkao3tg1hTTC0l5qRUOF8rliFCtt2V4vT/4dMOwbbFnxaleQnz9fx89mNrN5hIEugyAJZSa8sUUykVkQrcKtEQIW6FpPNe42sHfJfpvMZrnIXwLIsJk++gvvuu4cRw4dl2DL4V4r97doleS+/4lKmTr2K8vJyT33Ymuo3F+V3y6WqKrqu88577/Heex8CmZOc4jsrt7B8iqEizgwSoOsGRjLZYWVw23dzS0uHnF8gUBSFQKDtCt6gFkJVFcS54G1R4LBtG1VVKSktPSvyP9tPFKBPnz786Ic/4Le//hUzZk4npGlYloVpmliW5ZD/rRyn0OA3NHO9GFetXsNrr79BTc0Bbz8JiuxYAcOt235yVwgnkdrDP/gRS5ctw7JsFEVFUZTUXK0DVuVOgewxo9vm0xGidkG24yKKOBu4bV7TNHbs2MGc115n06bN3jbguHfo+YKcvPVc0stFfcxmW43h9KdSYbxobWf5GAmwLAgHZQb3VrJW6wvjWovw12mXzHU+HfVtylNTCJZsTPLPzzbwH680sXybjm4IZEmgqnKKAC4mUiuibVBl2VPwZqj+7GLdySdcAteyLIYOG8r3vvcdLr/s0oxtJ/J68pPDAN968AEmTpxAc3Msr9fgD2fSNI3166t48623qK2t874/38OZ8gHTMLGsogL/bCArCrFYC/UNjR1WBre9NDU2eoRBPoh7zy/StlFUlWg02ubflpWVecm58gF/FMP59Odes6KolJSVnrGfZ3aYqT+KRJYlLr/sMn7185/x2KN/YNasGQSDQQxdx7IMLMvKmND6+5tC6t+zFc6apvHhgo+Y/drr3nYnMeP5N7k/H5CdBM2tB2/Pe5u//4d/YX91dcqnU+4QNV9r5/P3FX4S17Ztb6HGMAws08S2RYaNRHHcUMS5jtbqfC7bnf89F4lE2bBxE7/5zSPEYs7iu39uc761nxxZNDg32yU7D9WZHG2wiWggF0iWByehlozAUVNURGWG9g7g998topBgI5CR/EnQUt57Qgiq9uh8XKXz8foEOw8ZxBMgK6Aqcsqez8a25VQn01HXUERngRDO4oFuCQ7VWdQ321SUOHXJUWAVK1E+YZoW3bp35aEHv8msGTMA1w/0+GzNLvxkqTtAHz5sGLNmzmDjxk0cO3YMVXVfwbl/pn6rBoCFH3/KK7Nf5cFv3l/04c0TEnoylZiriDOFIss0NzdTV1/foeVI6knq6xsyCLxcJufx9zECR40fLSlp8+9LSkoIadpx9jG5hiRJ59XEyiWaQiGN7l26cLb9ut/2x/9OkSSJHj2687kbrmfkyJGsWbOWDz78kPnzF1JzoAYtqKGoSsbiQ/ZnISST8hN8wWCQAzUHWLjwY2675WZ69eqZt8WXIjoG/vYA8OmixfzPbx9hy9YthEIhJElOcfz5W1j1963ZbS2tMk4LByzTxrKdXBuVXbsyZOBgRl8wgu49uvPK7DkcOHDwtKI1iijifIG/TQcCKvF4nI8+/pi5b83jlpu/5M2xzkernpx58DoEhURLwmLnQcvJM5AaSxSGh2TKa9W2CWsKA3qolIfT19T5r+/8hut55Cc8hG1Dql47GdJgzyGTjzckeH9Vgh0HTOqaTQKqRDDgEikp4sYuErtFtB0uiSvL0JIU7DhoMG6ohizJCGF79bOI9od/Iq0oCrquo6gq93/9Pm798i0EAmrGPifr6/2Tc3eA/6Wbvsjatet5/oUXUiGDEvkg7P0T4Ug4zL69+5j75lyunTWTQYMHeZMO/4p3ISMfU/5swrypoYlEQi/4e5tLyLJMS0uM+vq6jO/zXWfj8QSHDh1CICHngSjz9zfCtgkGVEqjEeDkCzNumy4vL0PTNGxb5Jz0cstpWRbJZJLmWAwM49Q/LARIMgidcDhEaWkpUjv2NK2pohVFYfiwoQwfNpRJEyfwxRtvZPWatXy6aBGrVq3l2LFjBAIBwuEwqqqippKCZi8+wvF2PZ2ln3KvRVEcP95NGzfx+htv8q0HH/D26SzXUkTb4E9862LHjl088+dnWfHZZ4S0EJIsIZHrupxenHf7WvdPVVWklGe8YRgYhoFumBiGTkBV6d27N4MGDWTQwIEMGjiIQYP60bNXbyq7VDCgXz+EgOWfreTAgYOdqj0WcX7CnefYto2ZypGgKEqb5krtAXeR7+Chgzz9zLOMHz+WYUOHHVfG86UdtTvBmz3OPFhrs6PGIKBIuFOqQrq5lgVdyySG9lIcQWfq+/OpEhUmMhV1mQnUBNsP6CzepLN8a5Kt+02qjxoEAxKhoOIl1M6oA8WqUMRpQJIdD3NVhoQu2LTPYsxAQTDg9TAUK1Vu4Cd3Y7EYmhbkK3fcxr1330V5eZmXoKOtatfsZDn9+/Xl+uuu4bPPPmPvvn0EAoG8kqpeuJIqs3p9FY/88VH+/f/9XxQlc7JUyO+wfOnWsi0vauvrSCTiaJqWpxIUHhRFoa6ujgMHDnvf5Uul54TLOv+OxWLUHDiQF3LXRVoV5oSja6FQm3/bvWtXwuFwXjx43XqvqgpDh1zAbbfdQigUxjD0M0o61mkgQJZkdEOnorKSK664HEVtn2lWts2CP3rEJXoHDRrIoEEDmT79aq6ZNZMNGzeyafNmNm3ewsaNm6iurkY3TcJaiGAwQDAYTKvCfe3nZLZD5yLS1wDhcJjqmhreefc97v/G11FTKubOci1FtB3Zqrw3585l7tvvIMlKitzNx3P3zxPTCd50XSeRSGAYJtFohD69e9O3b1/69O1Nv7596dunD7169aR371706tWbXj17UlqaGZFh6AYRLVwQSvsiChtuOzMMA1VVGTFiOLIksWvPXgxd90Ur5rYMiqJgWRarV6/lmWef4+//9seEQmFv24kiLgsR7X7HZdlGCBk7NYg8WG+x/YCBWmD3UuBMEk0bSsMwuFeADIa3SL50OmSHwDmETJrYjSctamoFyzcnWLolybItSY402ERCEpHQ8cTu+dCBFJE7CByCN6nDlmod0w4TTG0r1q3cwa8+C2oaV06ezPcf/h69e/dytmclVDsVsq0aJEli+tXTWLFiBY/88VHvu3w9U/c8oWCIutpa3pj7Fl++5WYuvXSiNwAq5Prl2JyIvBGCftTV1ZFM6oTD4QxVdxFtgxACVVU5evQY1fv3A/kLM3efl0uQxlpi7Nu3P8P7MR8QQhAMBigtLcv4/lRttkevXkRKIhhm2iIkl23dJd27d+/G3/zVj3Jyjs6C9r7P/mO57w5/qHokEuayyyZx2WWTaInFWLN6DStWrmLjls3U7K/h8OHDHDp6lLpjtSSSSVRFQVWdJFSqqnrHzy6z33P+XIRbtkQiwY4du9i+YzujRo4s2jQUILLVu58uWszb897h2LFjVJSXeyr1XNbVDNscIZzkn4aOFgoxcMBAevbsTreuXenXrx+DBw9i8ODBDBkyiKGDBxMIBo87nltm9z1nmCaWsIp1t4hzFv5FFsuysCyLUaNG8tBDD2KbJj/5959y8GAzgUAg5/XYbYuBQIB4MsHLL81hxrTpXH31VN/cBs4Xfi4HCl4ZSbK9+MeDtY5Fg6JCoSXvlQDTgpKIwtDeKpKUnjSeo+OfIrKQTp6WDqUWEsi43rmCmC6oOWqyaEOSRZuTLNucJK7bRIMyFVHlnMvGWkTnh1ulFAWShmDrfoOkLohoTtdqpzwait1M+8MdJLS0xBg/fiw/fPg7DB82FMhUNvn3PR3Ytk3Xrl24/rrr+Gjhp2zctDHlFZc/lZFLKgeDQY4dO8YfH32M/v370bt3L4TI9JE/VyfzZwPTcEIm/cjVvXfJv8NHjtDQ2JQXBWUhQ5IkmpqbOXDogPd/IC+TB/85Ghrr2bp1G+RZwWtZFtGSKF26VGZsO1H9ddt6WWkJ5aVlGcOVXLVtt59saWlhw8ZN1FTX0KdvHwzD8DwxCxmuACQ7i/fZ3u/WEmFmL1b57RskSSIaiXDllZO58srJABw8dJAVK1azdt06Nm7cxIEDB2hsbKSlpYXmlhjNLc3oSd0jjl3C1y9aaK2tnUsLg0FNIxZrYfHiZQwePBgtRaadS2Us4szhX8xw29jsV+ewYsVKysvKjtuWqzK47wTDMBBCUFlZQf9+/Rk5cgSTL7+MCRMmcOHoC1BUpdXft+aFfbx4oMA7yyI6LbL7U13XGTCgP/d//T7u/upXMQ2Tt+e9y/sfLPCUvdhgk7t+2Ms1Ahw+cpg/PfoYvXv3ZuTI4ant4OYJK/R3QQ400zZIMpLkdFwH62xqm2x6ViqIvLje5RuCyohM364KIHnhu0Wcu/AauCyDlzQtU62LEMR1wd7DBgurDBZtSFC1W8cSIEtQklLsugP5dBK1wu80isgfJEnGtG0O19kcabSpLJWRU243omjE2+4QwuFrDMOgoksFs2bO4OrpV6e2ZWZKP512nvbiTfcYkyZN4M6v3MY//59/zbvq351QqKqKrhvMn7+Aj6+ZwW233oqiyNj2uavSOlvIshNCnUgkcnqe7OQv27fvpKWlOS+haoUIV0ErSRKBgMqxY7Vs277DW3xx98nlxMFPGhw9eow9+/ahBYN5VfDatk1ZSSldu3bN+L4t192jew/KSkuxLCsv7VuWZXQ9yY5du+jdp09eVDznDET7zniyowH8dh2yLFK+/McvPvrJXoBePXtx4+dv4MbP3wDAsdpatm7dxuYtW9m6dStbt22jprqGlpYW4gkdXU+QSOjoehLLsjzi1/1z20RrFhIdASEEqqIQi8ep2lCFaZoewVuo77TzDX7LK4AVK1exZs06WmIJKiu1nPcx/igv0zQpKSlhxMgRXH/tLL50002MGJ7p++kfN2YnW/Pv498OzkjRWRAukrxFnFvI9sBOJHT69u7N1++9m/vuvQsAJaDyzQceoLq6hlVr11EWCCBkQS6lSW4frygKQgjmvfseV1xxBYMGD0QLBjPaWaEv+OVkpiHh5Bk42mhRU2uipESOlpO1qiBuqKPetSkNOwnWVCWd3bhIupzbkLGxZdn5xK2v7jMTGBZs3GuwcF2cxRuTbDtoYltg2QJFJkOBImyQ5HRCrCKKaC+4Lx9FhoQp2FFjMKSXgqqkLXCKaG84E+FkMsn0q6fxta/c4XzrC00900GBGx5k2w7RG41GmTVrJm+8OZe169ZneETl04tXVRUaGht56ulnufjiS7hg1Ehv8OOiEN7ZkFYzxuNxGpua8nZeW1isr1pPY2Pj+UVytSPctudYFAQ5fPgwS5cuyyB4c4XstqDrOtu2bcfQdUKalleC17IsyivK6Nmjxyn3zVaDDRjQn27du3HkyNGctmn/IpiwBOvWreeSsRdTVlLqtcF8hvr7SU8/MZRTr1lJane1dHb5U6fBtiVkOT1h9Se7cfY5cf3s2qULV1x+GZdOmoRpmQjbprGpid2797B12za2bt3Glq1b2b5jO0eOHMPUDQQC2xZeSLlfqZx9rfmcRLvlUBSFRDzOli1bvUiNfITsF5EfZCjYgXnvzGPX7t2Ew1pGAsH2ftb+4wohsGyb8vIKbrv1S9z/jW8wauSIVttatsLexYkWZPzXltR1z8+8iCLOGWT18eXlJdxz71189zvfQVEcalECZs2czgfz57N9xw5M00RR8lOP3Taq6zp/ef4Fhg0bwg3XX5dR5kJ/F7Qrwev2uQ7pBXuPmFQfs9BUyRG2FsgN9fvv9qmQGdwz8zbKRWXdOQ1blpFtGyG7pKz7QhUs2pTkjSVxVu/QqWux0A2HjFEVCKjHD1o7u5+LU1VPnrDrfOgIz0V4K5GSs7iwtdpgykUapeEOLljBQ8I0LSKRCJWVbQuDbgv8RII7qL9g1Ei+89C3+d7DP6AlFiMSieTdi9cllVevXss777zLgP79iEajGRmhC6kPkGWZWCxGQ0NDzs6RrbazLZuVq9dQd6zOU/AW/XdPH+6gXdM0Dhw8xOLFS7j7rq86Gx1z5ZzUVfe8bpvYt28/VRs2dYga2yF4K+jTy/EEP9liQXY9HDhgAD26d6em5gCBQCBnZXTvlyzLWMJm4aef8oUvfD6D4D1X4M+5cC4mFvM/w0zPTzepjBMx2Zp9g39RxEXmv0GWnT5eUWQUxVG6hkIhenTvzvhxYzENA8M00JMGh48cYfuOHWzatJnNW7awcfMWtmzeSjweQ5ZlAoGA5+Xb3vYUbYE/EiZuGNTUHMQ001Y8ksOGF+dnBQC3fiXiCRYvXs6RI0coKXGSlOWqrmX67Tpe+t/+1gN84+v30LNHT2+b/9P/29bawcnKKrBJtMSxhe0tip1LfWcR5yf86l3TNBGSxD1338W3HnyAUEjLWPSTJImvfuV2tmzezLx33qO8vDzjGLmEJElomsb6DRt48823uHjMGPr27eO1TSeY+9x637cn2nl0mkokA0hI7DlsUlNrEVCd7wrpJkqAYUJ5VKJ3V5nMYP2iN+Y5DTul3BU2Aom9h03mr0mwsCrB4UaLI/WCWMJGVpwkV2rAT+xSYDYMDrmbrr1FnGuQZTBN2FpjEdfJIHiLc5VcQWALGytLKd0e7d6dgFuWhfMlKO4AACAASURBVKIoTJ06henTpzF//kcYpomaWuHOxwDIU4krCrqh8/Qzf2bixElcNeWKvCYjyweylW/19fU0NNRTXl6RsyQ87vmq99ewaeMmWuIxotFou5/nfIOqqjQ0NLBm/XoOHz5Mjx49SDnX5ATZdWf7jh0sW/YZqqrmfcJtmhaVFRX06dvnlPtmE35Dhg6hR48emKbpvPBtsEXu+hk3jHnRp0s4UHOQAf37Z9yv/PRxpCIn5FZVw62RJucayStLMoJ0X7xn714ef+IpyivK+OHD30+RvMcrlU9k++Mng1vr492FPVVVUVWVEGEoha7dujJi+DCmXTWF5lgLLS0t1Nc3smvXbtZXVbFq1WrWrFlHXX0dWiiEqih5vY/+hQWAeCJGXV0D3bp2S9sk0ZklGUW4kCQJAayvWs/BQwe973KZvNTtKyzLIhAIMG3qVdxx+60eudva4oq//relLfjbYiKWoKGp0bNGKZSxWBGdG56C3XISAN5719f49jcfoEtll4z93PZy8ZgxXH/ddaxbV0Vdfb3n655rSy33/RdQVd56511Gj76A7333Iad/EMKxOSxgtCvB64UGpZ7X3iMmNUdNAoECo45SPo22gKgm07U0e0Wug8pVxGlBkmQaWywWrEvwzIIWdh000YIS4QBowbQNg59EK5Rn6+/8JAECgWmDYQmE7QwiVEVGVdK+xOfapOd8geMZarOtRiehp9QBpBIBFh9HTiG187JHdugqQPdu3bj3nrvZULWJXXt2o6QSruXLIxNIKbgUtu/cyRtvvMmQwQPp27cPLmWWk4mFk4Wo/Y97Avj9wgKBAMeO1bJj5y7Gjxvn7dPefZw74VywcCGHDh1Kkww5CiE9H+BamUiKwuGDh3j//fncdustBLVgTurp8VYlgqqqjezZt5dAnhS8XuIQScK0TLp27cbAAQPa/Ht3ojVs2FD69euLaVpISAhya5PgErx1dbWsWbOGSy65mFBIy7BpyD1sL++CJMk0NTXRUN9Al66VRCJRjwyybTvLvsFGCCdPQ0e1U4+IFU7ialmWqa2t44UXX+bxx5+iW7eu9OrRmzvvvM0hgbOSgJ6oPzuRlYL73YlUv7Iso6gqZeXllKWUWACTJk5g6tQp7N9fzbZt21m6dBnzF3zEnr37CAQckjjf40dZlhG2oLk5f1Y8ReQXpm6wds06Wlpa8mZ9JEkSum7SrWsXvnzLzQxK9cMnUtCfCdzf7a+pIZ5MeKPQooK3iI6G3/5H13VuuflmHvjm1+k/oD+Q6SXtj3q64Ybr+WzFCl548eWMCI9cwU8gBwIBjh45wptz32bcuLFcOfmKDIVxoXIb7XpFtm07c7bUSvPBOptYUqCkVtoKCqmw6bAmUR4peuN0VtQ22azZZXC4waJrqUJpWPbUEHgD3o4tY3vBneRAagAhQDdtmpIWli3oWalw2QiNGyZFmDk2zPB+KsGARFxPTy6yQz6LyC3c+y2EU1cP1FqAQJac8K3i4+icSD9X58045crJTJ8+jWhJiecZmE+4ii0tqDH71dm88867zobU4o+/zO0FWZYJyPl/dwohCAQCHDh0iHXrqoD2tUvIvk/1dfW8+vob1NXVEwqFAE6orCvi1HCJ+rCm0dDUxCuvzqGusT61NV1X26O+tjbwX7V6LR9/8gl2SlXl7pdL+BcGgoEgfXr3IlriKMHbSmoIIZAliUGDBlJZWZFW8eYYsiwTDAZ5Y+5bbNm61SuLi1zeO+fYciqBrnOxy5et4F9/8h/80//5vzz9zLMsX/4ZTY2NXiSD2zYdj1kro4ztVa/aWnZPNIOz4GeaBq/MfpUnnnyaxqZG9uzbz//8+jfMee113MSY2b67bS3vyfoj9/3g+pvato1lWd4fQK+ePZk4YTx3fuV2/ukf/o4f//hvmHLlFYCTtNQtWz7HkLawSSZ07/9FAWTnh7/+mJbJ5i1baW6JZSxW57wMwqKyspxpU69CTiVz8pftTN/t/rar6zqbNm3C0A1UVc2rZ3kRRbQG1xLIMAwsy2Lm9Kv5/ve/w0WjLwQyFyAyfLKFYED/ftz4+c8xbNhwdF3PS3329wnhcJiVq1fz4osv09ISczzys3KNFBra/+6mJGU7DxkcrbdQ1dyFzXUcbEhZOUU0ifISqThw6KRoStgcrrMIKhJC2NjCNwgskJdpetABICMExJM2CUNQEZWZNibM/deV8NDnS/juF0v50U1l/OCmUn54Uym3TgnTq1ImlrSxrONXqIvILTyf1JQLzJb9BnE9raouonPDnRhEo1HuuuurDBs6xAt7yn9hnND3/dU1vDVvHhs2bkKSJWQprfZqz7avKgpaKJjKEp0fuIPPQCBATXUNK1atPG7bmV6jS174w4RtW/DOe++zfu16krp+6oMU0WbIsoxpGKxZs5aPFnycIrgUb9vZwk/qQbp+fPTxQpavWIGmaRllyQdM06RXzx70798v4/uTnd/vHwwwYsRwhg93Jln5gBuN8NmKVSxbtvy48uZqTJEm551UupIkoSd1PliwgGf+/Cy/+90j/NO//Cv/9pN/56e/+CUvvPgyK1as4siRI4DjTe4Svq1NBHNJVmYnS3Pr3uxXX+fxJ59i7979RCIRFFli2/bt/Oq/f8Ofn32OeCLhldevuj1dktcluU/0l72PS/xaloVt23Tr3o27v3YnP3j4uwwZOsSJEkv1iflpK8L7sHEVZXk4bRE5RfaCm2XZ7N6zh0QikZfkTW4/EAgE6NGtB926dfXK5fZzZ0Pu+qOMdD3JkqXLiMdiyHlKTFVEESeCWz8NwwQkJk2cwI//198wfuxYIE3unmyRY+rUq7j5S1/wFgXzMc+xU5acqiyTiMdZ8NFCXnjx5Yx9CpXXaPc3rfsS3XXA4kiDTUBJyaDb+0QdBCd0ybltroK3NCwXIot9TiBbOeEfVJ9Ng3TraW2Tzb6jJrZjEp3vqOEcI7OjtW1HsWvagooShXHDVO6cFuXHt5Tx/S+Wc/MVUSYO0+jfQ2V43yBTLwrz0OfKuHNalAE9FSwhYfkmHgXYH567kEEIiW37DJpjqZdjBxepiDNHevCTHtBPnDCeWTNnUFZeRjLpkC95HXTITjlKSkpYsnQ5L7/8Ska4VXuXRVUVtJCGEPntcIUQKIpCU1MT69dvYPNmR1WYnRTodK7Xb3njHh9g7Zq1/OGPj9LU0kIwEEjdx/a/pvMN7oRaVVUam5v485+fZeu2LcDxyQzPpN5mT1LczyVLl/L+ex9SX1ffIaGypmkyYEB/hgwZnPH9ya4xm6Aec9EYLh5zIbF4wmdDlSui0vlUFYVkMsHb895h5arVQG4nd9nX4177hws/4tNFiwiFNMrLy2lpaeGjhZ/w81/8km9/52F+/Pf/wB//9BgffDifXTt3UVtf501cPUurrL6wPcajJyq7n9xdtHgJv//DH1mzZh2lpY56W1EUVFVl7dp1/PJXv+Yvf3mBlpaYV15/+Gl7EtJuP5cdhuue053AT516FdfOnEE4EnYU4+RnUu/OOCVZQguoqfPm4bRF5BTZ9iGWaXLo0GEMXc/bIpsQAi0YpEvXLu3Oa/gJ7OqaAyxZvox4Iu7lZSiiiI6A/x1iWRajR4/ioYe+xeTJl2ck/2tt3ORXt3eprOSG66/logtHYxhGu787W4MsOzmxhCQRjUbZtXsPT//5z+zavdvb3pq9SiEgRz2ixN4jJrVNlqM8KyDIsgySnVqRhkgwZUohBILCqhwdAds+fsCcnqCkVQNn4pnityhwvTX3HbE41GAjIbwUeZ0d6U4qHdZpmjaWLYiGJEb3V/na9Cg/ubuS79xYxrC+KpAOvfP+hE1JWOL+a0v43o3ldCmVsCw387KMLHf+e9VZ4OiQBDsOGzQnU1+Kwlk4O3+R6XV47z13MfbiS9CTCSC/K8uS7fQXqqrS3NzM/AUfMX/BAmdbFvnZHgioKpoW8iwg8gkhBOFwmN279/D4E08STziNKnuQeqprzSZ6/CFqW7du4/Gnn2Ht+vUI3/uqQAJDOhT+CYRtWaxYuYpXXplDfX29t4+rDD/dOusfW/j/XV/fwJ8efYIlS5dRUlqaQb7lEv56lUgkGDRoMKNGjADSpNWpFLwu3FDJMWPGIEvp8VauyBHvsJJEMBjko48/Zvarc2hsaspQfrYXAek/hl8BC3Dw4AFefOEV1qxZg6Y5PsCqqhKNRigvLycQUFmzeg0/+8WvuP0rX+WOr97Nz3/2X7z/3vtU1xygJRY7TqmXrfpvLyuH7LJvqNrAT3/2S9asWUtpqu5BWh0dCoXYW72f//jpL/jNb3/HwYMHvO2t9Wnt0YdnL374VeJu+YLBIFOumkJpaSmmaealvfgJBQmJaCSd1LJwxBvnJ7IV7Qk9SWNTI5aVu8Rq2RCI1OKigpDP/pzZkT+SJBGPxXn9jblU76vBjT4oooh8I/u9YRgGgwcP4pv3f4Obb/oicHwi5tZ83SH9Trh4zEV856Fvo2kalmXn3XokEFDZtXMXjzzyJ+oa6r2y5YNszjdydleb4oK4IaG0Qwd4riGVfJhwSKYkkkrI4H5ZzM962nAnGX4C1q+I8g+mDUscl0iirZBlGztFYiBJ1DXb7D9qopIe+HnbOxn898I/iDctgW1LhDSJUf1U7p5eyr/dXc6D10cZ1MNNEJOd7EQGZC+sTlFkLh8ZZMJQjWBAchJ+ePsVkS9IQEOLwDRF5pdFdEpkEy8AgwYO5Ibrr2XQoIEkEnkmeb2uUULTQlRt3MiLL82msaHR+749ySBVVQlpobzbUfhtGurq6pg77x3effdd4rF4hgrNTxRkR474/5+tXgPYtXMXjz7+BK+8Mhsl5e1Z6H5f+YY72Q8EAuiGwRNPPc0bb75FMp4KU8enYPT95kTH8n/6nyk45O5//vwXLPjoY4dgyPnVpZFNoA0dMph+/ful6mfb246//o0cMZwLLxztKS0htxMbl5SRkJgz53Wef/55AM8CIdtO4GzJUchMTKcbBn/44+Ms/OQTVDVwwvIpikIgoCJJMrt27+aZZ57jwe8+zG133Mk//uO/MPfteeyvrsYwTI9Uyh6nnqm610/0+PvZffv387P/+hXLli9L3a/MpHAAsuTMterravn1b37P3/z471i8ZCl6Us8oY7YdTnsqev0RDJCOlOjVsztKQM1L3+e/b0I4fUN5RYW3rYjCQjweQ1gCZKdPbk+V+okgSzKGblBbX58OUUjhdM/tn+fatu1F/mzasoXnX3iRRCKJmkrkme/6KyS8hNtFnH/wLzoIIdB1nT69e3PfPXdz5x23AekxyYlEd/53gruYGwqFmTljOldccRkBVckbseoePxAI0NjUxBtvzmXJ4iXYtj9xYWHlxsjZlcSTAtO0C3TF1PHWKwlBaTgzdKKoamw7MhS1EkiSf7WHlDzFfcEI9h812bJPJ6af2UvHth3VqfvrXQcNNuw1UQPpStqZ2rb//mWSRW4GSwlFhiF9FO6eUcq/3V3JvddEGdE3SECVQZIQqQGRq8p1juUcV5JlTyFUXiJz2SiNcFDGnRMWX/35gyQ5NjCxhKA45iosZHtk3nHHrcyYOZ1kKhGBu0++4AzUJCzTYumyZcx54w0gUw3WHoMxNRAkHAmf9XHOBH5y8EDNAf7ff/yUV157jVgsBmSG80opBY0/FM2vIsomqNesWcu//+fPeO75F4nH46iqWtCZejsKfpWjoqjU1tbxs5//kmeff4FEMonfb8kG7FYI+2zivjVVbl1dHb/+7e945aXZNDTUE/CsNvKbMMo0TQYOGMiwEUO98rYV2YrQUaNGcs2sa7BsK+d9TDoCy7HUOHDwII89/hRPPPmMt48/3N9//9tKjPo/s4+RSCT5zW9+z0svv0Jdba33/LLVty4RqqqqR6rEEnFqj9WxadNmXnplNv/rb/+Or37tHn7013/DnNdep7q6OqMsZ5rlvjVSGKChvp7/+uV/s2DBR+i6flxf4hHKkoQsKciKQiweY9477/Pj//33PPrkE9QeO+Y70/H3tj0n2P4+zrkPguamOHaeFJYeuWvbKIpEZZdKL7Fl9j5FdH4kkwYCQSpFRcaiXC7gkllJPcmBmgPU1rkKQKcEbV2Mz27v/v/v3rOXZ/78HHv37vOOCfmtt7IsgxDE43Hg7PMTFNH5kK3ELSsr5fbbbuXBB76BlupTT0bu+n+bfby+ffvwrfsfoGv3rnlNuOYf9x86fJg/PfokO3buANw6nt8xXa6hnnqXM0NCFxiGIBgEgYSETaEo/iQJLBsqojKl4bTHsACELXcqkrAjkO4M0qpdh5QkpU5wB4KCjXt1Vm03WbktwcF6i7unRxna+3gFxqnP6ZwHAXLq+FV7DNbv0VGlzkVW2tjIuPXM1wkLR90Z1wUlYZnhfVVmXBLmqouCDOwRSNVVV5nm3HNkGWzneDaZ3qDpCRMEVRjVL4AWANMGLfV9UUGaL9jYSMSSAsPqTLW1iJOhNcVXt67duP7aa1m6dDm7du32VG75IgjdcwSDQfbs2ctf/vIi119zDT179czY70zL4xI5oZBGt25dsa3M68/XNdq2jaqqyLLN1i3b+Ol//pyNGzby9XvvYcSI4V5ZAWxhZ6hZshW7AEeOHOW5vzzPG3PfYuPGjcQTSTRNK5K7OYS/XQSDAfbu38PP/+tX7K/ez0Pf+hY9enRHcttYFhF/IoLev23Hzl384pf/zbvvvEt9Q0OGEjufz1OSJAzDYMKE8YwaMTKjjG0ph5/EFELQt08frpk1naeffgbDMJHlMyMm2wL/M5JlmUAgwLYdO/mfX/8WXU/y9fvuRdOCAFiWlfFc2qJ6zyaG3cmiJEnUNzTwm9/9nmeeeY5jR49mEKRu2bLvn7+swWDQ2z8ej9PY1ERNdQ1bt29jwUcL6d69O8OHDeOqKZOZOmUKgwYP8sqUfbwTobXoK1mWaWxq4pE/PcacOW/S1NycsbDgP17mu0EiFAqh6zpVVRv41a9+y/wPF3DH7bdy6y23Iivpharse5ZdFvfYp4Jfdew/FoBhGGzesplkMomiKHmL1jBtm1AoyMABAzKSbxVD3QsLqqKQZwt/wKlHdQ0NLFmylM/dcD2KomDbaUFSa0r81tpJuj5KSBLU1tXx5FNP85cXXkwt2kgZv80H3HKZlsnhI0cxTJOAmqaKimOZ8wde8kzb5htfv48ffP97hCORUyp3/fDXf/eYkiQxefLlzJoxg9mvvkYykUQN5IyOPK4sTnu1+WzFCl577Q2+/e0HKS0p8crXGindGZGzOxrXBbolCEmKqzHM1ak6BJYFZWGFklDm26WT14eco7WhuqPeTRO7uw8ZrNlpsHZnkm0HDI7UC/YcNpFluH2axJm5fqQ6F0CSoabWoGqPTnPMpiKiYHeagZ+NbMtecxLCIR+ShkNiD+mlMHpAkEtHalzQP0j/7gqVJS6x60xyfW45DrnrrhD7zuKSx8K2sbFRkBnSS0ULSI6C1F3RKCIvkCRH5RlL2lhOrpLi7S8QZA+AAK6+ehpfWL2G//mfX3tJPfOt4lUUGQFs2rSJx554kr/+qx8RCmkZoYRnOth3j9GrZw8CwUCHKJWzycHde/bwwosvsX59FZdeOokJ48cxfPhwhgwa5Aw+W8lzsm//frZu3cbq1WtYtWYtK1es4MDBQyiKguYjhzr7QLEzQJJktGCI6uoannrmWfbu2ccNN1zPrFnTqSivOMnvjn/379m7j/ff+4C35r3N0mUriMdjGWRfPp+n2zYSiQSXX34poy+4wCu3f6J1MvhtHty2N2rUSK66ajIfL/w0o03nAtkkh6xI7N27h9/9/hF27NzJrbfewmWTJmWUwbWPOBUpl63Adff/dMliXnrhFd5+9x2OHj6GGlC9iV1bJqT+8rqqn2AwgG0L9KTFnj172blzF+vWbWDFihXMee0Nhg0byujRo5kwfhwXjBqFqp7G4lwqkkOWZeLxBLNfeZWnnn6GxqZTLyz4v7Msi0DA6VMPHTrM+x8cYu/e/SxZspzp069m2tSrKC8v8+6Tn1TPvtdtIafdn/hVfu5zrK45yNvz3qGhscFTReeSZPUWBSyLSLiEESOGEQikz1vsiwsLkWgkrczjzBX0pwMhBJqm0djQyNPPPMuYMRcxaODA49rQicqSvaji1sf9+/bzp8ef4MWXXqaluZloNJr3OuuWTVEU9KTO5s2bueHaawiUqF5ZC0nhWETrcOucYZgYhs49d3+NBx+4n8rKigzy83SjiNxjS5JEWXkZ99x9FytXrWFd1ToUVcnLApx7bYqiEI/Hefa5F5h46USmT50KHO9b35mRM4LXFBR0KLEQgpKIRGm4OFhoC1wFrcMLyt7A0AltcRTfOw7oVO0xWLktydpdOnuOWBgGREKgKhANSdjWmaXkSfuPOedbs8Ng6z4TLSD5VoDPZZW5WzYZSQZLCJKGACFRHpUZPUBlWO8AE0cEGd0/wLA+aZWzMwn0+ebKNthpErfVs/ntH5yjUNtkYVpOOFSRXcwz3IRqnUxtXkTb4Fd32LZNaUkJ110ziwXzP2Ld+vUeyZBPhasQENI0mltiPP/Ci1w7ayaTLp3kkSRnelw/ysrK6N6tK42NTR0y+fbIF0UhEolQX9/AO+++z7Lln3HBqJEMHjKYgf0HUFFRTigcQgtqCCAej1NXV0dNzUG2b9/Gxk2bOHq0lnA4RCgU8p5VrkNGzwe0Vi/832UrRCORMMeOHuOl2a+yfl0Vy5YvZ9y4sQwZNIQ+fXvTpbKSaDTiTSZM06KxqYGjR45RXb2fbdt38tmKlSxatIgdO3cSjZZ0GLkLaSKgd+9eXHLJmBTJmA55P53y+EmH3r17c9ttt7JixSrqGxqOU6TnAu6zCigBbMlm9959PPnU02zbsZ0ZV09n4oRxjBo5ii5dKs+IcK6vb2DL1q18tmIl8+bNY+myFZimccZK+ux9LctOqZAVgsGS1HcW23fspGrDRjRNo7JrF75+7z3809/971MSTv5+X/JsKuCDDz7k0SefYt++/UQikYw63pYyu/tGo2Esy2Ljps1s2bKFZcuWs3jREiZNHM8l48YybOiQ4+6z35fZLeOJIIRbPy2vr3OPt3PXbh574kmWf7YS0zAJBoMZ15wrSJKEaZqEwyEuuuiiDM/lYl/cuZFtZxXSNFRZRUiSZ9GQS/j7XF3X+XTRIh597HEe/OYDDBwwAHDq94mU6m7bchdswGlDny5axMuvzGbu2/M4fOgIJSk1YUctSCiKQiweZ8mSpdxz19eIlkRT5Xfm7dl9gr+f8xN/xfbWOZF+h0hcftmlPHD/N+jbt0+GlZJ/37bCrc/uccaPG8v1113L/v37aWhoIBQK5XyRxv9+FEKwfecOXnj+JQYPGMigQQOPI7A7cx3OGcEb1SCgklb7ndPk2enDElAWligJdxblZ8chPYhNkVOSjZzyLGpO2Gzco7Nqm8GqHUnW7TFoaBGosiCqyUghp/okDMfOQTeE56V3OueHlFIYgRCwYpvO7iMWQTVtsXGu1c/MzsUhXEzTJm5AaQgG9VAY0jvI2CEqYwZrjO4f8BYcBALbElke2I4Hsd0GGxHHS9ol4mUMQ7B0q05LUqAo7nNs90su4gQQ2IBE1xIFLeCvs0UUCvxKNIBxYy/hjttvZfPWrZiGkbITyKeK17XMEVQfOMjTf36OPv370rd3Hy+BzukSvdn7h0IaAwcMoGrDxnYs+ekhU8kbdGwjbJt166v4bMUqDNPAtixkWXEUzAIMPYlt2wSDwZSyL0iXLpVnPPAtonX4CTB3culXj0NmmL07OQiHwwgh2LpjO+s2bqB7t26MGjmC4SOH06tHb8rKSwhpGsJ2fAaPHjtGdXUN27ZtZ8vWrbS0tBCJRKioqMwoT75V9OnJssQ118xi2NAhGdd5phBCoCoKV06+nPETxvHRx594ystcT2r87S0cCmHbNh9+sIAF8xcyftx4rrjiUi64YBT9+/WjsrKCstIyIuEwgUAANeCQdaahY1gmiUSC+voGGhoaqTlwgE0bN7F4yVLWra+iubmFSCScE5sUP8nkEKlRotEoYFN3rI6mxkYvMuFEZI9bf7P7/UWLl/DIH//E+nXrT5vcPe4cKUVwaWkJtm2zYdMmVq1ZR/9+vbnqqqu49NKJDB0yhH79+tKndx/Ky8vOSsltWRZ79+xl/YaNvDn3Lea+9RaJRNJbIIH8tCHTNCkrLWPCuLEEAmreE3kWkRtktwNFVoiURFB9pFE+IEkSwWCQZNLgiSefprauji/ffDNjLxlDt27d23SMw4ePsG37dlatXsPsV+ewbt06bBui0XDGgmVHQJJlDF1n7fr1vDrndb79rfsJhdqWLyEffqpF5B62baMGAtz65VsYPWoUkDnuOJvoPQA3qem9d32Vzz77jI8Wfux9n2u45ZYkiUg4zOtvvMFFF13Iw999yCN+iwrek6CyRCYakrFMgaxInGvk2dnCtgVlUYmyIsF7QmSvhPgVu0ldsO2AzpKNOh+uTbBhr46EhKIIwsH0fq5iApysnrpxXOLSU0J2nAg8I/w1O3TW7jRoTthURDOVvR2NbGWS+51hOaRqZVRhcJnEmIFBJo3QGD88SP9uKq6uUziSCgSgKKnJoSz7rq5tHtG27Xgku31tfcxm1bYkSUOgpsb/xZqfP7ge1f17KEQ0350v+iAXBPxt3SUFQqEQM66exvsffMiH8xcgyTJKHleV3VOoqoppmrz51ttMnXYVt9/65Qxy93TK4+7nKlki4ShDhgxhw8aNGX19vuEnUVx1pKZpaJoGZA86bYSIHncMd1B4qmvI3qezqwRyCb8aqFu3ShIJnXg8njGW8CN78qFpGsFgkEQiwaqVa1j+2YpU3RMpS14JJIEsySmvawVVVSgrK/MdK73gmU/420pJSZTPXX89/fr2y9h2Jsd0+xhJFfsv1AAAIABJREFUkujVoydfu/NOqtZv5PCRw3kjFdwFf1l2JnkOIW+zbv06VqxcQTCo0adPLwYNHEjfvn2prOxCNBoiFHKI+2Q8TiyeoL6pkep9+9i7bz/79lWTSCQIBgMoiuKptAUiFbF09tflnxi6SKupJWKxGOPHjWPmjBne9tbIRf/k0Z/wbd36Kh754x/5dNFiLxLAf97TLqdzMs+CLBQKEQwGqa1v4JVXX+OV2XPo07sXl4y9mAnjxzNy5HB69uhFaWkJ0WiYsBZGVhRUVUVRFRRZSV2TjWlaGIZBMpkg1hLjWF0dW7Zt5dNPFrF4yTL27ttHSNNSdhES+eDeJEnCsm1CoRCDBw9mwMCBqS1FgrcQ4H8/A8gpm6dNgWCHWOcEAiqGYfLccy+yYsUqrrtmFlMmT6b/gAFESyJOXySrWKaJYZrouk59fQN79+1j9eo1LFj4ERs2bPJsHxxIqYX1joMEBBWVWEucRx9/nKAWZNbMGfTo1o1wJIKqODaBpmmTTCZpbGwkoAaoqChH07SigrcAIBz/R7p170YwpGV8f7bjD/c4kiQxcNBAvvjFL7B7zx527dqdWijNz7hYkmUQgsbmFl5//Q0uGDWSWTNnZNiodObxec4I3oqoQjQkU99keUmtCgm2gNKwTDRSeNd2tsgmdtPkroRlQ2PMYv6aBK8uibN+t44QNrIkIUsCCfmEA0FJQNIQp2X94ZTFISsBLBM+rkpwsM4gFEh52KbIzI5sxDYg+zoSgZtd1ZkElYShe5nCtItDzLgkzJhBKgFFJj1wdT12jx/KntlVuatsMgio2qOzeFOSeFKgBWTfPp2z4+tssAEViX7dVMLpcWCR3y0w+IlegJGjRnDfvfewZMkyknoSORDIez8lSRKqotDQ2MiLL77MBaNGMeaiC71QrTNRmLkDqIqKCsaPG8ebc9/Gtk0kwOqgAVW2CtSP7NX8MyUr/PepkELBcgm3jo0bO454IkHVhirq6xoJBNp2vzwyQJUJEmzz/i46gtx1YVkWqqpy4ejRTJo0AVmWMzxTTxf+eiyEQA0EmDVzBnMnz2Pu229jmiaBQCAv9dF/eOd6ZGTZWdiybZvq6hr27atGCDtlBWB7iV0lnLGJO6507SXC4ZB3PM8TEymnj89/nwzDYOLE8Uy58vIT7uP/zk9WHT12jN/+/ve8+ebbXkK19lAe2xkL/CnllCQhpxTGh48c4d1332Pe2+9gWBbRSJQBA/oxePAg+vfrR1lpKSUlUcKRKNFIBCQJPZkk1tLCkWPHOHjwINu372Db9p00NTWhqgqKohDSNO+55FpE4e9LE/E4AwcMYMb0ael0zYKcnr+IjoGqKgwbMpTlyz+jpSWWt3dotu93IKCyffsONm/ewiN/+BP9+/dj2PBhdOvaFU3TiMXiNDQ0cOjgQXbt3sPRY8dQVWchyk2ie7bKyHaHIqNIUFNzgH/8x3/m9TfnMvPqaQwePJiSkhIEglhzC4cOH6ZqwyZGjhzBl266kUHeokoRnR1CSrEJrsKonZD97vvaV+5g/foNbN/+mDf+znkbsG2H4JUkIqEQS5ct46WXX2HSpImUl5UdV9Zzok2eJnKn4I1CRINjjTk8SQdCAKoqp0i2Ily4hKqjmrW9QTgIdAM+Wh/n9WVx1u5I0hgTyDLIspLVd6RtBDIalYCEZbeZ4LXt7MYp2Fyj88mGJLVNNmHNUSPIJ/GizQec8pFKspFS8SGBkAgHYXifIDPHaUy9KMTA7iq+hKb4M7e6OBsPpExlifNZ22zxSVWChO54IUspyxUbuThkzjFs1yvZBlRB/+4qkVS9LRK7hQd/+7MsC0VRuOLyy7j2mpm898GH6LqeNwLGD3fAtfDjT/jww/lcMGI4ajCYscJ9umUSQlBaWsIVl12KqigkEpaTObqDB1LZ5z/RdbX2/YnK3lpiCn8oWEdf87kMV9EeCASYMuVKhG3z4fwFBAKlwMmfg7vNT/i1Bdn2SB0FwzCorKzgttu/TI/uTujv2YS6t6ZULy8v4+GHv82GTRtYv76KQGoRybZt58pzXDdbe0b+xZZThdef6Nnmo13576Vt2wwYMJDJkydTUVGZMYHNLkv2BLelpZmf/OQ/eeutdzyCtL1sJbzleN99hsyESratQkAQFM54ct++/ezfX40kybhZL3x0uaO2wH0+ADaWDeFwqNXJee4XC9LK6mQyyeAhg/nCjZ/P2qsoSCgE+N+hiiIzdOgQwqEwTU3NQH4SrfnrsyRJXgJBVVURtmB/dQ01Bw55c19HgJNuM5FIxOu3sqMBzpWxgLBdv3FnvLlq1WrWrlmblQtEQtg2zU3N/OCH3yMSOT6yqYgi/MhW8QohiEQj3HD9taxevZp166vQtDzkPPCNhZzIrSAff/wpf/nLCzz07Qcz3t2dFTniXgV9ugWoiCrsPmSdevdOCtNMZ7QvwoEXAmi7CgtnwHikQfDqohbmLo+z/5iNaQpkxQmN9AhDzxu2dRsBGzB0EG2sUo7fbJoIMyxYulnnUJ2Nokgps/icz19OCVl2Es8hbCzbKW2XUpmLBweZeqHGhBEa3UslomEZ92ocNYs78UkrlN0B7Jl3ijKyBLawkXBI8S37DT6pSqIbAkVJT3rPjWFIYcNVj1kCgji+y5FQkdotVGQTMAA9enTnuw99mzXr17Nzx85MAiYPnZd7HkV2suq+9PJsLhkzhukzrgbS2cnP5LiKojBg4AD69+/Htu07PNLjXJronKgcp1M+P2Fl2zaVlRUEgkEOHzrS4eGYnQWKojB92lSOHD7Ce+9/4EzkOflzOJtQwo6CS1C4CzyjRo5i1tXT0TStXbxEWwuTHDf2Eu6441aam5qprqlBS6kvIfekw8kWVM6GmM+X1YR7Xssy+dJNNzLtqitb3cdfRkhfWzyR4Hd/fJS5b79Fc0sLmutX284Ty5PdZ6cPyiSaHCsTK0v1DSAySGIvuZqcGX3XEX24aZp069qVSRPG069f36L3boFDUQNcMGoUkUgEwzC8JE35xHF9jpzuD7Lh7pftc93Rnrsng9u+hSVIGknfok46VD+RTFJZXkFZWUmHlrWIXKF9x6jZUWwAM2dMY0NVFRtTdm2Kkvv2kB5nQDAYoLqmhjffepvLLr2U8ePHprZJnfY90u53zwnFgYsGqvTtppDQ0zHjnZcHPx4SYFtgikK6qjOHbdtgp1S7gJAkJEmQMASfVCX55ZxGXvykhV2HLCzbJqBKqLKP3D0BqetvVjJQHpUzFKwnK4/bd0gp9e6GXTrvrUrQ0GITVN0X8llddjtBBltgmBKyBJePDPHj28r421tL+fylYQb1UImGFSdMMaUUESJzwO4ODs7mepz7ZSNc710Japsslm7ROdpoIZFK2taJV7Q6HxxVtyxBZanM0D4BZCndzxZZ9sJDNgEDMGHiBK6dNZMuXbpgGIa3X77K434GgwHWV1Ux7913OXasNoOIgbavdvvLHomEmTBhHJFICNM0j9teSLAsi7KyUiaMH89Fo0en23ERJ4cQBINBevTowZSrrmT0haMxTLMgnTVd0kzXdSorK/jqnXfQt5/jvevaVbRH+3AV5M45Ze6/7z5mXH01iqIel0Qsnzib83VEv+Heq+EjRnDtNdfQvXv3jG0n6hMdtWmCOXNe49ln/8KRI0cJBtLJyMgx4XOiqAR3m6qqqKpKMBj0/kIhjVAohKYFvQSTbvJPh5O2T3r8XMF9Bi2xGBMnTuCGG67P2H6ukmdFnDmEEMiSxJiLLqRX716A3w87f/DXq9baj//PrYfZfUJb6mb2b3KtLPSXU5Ikx+IoGCQUChEOhwiHnQSWWjCIrMp06dKVkBbKa7K7IjovMu3KBMGgxsxZM7hyymRs28p5/faXw+03VFVl9arVPPPssximeZy6vrMhBwQvCCER0RQmDAkysLuCbqU6vU54g04GyxZFrsuPVG0SkoQsSdQ22jz1XjM/f7WRd1fEOFJvE1QlAkr2YPDkalAJcC28ulfIBNSTvzzSNhEyIrVr0hDMWRZje42RegGlG3ZHwLFhcLIctyRs4obg4sEBvn9TKX91Syk3TIjQp2uAUNBJAucmRhG0Ruy2W6nS/0zduNU7DOZ9FnOSZHji3eJAOZ+whbMgcmH/AN1KXSVg6tkX+5+ChNuuXZJFVRW+cd+9jBg+nGQymffy+PtJRVF47Y03eWX2K8CZZb31T8TC4TBf+MKNlJaWkkwmPQVvZxxQtQY/Wd/U1MRVU6bwxRs/T3lZWadVBuQbAmchwBY2M2dM5/prZmGZJiLl11QodcWtD4ZhEAwGmTRhAjd+7gYCAdXb1h5to7VIgYqKCr754P1MmzqFWCx2dhdynkAIgWlZSBJ85fbbmDz5cu97ODWxqKoq3bp2Rbbxkv9Bx9Xnk5XVJaudP1fF1/bf5xq2bdO1SxdmzZrBpIkTgDTxWyj9QxEO/ItTFZUVTJo4nq7dunoLxB1ZrvbcL9fHON1zZPYBzp9lC4RtU1FRDhTOu7iI3CKjbqUsf8aNHcvtt91KSUlp3uqR/x2taRrNLS28/+EC5sx53Sma5ER7+62YOgvatYdwn5frOzNmSJAR/YLEkk4ond3KylVnhmmDVTiXc8bI9GB0yN2jTRbPL4zx/MIWNu8zEQICaiaxe1p+jTgNrXuZSvAkBK9tO5VaToXJKJKMLQSfbkiyeEMS03LK4Z4/nwPSDJJEkjFSFh9DeyvcflWE732xlDunRRnZLwCAJdJq3bRtRW7CDzPD6SQkWWL3YZN3V8XZe9RCkl0ldBH5gltfTAsUGS4aHCAUzNxuFx9JwcLtLtyJzOjRF3DDDdfRq1dPkslkhsou1/ArdTVNY8+efbw971127tzlfX8mx3PVHpdfOomRI0ag+bJhF4riKk2i2ZSVlXPD9ddx+RWXY1oWdpHgbSMkIuEIEgJFlpk5YzpjxlxEPBHPSPTX2eG2o3g8zuDBg/jmA/fTpWsXIDN7dXsRBO49cz8vuXgM33rwAcaNHUtLS4u3byHc2/aE9242LSzT5Etf+iI33/RFopEI/rwIJ7tvQggUReWqaVfxV3/9Q4YPG46u61nKpnPnvvs9Q91Jb0fDv3iWTOjMuHoan7vuOu87KKp3CxHZ7eK6a6+lb58+NDU1F+QCsbsgbpompmlmEK35ROt9gCASiVISjQCZ7a6IIk4FWZaRkbBSdXnqlClcf9016IaRWvTM/XvQ/x7RNI2DBw/yp8ceZ5dvftMZ+5N2bYHehDT1OaJPgFEDggRkCeG4jBZMo5clsARYhWsx3CZkkruOR+yeQyZPv9/MS582c6TB/v/svXeYHMeZp/lGZJZtb9DwHoQlDAkQhjAEQBKGBA1Igt7IcCgzMiM3OzO7M6e55+Zmd8fcs3e7+2hGI428l4aUKEMjUfQUJYreG9DBNFz7spkR90dmVmUVGiABdJluxCtB3erqroyMiIyK+MUXv4+muEQGUbucYCKeoE/hbfJ0tgaRbcd62Dy7B6UUUghA88ybOf797iEO9ClAl0UPV4egfrwIdxjIKhIxwYYlMT52cTOfurSZNfPjfsSuLojTZfm8KxI8G25DLys15F3N3U+kefi5DDFbIIPkGmPKaKW+CfqLADqbLM6eE6chLo+yLTGMbcJC7pVX7GTFiuW4rnvC/pQjVRbwoimffOpZvv7Nb5PPe1EzYZuG9zO+hqNw2tra2LZ9G10TugoRyqNxQlVOiQCRzbN1ywVsWL+OjvY2otFIELhgOA7e5i4kG5JYlrf5uXrVSq668gpisUThdMtonluG+0kmm6Wjo51LLt7G+edvKvw8+L2Rvs/wZgvAlgsv4GMfvY3Zs2cxNDR0VKTv6U5QH47joJTLkiWL+dSffpxZs2YC+Hknjp0ILxAcg3E9EYtz80038KlPf5y5c70TGq7rjqmNi0pQnFNr0uk0Z8ybxa5dVzLnjDklG5+m/sY+q1evZOmSJSQSyTG1QRy+F8dxaGlpoaOjo26srILHrK2tlXjCE3iNPYPhRFBKoSj2m2nTpnL9ddcwcfyEwmdktbx4lVLYtk0+l+OpJ5/iu9//AX19/QRJEutx4/V4jHAEb8iLRmuiEcE5Z0SYO8Umly9WymipnOMhAMcBR53eK7RScVdzqM/l/7mjj2/9ZoieAU08KkL+3IoTDTkUsqjwWramo9ETkYfrQUoFGdMCD1lBd6/iF4+n+d0rWYQA26pecqJwuQKxznUVSmsmtEouX5Xkz69qZsfKJB3NElUWsevZOEgqJeyGy1YUd70L3f1Emjt/l6Y3pbCk14bKZCGuGsEYmXcU0Yhg7aIY86bYeA1x4hHwhtFHuH2DBeuM6dPYcdE2pk2bzuDQUNWjVYJJWDQa5fDhQ/zqrrv43e9+V/La++2X5T7D27duYe7cubhudSZ1lSYsQLiuy5QpU/jATTcyefIk0pksiUQSbTbM3ht/VzQRj2PZXnKaxqYmLrl4OxddtBXlulWL9KgE4X7i5TAQXHzRdm666SaAErFqpCn3+w6eu8suu4TPfPpTTJ02lWwuh+u6RmykVNzNOw4LFi7g85/9DAsXLQKCOnzvNiuvc4AP3nwzn/n0p1iyeAlaa3L5/JgYBytBeN6az+dpaWnl1g9+gE2bNta6aIYqEBZatNbYls0VOy9j+dnLGBwcPOGcAPWOUppcLsvaNWu4/LJLaWqq3hH246G1RgtBR3s7iUS81sUxjFb8OV7wWbhs2RKuv/5aItEouVwOqM6zHMzD4vE4Gvj6N77FI48+BnjWdCdz+ryWjHgpvSySqhCZsnBqlM1L43gxvCe2AKx3XGPRUBAGAfqGXL7xm0EefzlH3tHYlvAFiECTOnGhUiB931loSVqeYAx+IGnY3N7vV8pL8iaERCnNA89m+O3TGWIRPKGy2oTE3byriEYki6bafGJHMx+5qIlp42z8GCX/mfHqSPo+E4XvK1K0UPR1SNx97q0ctz+a4tV9DtFIMRGe8QOoAqoY5a41uEowpcNm2zkJEn7fL/dhNoxdhotEuWTHJWw6bz2u49QkWiWYhMXjcd588y2+9q1v09vbA5zkUSZ/rjB92lR2XLSdqVMmkclk8A9gjEoJNCza5fN5mhqbuPGGa1mxcgXgeSon4/FhfSwNpQQH3pMNDdh+hlUNzJkzh098/KPMnDkDpdxRKUKGN5tdf6Nm1coVXHP1LmbOmFH4vZFMrlZO+H0DwbGxoYErr7icz/7Zp5g+bSr5fFHkDcp9OhFe2DmO19cWLpjPbR/+EJdesoOIbZcI5O/VVqWvF7N0X3ft1fzVX36BNatXk0wmj7LiOd3qfTjCY6vjOCSTDVx/7dVcesklNDY0FOqrks+MofaUt+uFF2xmywWbiccT5EObI6P1mSmNUE8xZcoULt+5gw/cciPnrFheGBuC360VQms62tuJx4zAazhxwp+XhRN9rW184OYbmDVjeslYXu1gloOHDvGd736Pl156ufAzqG3+phNhxD/5lFJo5YlySik6miVbz04wZ7JdeD38dTTjKo0z+m/jpAmaUAiJqzRPvJbnp4+l6R1SBWHQ+5A6NZFSKS+KcWK7jVWcEyNLMkwVvxe+kPuHV7Pc/miafT2qkJitWtG7hf7tC3WOq4lFBOvPjPGFXa1ctT5JR7MFCJTShWhdKVWhXitVSk9wL43cDTKovfROlq/dk+LJ1/NELO3bXIBSlYsiNoSQIH0hPecqJrRZXHxOnOWzveza2s82OBbGT8P7IxztpZSXzGLr1gtZtmwpuVyu6pP8YJJjWRapVIpHH36Ee+/9DVqVZrB+r0lQYVLn/wfgxhuvY8OGdeAnL0J44+Bo6+/S8xHCdV0sy2Lt2jVcd+01tLW2AhCNRYknE0bgPQ6FKEjtbYAmEwlsfwKg/Ijds5Yt5U8//lE6O8aRzeZG1aK+sIDHO/HmOg5Tp0zhwx/6AJs2ngdw1OKmkmWBYgSL1prm5mZuvukGvvD5zzJ9xoyCP+xoPKp4qoTvN5/PMWf2LD75px/n5ptvQIiTa6fiuK4Kfy+E4KLt2/jHf/ivXLnzMmKxWMFz83Ss94DwujEs7iYScTZt3shnP/MppkyZAnBa19PpRLhtvWdHcvnOy7n4om04jlsyVo2mflA+FjuOi2XZfPADt3DxRRezcMECLt1xMQJRYuVSK7TWtLa2EY/HalYGw+gmvFYonFacMYMbrr+OiRMmkMl4UbzV2rATQhSev7vuvod7f/0bcrlcYX0TTrpWz1QkgtcT9IpvPXWczXlnxj1bA1XMAF/vlXM8hPSSH43iWzglvIjZ4s1n8opX9jiksgpbEhJ3T72LKQ0RSzChrVRkVCq8oyPROhAYBG/sy/Gjh1I8uzuLZQW+aFWgLAJTK0066xKz4eZNDXz+imaWzYr6i4KwAO5ZS3gRvJUZwAJhN7hO2JZBa80jL2T4u+/18+un0zhK45+GBSoXRWwo4o0lXpZApTSuCwunR9ixOln4HW/srK7FiKG2hCc1wQRj29YtXLPrKnI5pyYLGeWLuV5Cgm6+9OWvsv/AgZIyBmV/r/cBb5wESCaS3HzTDaw/bx2Dg0Po0bRIK1twKl+knnvGHL7wuc8wY/r0wuuxSJR4NFq1JHmjlUJf0opkMon0I3i9zS5NNBrlyisu5+ZbbqS9va0Q1VTv/SUsVGnl4ubztLa28ok//RhX7LwMOFo0rOSYHxbEwpE0sWiMXVdeyd998YssXLiAbCZTEBWK8/ixL6QppXAch8HBQZYuWcpf/sWfc/WuK7GkddLtFPxeuScvwPx5c/nr//xX/P3f/V9MGD+enG+TEViRnE6f/+E6Deopl8sRiUbZtnUbf/s3/4WJEyeW/O5oO0prOHHKTx0ALJg/jw9+4CbOPmtpIYp3NHweBIT7enD6JxKx+U9//jk+dMvNxGOeiLpq1Uo2b94EfuK18N/Xgo6OdhLJROH/m3mN4UQY7hSREILrrr2GxYsXI4Uu6duV7ufB+sa2bZxcnq9/69s89PAjQDD3HB3aX8U+/cK7040JwZYVCVbOi2FbnnihATma/Tz9JGvqNPXg9aKqiu2XzsLzb+VxVVEMHKnJVSDwTmyVxR0UitcRQiKEKvw8k1f88MEU9z6V9iN9BYIqee9Kz8ogEHddpZk/LcKndzZz3aZGJnX4R0y1RmsVWiBVYzLqXc8TdYvibtZR/OL3af7HHQM8+UYOx/Eid7UIBPQKF8sABBsmXt/J5hXzJ9tcvDLOpHbbO6bst4Npj9OPQMQNvo9EImzatJF168+F0OSnWgvawoLbslBa8+KLL/LDH/yI/v6BkizL7zURG25Hfu2553L9tdcz94w55B139CwW/EVkUN5sNsv8+fP4m7/+K8466yyAgkATiURIxJOFyGXD8dEIEskEEV/gheIisqWllQ/dcjNX7LyMpsYmcrk8MDrEHa01ytW0t7bxhc99jmuv2YVtR6oq7gYEz2JYJNNak0jE2bb9Qv773//fbN26BcvyPGiDOdcoqOYTJiwaBR7aQgiu3nUV/+ff/g07Lr6YSOTU2yl87FTizW+Vf92urnFcd+0u/vEf/iuX7LiYWCzmndhQpWUbNePjSRLecADIZDI0tzRzw3XX8Oef/wyz/eR2JZZjxprhtCEsDAFs3LCB2/7kVubMnu0nQhydz0gul6OpsZGPffQ2PvyhWxjXNa7w2ty5Z/DJT3yMCRPGA8V7r3afDz4j2traSMQ9gdckWTOcCuHxvr29jeuu3cXs2bPIZDJV6+eFgBopsaMRXnn5FW6//ae8/fY7ofVN/Y8pFaylYFcaQLBgSpQPXtjA3MkRlAblqlGdr8lCMJhSDKRLG/l0EV88bbfov3t4QPHSu3my+ZE/LqIVRGzNhHYbS5Zmx/X6mJeYTAgvdPirdw3xk0fTZLIQtSRaUZVFUhBJbAnIOxotYNX8OJ+8pJld65OMa7HAT6QmQlHsQdR7JctVEtmgAS0K4u5/PJLmq3cP8PTuLJakYK8hq1A2g0cxCt0Tdye2WVyxtoGNZ/q+VlqjMQuX05VwmwcT6DMXL+KGa64hFonVbBEjANu2yWSzfPmrX+O5558vvPZ+rSPKBSWAyy69mI/c9mHGd43zI1RGRxRO0DapVIozFy3k85/5M7Zt3Vo4xh1EnlqWRSwZH5ULz2rjfbZrGpJJpJAlk/ygP0yePIlPfPxj7NixnUQ8QTqdLvx9vfWZcJRsLpdj/MTxfPozn+KWm28oJM+ptrh7vDJqrYlEomzYsI4v/h9/zUdu+xMmjO+if3CoIHyWiyz1VufvRfh4aPCcSilxXZfBwUHa29u57dYP81d/+Z/YtHEDsVi0MOaeajsVhHX8eZq/Maa1JplMctH2bfzVX/45f/2f/5IV56wg6+RJpTOFawdjzmit+3LK2wKKz3pfXx8zps/gEx/7KH/26U8yf/68wt+Mhs8Hw8gSbvNgQ1laFjsvv4wvfP6z3iZxPo9SCsvyjiTWy3My3PUty8J1XVKpFOO7uvj4xz/Kxz5yG+O7xhf+JhhzzztvPbd+6AM0NTeTyWQK71HtKYUGz4M3Hq3uhQ1jjvDzHDynWy68gLVrzyWRSFT1mVVKEWxVWJbFHXf+nJ/+7M5hf6/WY8mxsN/7V04OKUsFOCEkq+bFuH5jI//fT/vp7vGOpo/WzR7LEhzocznYH/J+BT8r9mkgwBQ+VD1R6s39eXoHvOgkwcgKqgqI2pLOZokUxfcsTKy9UFSyecVPHknx9V8P0jugaGqQuG5QjsqLu8GGxlBW0ZwUbDkrwY2bGpk/LQIEiR9C5aa6EXdhSwaAPYcd7nwszR2/S/PWAZdEVCKlKLadERKrQrjv5B1Fa6Pk8nOTXLYmSSJW3MCo5YLfUB8E4oNSCltanLdhHeedt55f3XVPYRFTzT5S6Luuy+tvvMYPf/RjZkyfxqRJk4D3F81RPqme6WEZAAAgAElEQVQLkjzddMMNpIbS/Mu/fYV9e/d5R/Tr8BkIyiOEIJ/Pk887nHPOCj77Z5/i4ou2A8XJarg+PM86I/C+Nxo0JBMNJT8tj9ibPXsWX/jcZ2lvb+d73/sh+7u7aWhoOMp+oBaEr21ZFtlsFsdxWLJ4MX/yJx/iuquvJhaPlQj+tVo0lNdXuByLFi7gM5/+JAvmz+fHP7md+x94gL6+PpLJJJFIpCblPVXCbRNE5wTCbjyR4OLt29ixYzuX7thBW3s7EPi8enZgI9WvjlXvQggWLljA/LlzOWvpMn5591386ld38exz3mZaIpEYtXU/HMO1RSqVIpFMsn3bVm64/hq2bdlCY1MTYGwZTndKouD97+PxGFfvuoqGhiT/9pV/5/4HHyKTydDQ0FD4DK63uYRSmlRqEMuyWbXyHD74gVvYcfF2Wlpa/NdLN8IjdoRbbr6ZwYEUX/7KVzhy5Ih/fwCqSqdCAa1pb28lHk++9+8aDO+Dol4haGxs5PrrruHZZ5/jkUcfo62tjSAfSaVtq4JrRCIR9u/bx+0/u5PlZ5/NmjWrAEo2eOuRigm8AUFkmhftKblgWZw39uX50UMpegYVyZjE9Y8njRZdVGuwLejucTnY4y9M8Y2XxSi5iVMm8IyFVFbz9iHPB8jy168j+eAJwHUVqVx5tHTwgGsO9rvc8WiK//WzATI5TWOJuFtZgnK4SuE6MK5FsnV5gg9c0MiUzrAlg0RKXbUPXuV7uoYHSyG85IAvvJ3jJ4+kuOuJNH1+UrwgcqReJjynC4G4q/EWjZuXxLn83Aaak0bcNRQpj3IFmD5jOtdfdy1/eOKPHDx4qOoR3mHRKh5L8NOf3cmK5Wdzw/XXAaUi1fHKNZy40dzczIc/9AGUUnz/Bz/mtddfx7ItYiHv2kDwrgXho8BKazKpFA0NSdavXcvHP/ZRtm69oFDGYCIYTEwtyyIeT4AWhD3RzfM9PBpIJL3TDGFBvdwzdvZsL/lVQ2OSb3/7+7z99tvEYjEsyyqJMq1Wnwn3kWCDN50eorGxkfM2rOfGm67nqp07C+WqdeRumHK7hqC+29vbuf66a1i0YD7fmT2Lhx95hBdfepnBwUFisTiWVToG1cO9DEf5UX7h+1mmMmkSsQRLFi9mw4Z1XHfN1Zx9tmexogChFKKCguJwNhlCCKRlsXrNSpYuW8KSxYv55a9+xfPPv8Dru9+gf2CAaCRCNBrFkrJk26he67+c8nK6rksu5yXXWTB/ARvWr+XmG69n2VnLgOET242G+zRUhvBzE2zAXLLjYlpampk0YSJ3//peDhw4iGVZRKPRkpMH1XpGwhu94c+jbDYLwPTp01i39lyu3nUVF5y/ueTvhhuP29ta+chtH8bVDt/69nfp3t/tjQGW5W9AVebeCuXwCkdbWzu2bZWcUjIYTobygA8hBKtXreKCC87nxZdeJp/PY9t2VZ7X8DWampp45qmn+fo3v8WZixbS1Nz0vmzoaklFBd5wpKLSngDaEBfcsKmRvUcUd/8xTc5R2LYnFio1Go6DB8fwBT1DigP9nrDp7wmOmsnUqVPs1DlHc7BPobQAOfIDuyUhlYNndufYvDTuRZr6UbsA3T2Kr94zyHd+O4TWmoZY9cVdrcFV0NIo2bW+kZs2N9DWKL3kQQWvluJmRyV3M0qF3bC4K0hnFY++mOWbvx3iyddyKAWxiOUlxeN06bv1Q3n0yVmzYly9IcnUTtubJGkIxpVRswNmqBjhSb7ruliWxblr1nDhBRfwve//gHw+TzQarUkUr2VZdHcf4I6f/pyzli1j4cIFwNGLk/ciHKXc3t7O5z/3WaZOncy//OtXeO6550mn00QiEWy7dPpS6Xsuf3/LF3aDZC6TJk5i0+YNfOKjH+XMxWcW7uVYWa5jsShSCrQuRhSNViohmoZFfBAkk8NHCIUjHbXWTJw4gT/7xCcZP248X//GN3np5VfI5XLYtn1Un6kU5eJhYMcgpWTChPFs3XohH73tNhafuajwer0cHT4eQR0LIVi6bClLly3lN/fdxze/9R2eeupp9u3bTyqdRkpJNBo9asOp1vNjVZYjIhhnHMchm83S2NjInNmzWbr4TK695upCBD74/VBr3w+/uoJiMBfQwvNEvvKKy7n8sh3cc+9vuOOnP+Ppp59h79599PT2oZRbGB+rveF3Ihw1nvqnT5RS/vMaYfLkSSyYP5/rr7uWSy/ZQTTqRSoP97zU632+X0pFseoLZLrsu1punp4o4Tl0ePwUQrBh/XqWLlnKGV+dwx0/vZM3dr9Jf39fIYlSJcWi8j4ezk3gOA6O42BZFuPGdTJv3jyu3Hk5V125k+bmZuBoL/Dweyrt5Urp6hrHFz73WVqamvnu93/IG7t3k8lkiEajR93bqY6/4c81IQSWECAt2traRuT9K0FBdKb69hUjTTWE86Of+9pUmvSvHJRn56WX8PLLL/Ojn9xOU2Nj1canoE/bts3g4CAPPvgQd/zsTq6//lovV1EdbcqXU/HZbqkarxAIulolN21uJJVVPPBsBlcpLOGJu/VYSWGU8hJ6aSGxpaZvUJHJKaIR4fvs1bqE1SO41Vzei2TWQlMJ32lLQianeeK1HPc/m2HDwjjJhFfXu7sdfvDAEN9/IIUQELGkFxRVhXYIW5DkXGhrkOxckyyKu1p5kd1433tCXWUnokdH7QaWDJq+lMsvHs/wzd8M8vYBh0hEYFuicKQHNXqi6McCJZHfrmBql8UtFzawYJrvZaVLNwbqeFisHEFSxSotNApJHIWknpc24clNe3sbt37oFu6//37eencPUaq72A2uJaUknkjwwIMP8su77mb+wvmFCdCJfK6H783zq5Vcd911zJw5i6/8+9d4+KFHOHT4CKlUmkikKGJUQkgKv09YrFNK4zheMq/m5mbOmDOHm268np2XX0ZLS/NRE/GwCBkQjUSJx+OFn1d28l6h3uwvWCtBOLLStixifgbxcD2VRzUFNDQ28KEPfoCzli3jf3/pSzz88KMcOHiATMbFtq3CAjXMqfSZ8r8NR2s7josQmtbWFubPm8dNN93Ajou20dLSWrifcq/RepkDh8sRjj4Lbxpv3rSJNavX8Mijj/KDH/yEPzzxew4cOkw6lSKbzRYWR+GotXIqGWVWej/F+vYSMCksy6apsZFJkyexbvUadl19JeeuXl3ICl+eyKwabVTel5RSaDRCC5T26t6ybLZt3cK2rVt45tnnuPPOn3Pvr3/Du3v2kEqlSaVSOK6LFar/Yz2rtehz4ehJpTxvUYQgEY8zblwni+YvYOcVl3HpJTto8u0Ywh7JwXtUquwSqughKJAyaJ/aPPte4moZKkcVrhlcZwQuN9wpoEB8aWlp5rOf+TTbtl7ID39yO3ffdQ979u5lcHCQVCpVOOEx0hsihTmD0mi8Mcd1XaQlaUgmaWlpYdbMWVy0fSuX7riYKVOnFP72uJ9zgaaCV4cNySSf+bNPsXz52Xz5X7/C40/8gZ6evsK9vdf4e6L3E9RtJpOhqbmZhrLN1+NdR+AlPQ+fvKkkwbgnhaje4zzShDYlK70BXP45IWowHhXuM9Q/Fi5ayCUXX8yDDz5M/8BAwVO7GmUB73lsaGjg3T17+dZ3vsfKlcuZe8bcupuzhalOOANF8RY0QkiWzIxwzYYG+oY0z+zOoWWQ2KA6JTpZvPuQoL0Int6UYs8hxexJ1els9YKg+OxlHcGhARdUZZaRQkq0Ury+1+GfftzPwV7FoukR9vU43P1Elgeey+C6GtsKGe1XuCOFI3cdV9CcEGxfnuDGzY20NQbiROmAXOm+Pawlg//akQHFN+4d5M7fp9l3RBGxvMQ1guCIwWkqINaIkv6jBF1tkus3NbBmQQxbUtgcQEqkGt0JKU+FQEyrZrbwIDpW6fqNpCu3KFiwYCGXXXoJ3/7O9+jp7SUarVHCC60ZGhri5z//FcsWL+b8CzYXxMv3My6XL8zC49ia1auYP38u9933AP/+jW/yxB+ewFUOrlvMcl+YzI/QYFac3OFv0oHSGksK4vEEEydNZNdVV3DVFZcza8Ys7EhxHhC2ZQjeK9yHbdsmHo+RSmWOst4YKQpCIzp86GaEUOA/m5VadEgpQQjiyTiWHH52UWzr4jzT6wOC5cvP4h/+299zx+138u3vfZeXXn6ZTCZX+J3w359Knyn0E4rRnUGEVbIhwbQpU7hi5+Xs3Hk5c2bPKtnACPf1el0ohOcxxc0IjdbeojmRiLN543msXr2aF194kbvuvZd7772XV199HcfJo5QuqfPgPYf7/nicSP0Uf8/7DAnQfrvEolGi8RizZ85k03kb2X7RdubOnU1zc3Nh3jScyHIi5T1Vwn1TKYWQwjsVVsaSxWcyb+4Z3HzjDTz5zFPcf/9DPPLoY7z99jt+kqnic1rcxCx+PdH7Odl6KI9GDKLzbdsmakcY1zWOVatXcvlll7DqnJW0tbVgWUcvU8MbYhVpCw2uUmhXoat05Nx1PVsKXaN5h1JBEi8FuFW6pkJrxTBd+qQpF0PDGwILFy7kL2bP4ZpdV/CLX9zDvb/+Nc+/+AKZVBr8tWMwlwhT/swMR9BFytuv2E89eynLthg/YQIb1q1l+7YtnLPiHFpamkr6efl8t3yjebhNTS9aeR3z583lgYcf5off/zGPPvYY2VzuqGf/fd2XbxsXvofi955lTHNTEwvmLyDZWCrwHm+c1mi0dv2+PvJJ2Y+F67p1fTrmuPjjd1Bn1Yrk1Ur58xmvzatN0DeC04rr1q1l11VX8G9f/Xoh+r36aJ577nm+8m9f57/89V/S1NhYNd3pRKmKwBuOzPVUec+Pd8OZcfpTit5BxRv7c8SjFkLUrxoeIGTRh7d3ULP3iFMi8J5uh6kFQYK5kceLePWjX7ViX4/Lv/5qkFhE4ziCgYzCcTWRiBzx5G7HKVVBnMs7ilhEsHFJnFu3NdHV6on/SpcmgKk0xecrHLnrvfbM7izf/m2Kh57N0J9RxCLF6KV6f9bGHP7gIP0xJOsomhOSS1cnuPScJPFI0auxsOj3HMpPO9x8nnQqRXpwgGw242/0VHZiI6RAComTHWQolSbvewDWE+WRqkII4vEYH/nIrdz/0MO8tft1IvEGLyKqFgi479d3M33GVFasWkFTQ+MJRR6Ui13haMG21jZv8b9qJb///R+4/fY7uP/BB+nuPohtW0QikUJ05khFIXmLIxfHccnnckSjMZYuX8ZVO3ey5YLzmTR5MsmyaL9wBGdwT8HroXdGSkkmk8ayvNMdIzqH9ufkyvU8f3NODuU4ofs6tQA1x3GBPJlMBqX1iE//NSAF5PMOtmUXRLpjt2sxsUy4z7S3t3PjTddx4Zbz+e39D/DVf/8af3jiCVxXE41GCtFbp9pfggVR3nXJZjLEEwmWLz+bnZdfxpYtFzJ50sRCxHY9R+0ei3D0FlCYq3v9SCCkpCGZYMWKs1m0aCG33HQjL774Ir+9/wEeePAhnnvueVKplH90OIJl6ROu95MRFJXSuMrFyefJ5/Mkkw3MnTeH8zas5/zzN7No0QJamlsLz3Dwd9WO2n0vSk9DFssX9PNYLMaUqVOYNHkSmzZuor+vl1defZ0HHniQBx58iKeeeYaBgcFCRJ93fFucVN8/mXrQWqP8Z8RxHPJ5B60VkydP4dw1K9m8aROrVp7D5KmTaUw2lIyZ5ZtklWiLcHvncjlSQyn6+vvQ/im4Ss89LMsinxlgcHCIbKb6845sJk1/fz9DQynfLqOy9xskdFZakUmlcPPOe//R+37voq2Zl8eiKPLGYlHmz5vPjOkzufGGa3nrzbf47QMP8Mijj/Hk08/Q3d2N1hrbskoie8MbyFC6yRD0Ua1VYTPLdV1fVISurg7OXLSI1atXce7q1SxYMJ+W5iaampoLn/nh9yrfGD7W/Q0n8nZ1dXHl5ZezYd06Xn/1de79zW+4595f88xzz5NOpbEjNrZlIS0LSxZPyZSPAd7GsAJF4V4c10UAE8ZPYO3aNWzftpXVq1cxa+b0kjo53rOZy+UYHEzR29eHLtxD5fuak00zNDRU8PWud8KtMZRO42SH6OmRuNrbWK8kUnp+9LFYnEw2WzXLy9IylG6oaq2YOHECl+y4iDt//kteee21wu9WemwOI4Sgv+cw3/jOd1i9ZiUXbd9GLBajGqL7iSJ0FUtVumDzPjTTWcX3fjvIl+8eIp31ogLqfaIb7GVk8orJ7TYf2tLIted5GZ5Pl2hIrRQKL4p57+E8f/vdfv7wctaLWhnhmw+LvFpD3lXBCRUitv/wV6new5GXeUcRjwq2nJ3gk5c2MaHNIpxVWXkFr4o4F75m4E+cyWnueTLNjx9K8ezbOXI5sK369Ys5HfCCrL0NrqD/bD8nwSd2NNHVah0l7p5ubRT+QHddhz179vH2O+8QsW1vZ23kwxBL0YCU5LNZOjo7OWPOHGzbqnrk1vshHFEXTM6ff+FFenp6iEajNYsEEkKSTqfp6uxk7rx5BEc+T6Y/ly9iwveqlGLvvv28++67/PGPT/K7x3/Ps88+x+tv7CaVGsKORLCkxLI8IcOyrKMWaFC6sFLKi5JwtUI5DnlfEB0/vouli5eweuUKlq9YzhmzZzNx8qTC0cTyxdmx7jXcj15//Q1+8MMf09ffhy0lCjHCQRIaSTEJxLJly9i65UJaWppPqT8H0RRPPf0M//0f/onm5mZvgVYBhVfibZZ2dHTw51/4HG1trYUIq+PVb5hwm2ezWd5++x2ef+FFfvf44zz26GM89cyzDA0N+YKXhW1bR4m+5RG3XjSNRikHx3FxHM+HubOjg6VLFrN69WrOOWcFZ5wxm8mTJpJMNhT+Pvhai4jQkSRc9uGez4DDhw9x+EgPe97dx8uvvMQzzz7PCy++yKuvvs7Bgwf8YAkLaYWeVSEQx3hegaOElWBDSGuN4yp/Q8ZBCklX1zhmzprOmQsWsXTpEubPn8eECRPoaGujc1xnSVmPFR1Vj+1zLIGnvP57jvRyuOcQRw738M677/LSy6/w8suv8sorr/Dqa6/T1xf4kXp93kuSZ/k2ENZR7zucEBR8LY8yc/yoOdc/mt7a1srMadM5Y95cFi1cwKKFC5kxYzrjOjsZ19lBzN8ACb9fOZVqi3B/TqVSvPrqa56ftBjpcXl4hJDk83maGhuZMWMGzc1NhXJV8p6D937nnXfYu28/WiuEsKj4XMsXX5VSTJo0kSmTJ2Pb9oiOieFnwws0Gz5qta+/nyNHjtDX18++vft45dVXefudd+ju7qa7+yDd3d309fWRzqTJZnNks1ny+TzSsojHYsQjMWINCdrb2hjfNY7Ozg4mTZrEzJkzmTVrJuO7umhraaGtva3gVxtwKv28ZN1XtrEZ0NvbQ3f3QQ4cOMjrb7zGyy+/xu4336S7u5sDBw5y5MgR0uk02WyenJPHtiSxWIx4PEZDsoGurnGMHz+eCRMmMHv2TBYtXMCUKVPp6Gijq2s8Mf+02Ht5ogZlHBwc4tVXXyWbyyIQ1ZnXI8m7eVqbm5k2dRrNzU11/9kbfjZfeOFFDvUcIR6NeVpHxcej4rM5b+5cOjraC2WC6tVZ+XxOSkkul+Oll14ilc4i0FXqP0WEkL49m2DO7NmMG9dZtxG8VRV4IbQoBbTvi7LnUJ6v3jPETx5OoZTGsmVhZ6eecV1F1BZcu7GBz+5sAfz7k4z5mLuwwHug1+W//6iP+57Jen7KFWi3sMgLpRHD1Y6S9WwZNPEobF+R4E+2NTGl0y75nWo+7CUTff+ZOtDj8rPHh7j90TRvH3BRaCKWRAgTtVtTfNHfVV7CltUL4nz28mbmTrGp1eZAPVItA/2xQr3X16mMOUcfDT9ayEin0+x+6y327tnLnj17ePOtt9mzZy+HDh3i8OHDHDp8mP6+frI5b3GWy+XJ+x66th0hErFpSCRobGygpaWV9vY2usZ3MXniJKZMm8rUyZOZOmUKM2ZMo7OzKAqd6OIsPEHO5XIc6enxFmUVM42X4B+BTSaTtLQ0n7KwGLRlKpXizTffIhaNVuQAX1AjWmts22b69Gnvu+zvR3zcu28/u1/fzeu7X+ON3W+xd+9e9u3bz759+znS00MqlSKbzZHJZclnc0gpsO0I8XiMpqZGmpqaaG/vYPz4LiZNnMiM6dOYOnUq06ZOYdbMmSXi4XARu+91D6OF4YRGCPyzS49QZjJZ9uzdw/793Rw4cIBDhw6yd/9+DnQf4siRIxzu6aH3SC+DQwMFH9l0JuNtujh5HMezKYjYEaIRGzsaJRaJ0NDURGtzC61tLbQ2N9Pe0cHECROYOHEC47vG0dHZyaSJE5k6ZSrRWKSkTMMdyYbR0zbD1X/Q14Y7wnr48BEOHDhA94Fuuru7OXjoEEcOHeFwbx9HDh/mSE8PR44cob+vn3QmTS7vkM9lyeUccvkc+VwO1w8kkP4GWjQa8YSuRJxkspHGpgZamppobWmhfVwn4zo6GdfVyfhxXYwb18n4ceOYOHEiHZ0dJWU71lFyqF571NNnaTXm6vW0Hqhk3Q+3+RdstJVfc3BwiN6eHvoG+ujvH2RgYIB0KkPezZF3FG4+73npSknEspC2TSwWIZFI0tTURFNDA80tLXSO6yCZODo5qHe6qugJe6prxuE+77QWWFa5z7zLvn3dHD5yhIGBAQYGBhgaGiKfz+M4buG5tqNehH/cjtLQ3EhzUzMtLS2M6+ygtbX1qDp8vxuW9fJs1Us53ot6ejZrWZai9lKf7VZP7RSmBgKvf2HPFa6wO/rKHod//Ek/j72YQQiwrfqPYNMaUlnNxSvj/NOt3g6HVgp9GkTwKuW1nyUlB/sc/vk/Brjrj56XYCUE3uCaUsqSpXC1bBlKI3c1iRhcdE6CW7c0MWWcXTDRDx8Nqnw0MYQ9d4NnaX+Pw3fvS/Efj6Y40OuSiEvP2N6IuzWmuEGRzrksnRnjI9ub2LgkTuATWM3+U4+UT1Sr6b1bznDRUPX27JQv7mtZX+WE62+kFjDlBBO+8vd18nn27N3HkcOHOdR7hJ7DPQwMDJLLZb1IlVy2YGERHFlOJBI0NjbS3NxMe1srnZ2dTJw0kdaWlqPKUj7RDKKD3u991nKiOhLXrlX5T+S6JyI8ZnM5uvftZ/+BA+zf301Pbw+ZdIZsNusdUcznQUpsy/NNbmhooLmpkda2drq6OpkwfgJdXeOOun64vEEfCai3seRUOV59w7G9XnO5HIcOH6bnSA89vb309vaTGhpgKJUmk06TzmT8SFAX5Qu8tm0TiUQKX5saG2luaaK5uYXmpiba29sZP6EYXVZeznCZ4GjRfbTNk45V9xCOsAXbHt6zMJfL09fby5HeHnp6eunp7aW/v59sOkvOyeHkc57A6zg4uRyOUl6UtZRYlkU0EiEWjRNLRmmIJ2lobKSpyRtLOzra6GjrINlwtNAFFMbhWrdFvcw9RvJz870I95t6mGtVevOrPIAiPCCHhcqRvLZnQ1G0MDrW5sWptvNw0bzw3uPvyVwnuJ9jPbPvVb5aP1ujYZO1HuoLjvaBD/+sWtTL2FxOed3UW1+qusALYRsDhVZeEi2Ax17M8P/+tJ9n3nKwhfZ96eqv0iBIoAW9Q4o182L8w62tTGgrHrGG+h04RoKS40wZl2/fN8T//vkgjtJE7fptt5OhKO4qsg40JQTblie4dasXuavRaFV964PhooXfOeTwjXsG+cUTaXoGFIlYUJbTzRm6vghvEGRyismdFrdta+LKtUmk5LQZNwyGkWC4iBU4tuB7qtcq8YAksA448SQ/xyp3NRmpCN5alP9kyx6O4g0IFgkj1V+G81wOrjmW5kMnQrHevWOUwWfcSIsOw1NM0BlcK/gatAmM7c/b4aJhw5YKUOk2KC1LcbkpfJu+Ypucrs+IobYc67MB/FMkJyWRFKNza9nHw5GPAScrjh3PKsc8twZD/VGVJGvlBIOBUtIXNzxPytULYhweaGTwF4Ps7nZAeBGiSvlphupsDNEaYjYc6nd44tUcF58T98z49ekwUQkm7Ipk3GL1/DjffyDF/l7Xt7EcG/cfXswqLUhEYctZIXFXa4TWaCl9G5haibuaN/a7fPu+QX72uxRDaU08Wggrq1q5DEdTGv2taExKLl3VwIVnJZBSeF6pAtCnZ9SuwXCiHEtgDD53RmqHvzyxii7uwsBJ+M3XUtgtZzR/Rp9MvUNpJHh5u55KfwlHMgXvF35tNNf1qRC+7/Lo5cBypTLROEUBcThR/70SAY0Vhuv35a9B5U9+lI+j4G1ol4vvBkO1KX1GSv08C1GqJ9Q/dYkmXO2NlDDDfR4FZTmRZ65cIA7e2zy3BkP9UhOBt0hwhMD7XgjJ9nMSHOl3+Pd7hjjQr5AiOC5RXxGIwbgWseDwgOaJ13NsX55A+iegxvxutPSya2o/E/fkTovlZ8S498l0xXx4a0EgzLkKohHBBWfF+MSOZroK0drai0BXClWlJG9BucJ97JV3Hf7pP/p5/OUsrtLEor7frq6np+b0IyzuOq4iYgsuWZngqrVJWhuDBS5ILdFSFTa9DAbD8Qkfj4JitNpICqjhhU0QCVN+3RPlVP9+JDiVa9e6/CNR9iCacKQE9+P1E4NHJZ/Toyk9EXM6ROsej/L7rk4bFCkVmLyAhPIyna5tY6gPiv3vVPuhODE9uAqc6rNlhFyDYfRRU4HXm3gFVjgK8HxEr1zfyJ7Dijt+l2Ioo7AtCVoiZD2JvL7NhCXpHXJ54S2HA/2KCW0WQnjC51gWeaWSKEkhLKMpLlk+N8JDz6fpT4Elod5E+RPFl2xxlcK24KxZET58YRNdbcVdUVnwcaqOuBteJAXfP/lahv/8jT72HfG8kWyTTK0uCDw5vbFAIwRsXBzn6vVJJnZICEWweHbKRtw1GE6WagiPZjwdG4TbsRJtavrJsanFBoKmhgkAACAASURBVIFpj1JqvUkzmtcFBoPBYDDUOzX/lA3E3UAI0QiSMcHVGxpZMz+O0oDWCAl1UNwCSnlRAQKwpaBnwOHZN3OA9v3GxjZhcVdrRSQCZ8+OMaXTBin86AlfjKxZKU8NiR95qQSTO2yuWtfAGZMtQKDD1g1Qpchd/3pBQjXgwecz/MXXe3nrQB6lvchpI+7WB1J6Pd9rC1gwNcKNmxuZNyUKCFSwQSA9Ydc0l8FgMBgMBoPBYDAYDIaToS4kheIRKi8aUiuYNdFm14Yky2bFGMoplPIj3erGv664+23bMJCFp97IjeksyWEkYX8fAMHUTpsdq5I0xgTprEIEUcyjUOJVyit/OqfoaBRcsbaB9YtigOexrCmKqJVu5+LxQj8ZgPQ8oR5/OcM//6Sf1/c6xCMWloncrSO88SzYIOhsltxyQSNLZ0YAfJ9uv23rZEwzGAwGg8FgMBgMBoPBMDqpIxXIT7iGBOGJuSvnxrhhY5L5kyPkHOX5idZRkpIAW0oGhhSPv5zlcJ+LF8VbP2J0JZGFLqSIRWDHOQk2Lo3TlBDk3CDKVY4aESuIyBVCks4rmpOCi1YmuHRVgmRc+Ikhqi/eF+1MBALB029k+Z93DvLKnjzNCQkCBKe3z1w9oZQ3jGXyiuaEYOeaBjYujmNZnrjr2TbIqmwQGAwGg8FgMBgMBoPBYBjb1I2yULRqUL6IprCkYPOyOLvWNTKh1cbJq4K4Vi/iqXdcHhxX8+4hl+ffzuOook1DvZSzUihUQXwEQVuT5IaNSZbMiuI4Re9R6qjNjokf+Sq052UbsWHtwhg3bmyko1kCwo+8lFWLklWq/HqCV97N8+VfDvLHV7NEbQFS+L9bN4/zaY2XwESScxXJmOCCs+LsPDdBIibw+lAgwtf582AwGAwGg8FgMBgMBoNhVFBnipBE+UUSQqK0IhaRXLImwVXrG0jGPd/KQGSrB6SUaCBqe1F7D72QJZP1XtOcDtGUReE2iEw8c3qMK85NcubMCAqN6+q6E+aHRQZ9T+Aoz1P4+vMamDLOy0UYFlsr/eh4J/fLxV3NnoMO/+vnfTzyUhbLEl52Uy9Dl/FwrTGq0A4S1/XaY93CGDed38iEdgt0WR8yDWYwGAwGg8FgMBgMBoNhBKgrhUHKYoGUUuCLvC1JyVXrkmxcksCWAtel4IFaL0gJWUfz8ItZ3ux2AI0lRCEpVj2VdSQpehEHLacBzQVLE9y6tYllM2NYUpB3VIm1Qb1VR9A+SkEmp5naYXPFuUmWz40BusQDWvpJsSpcoqK4KwA0B/oUX/rlAI+9lMNxNZYUCKEQsvKCs+H4eHqtQiNRSuMqwdmzY9y4qYkzJkUIJ1Ur9KFaF9pgMBgMBoPBYDAYDAbDmKCONQZfAPF0Nca1SG65IMncyb5Y4qo6igj1Iyy15p0DDr/6Y5pDfS6eNwGnic+mdyxda9AIolHYcnacj2xvZMUZUSK2wHEVbiFhWOnf1rYVvfbTGhxXkYgJLlmV4LzFcQQCrTWIsN9wlUqllNeFhKR/SHP7IynueTLNYFpjWxIhlG/LMNb7Vv0jA5Fdg6tg9kSLXeuSrJgbBbxTB1471cN4ZTAYDAaDwWAwGAwGg2EsUZfKUDHK0z/6rxQgWDA1ys0XJJncIck69XTsv2grIS3BA89meOugXyY/2Zr3r4ZFrDhF6wKtlCeKAucujPMXVzez4xzPg9R1i0KvUl5U77Gk00q3a/H9PXE37yhsS3D1uiRXrYvTlPTEXa1BalnwG65smYrlEsLrU46jue/ZDN++b5CBtCYWkX4Sv2pEEhvei6DfKwWuq2lMwtXrGzh/WRxP3A3GKuVH+ppGMxgMBoPBYDAYDAaDwTByWF/84he/WOtCDIcnbnkeo1pr/3uY3GkjhWB3t0vfkIslBVIKP2u9KkTN1qzMQO+QojkhmT8lSjIuC2IniFoWr6IIAVoI0EE0rPZ/7iVeWzQ9yhmTI4BmX48im/MsBjQg8NoXFFr7FRREPAoFyqvYkao6pUAIzwIEDdr3CbYtwRVrk9ywsZHJnZ7vrtbaSwCoNSAr3n5aK4QfDS6ll5Tr6TdyfOXuId7sdrElfn9X/uuGWiOERmuBqxQCwc5zk1y5roGWBonSgJZIqY24azAYDAaDwWAwGAwGg6Ei1K3AG1Ca2AoitmR6l8VQRrG722Ewq3yRV6F05QW445XTEykFjgupLCyYZjOl0ybwmfBEnkDMHHsIQGtROI5evF9JQ1wye4LFwmkxZk2w6WiRuK6gZ1AxmNYoJVA6sLTwhDBLghxGFC/o5ccryHHwdFGB1KDQ5B1obZJctCLBzZsbmDHBBgRKBZ6p3tdKN5tSINHeDfqbG+8ezvO1e4Z4/OUsGrCsYiI4Q+3xnnvPKxzgvKUJbjm/gRnjbdDC3yDQfrS1aTODwWAwGAwGg8FgMBgMI49d6wK8F+GkRJ7Iq2ltlNxyfiM9g4qf/S6FqzSWlP4R6NocW/ci8zyxJ2Jp3ujO8fCLORZMi9Kc9F5TStapKcbI4dW9LFhSBO0mhCdOTh8vmdplc+7CGAd6Xd7qdnl9X549hxUH+lwO9Dp09yoOD7i4CiISLFsQscC28Nv52BrucOKvFyVc+js5V5FKaxqTgrUL41x4dpx18+NM6JB44m4tPJ4VSngFlgKyeZf7ns5yz1MZHNeLFA2XzVBbgnbIuwrlCpafEeXmzUnmT4l6r2vlRX+rwHvXtJnBYDAYDAaDwWAwGAyGkafuBV44WuQVCNqbLa7f2EjvkOI3T2ewLPCiRmsnpBTFZU/0eej5DGfPirBxaQK0Z0EglS/1jHGBzmurcAS2bz8gQArJhDabCW02S2bCYNrlQK/i0ICiZ0BxuM/l4KBLz4CiZ1DRM6jp7VccGVT0DLmkc8Fxd+9aAoHvZuBdO/gaqmKN5/qgfD/UmeMjzFxgs2iazeYlcRZOi2JZwrNs0Kqkz1WDwMcVXYwEf/qNPHf/IcVgyiUZtxDCiLv1gALw28F1FWjBrIkWH9zSwIo5MaC8D4ERdw0Gg8FgMBgMBoPBYDBUilEh8HqEknih0ArmT41wzYYkb+53eH2/S8RSWFZ1hbmSEsri1xiC3fvz3P1UmlkTIkzzj2yrGoiHtaIYvQhQvG/tH2fXgBSCxoRFY8Ji1sTSv1das/ewy74jwT+Hfb0uvQOavKNwlcBR4CqN6ypcBa4S/lfv9bzrvVfU0kRsiW0JxrdKVs6LseKMCLMnRrB8RVhrVZa4r3rt49WVKvShbF7z0PNZnnvbIRkr2kOM9T4zGpB4uwtag6sFE9sku9Y3sHFxHBC4WmEJOcaTKhoMBoPBYDAYDAaDwWCoF0aNwFt61BmCg/dnzY5y7aZG/vUX/Rwc0EhNjQXUIDmYwFWa+57O0Rgf5FOXNdMYF55fZyiqdazrdcX7Cx9T99rQ8+zVhYRsBXcF7UXlCglTOi2mdFocbcqgUa4m63hiaDanSTuabB4yOS+JWzYP2ZzG1ZrmpKQhbtEY18yaGAmujtZFYbe8nNVqG08ILD3Gf++Tae57JkM2r4lHzRH/ukEplJ9sL+cqmuMWF5wV54q1CcCPUtcUPHlNmxkMBoPBYDAYDAaDwWCoNKNG4IVA5AUhpC/KKZIxi21nxznc5/C936boTytsq3Yir0IWjm/bUjKQcrnnySydzYPcdH4jiSgIERzJD9s6jG2CY+rlx9W9avDqQgJCSrRSILUv6R6jcrRAWpCQkIj54m9gtnuU6W7x556OG7zoJXBTCKQOq+1VbhPft8OL0tXsPaL4zTMZdh9wiEWDn58eUd/1TOApLQHHVVgC1syPctW5SRpi0rdh0VS9/xgMBoPBYDAYDAaDwWA4rRmFMkRR6PKiLzXtTRZXrkty4fIEUVvgKlE4al/90pUmFotGYH+vy388nOaR57MorRHCK1eQmO10RkpfNJMSjUSh0EjPL9f38B32n1ZoLdAItOew6yuhoviVsv8vBEIIdNl7BaHU1U2oFsK/rNcvBI+/lOWFt7JoBcJ/RANx0VAbvPoPNmU0eVewbFaM6zYmmTUpCgjPOkbLwu8ZDAaDwWAwGAwGg8FgMFSDUacYBYJgUeTVoDWT2m1u3drIOXNj2JYg7wZiTG3ElqLIK4lHNG8ddPmXXw5wuN+3JxDhBGTK+HXit60f/RiIvsE/pEQi/R7rddsgivs9xeCyf5qwWCoL39dCQC3aMxR58o0se4+4RCMi5L1b9aIZAgJxV0mUhnRWsWiqxY2bk6yYG8Oz+gj8m1XId9pgMBgMBoPBYDAYDAaDofKMaiWiIJBq7wz+lE6bT1/WyMJpFgKBqlEUb0BBiBYSW2peejfPP//HAAMpVYjiLUbwGoX3eAS67rEE4BP9B8F71PS2fALrBc3r+/K8ti9PJgdWoO6avlFbpOd/7AqFUpqpXTZXb2jk/KUJQPg+0sHzbsR4g8FgMBgMBoPBYDAYDNVl1EoRgVBXjOT1RLAF02JcubaRCe2SdE6Brl0Ub1BOpRR2RKKF4K4n0vzrrwYYSHvldpVAULwXlJHzTi/CrS145MUs3T0utu25uXpRx6P2MR0jeHYwaEFDDK5a28DWFQmkFL5VSK0TOxoMBoPBYDAYDAaDwWA4nRn1akQgrHhODQrQXHB2nEtXNdDeIMnki9GytbNr8NxgbSFQCn7wwBBfvmuAnkEXSwq08KwDChYExq/hNEIWbBiU1jzwXIaDfZqYXW9RxqcnwZjhugohNJuXxrl0dYLmhG/Boou/Z8Rdg8FgMBgMBoPBYDAYDLVgjCgSMpR0TdAUF1xxbpwtyxMkYp4fbzjKrhbl8wQgkFKQysEPHxjia/cO0jfoWThI6SUYC/vyGk4HgnbWvHPQ5bW9DumsRsraRp4biqKt6yqUFiydGeOqdQ1MbLcKvxP4ORtx12AwGAwGg8FgMBgMBkOtGDOqRIlVg4ZJHRFu3NjIuoVxtPaiI8M+mdWmmHQNIpZgMKX53m+9SN5DfS6gkVIclXzNMPYRQpLLa559M4fjaiI2oEEY0bBmhMVdx9XMmmhxy/kNLJ0Vw/PdNRG7BoPBYDAYDAaDwWAwGOqDMaFQyCADlx8NqbVGo5kz2ebGzQ2smhfHdf1M93iZ7mtUUsAXeSOSTF5zx2MpvvTLAd7YnwctEEIihSwReY3OO/ZxXM2+Iw6uK/DSrRlqgVLhzSLIu4JJnTY3XdDIuQvjCOFZweiCt/eYGEINBoPBYDAYDAaDwWAwjGLGjDrhHWn3ImU1EpQGNCvOiHHb9gamjrPRWhREmVpEx3pl9AoqhBeh2T+k+OXvM/zPnw7yxKsZco4GoYuRvEikNCLvWCUQch1XsOewwtG64Lkralaq0xTlbf4E4m7OUYxvFVy6OsklKxPEIkVxN4jeNUG8BoPBYDAYDAaDwWAwGGrNmJInCrYGUiGkxFWefLZiToybNjcSjwpclxKBpvpl9P5HKYUlwLIkgxmX3z6T5b/+qJ9fP5Um73jH9hH4vrzBXxuhd6ziuJp3D+VxXW1Ew1rhnwTQGlylScQEG5ckuHlzIzFb4FkzhMcZ01AGg8FgMBgMBoPBYDAYas+YUyiklKB8v1u8iDvLElx4VpwdqxLYdjHpWi09bsOevJaUuFrxwjsO//POfr7x6wHSOS/5mvB9eT37iaINhWGM4IfwOhreOahwHPz2NlSfosWL42hWzotx1fokzUnpeXiHbFOklGNv8DQYDAaDwWAwGAwGg8EwKhmTGoWUxcz22hfQOlsku9YlWb8wjiXBqYNEZmGR17YkEal5Y6/L9x9I89VfDfD2QQeBQIhi8rUAk4BtbOG6miMDCqW1F71tqCoF6xYNmbxiwfQoV65NsnBqFND+f4virsFgMBgMBoPBYDAYDAZDvTCmlQpVIuIK5k2J8qGtDSyaFgEEjuu/jqpZYGwgFimlsCxJIibZc9jhm79N8S+/GOCxl7Kks55lg5QCLTgqAZvRekc/gedrwZTXNGrVCCdVy2Rdpo2zuWZ9kg2L4oAX0QtBcsYxPWQaDAaDwWAwGAwGg8FgGIWMcbVChsQbTzBbNivGbduamDvZwnEFShesN2uKJ9iCEIpYRJLKau75Y5r/8dMBvnf/ELv3OWitsYQcJvLYF3prVnrDSKB1sQ1NW1aH8GaJ42ramy2uOa+RbcsT2JYoJFXzxhJju2swGAwGg8FgMBgMBoOh/rBrXYBKIiUoJUuSlAkhOG9Jgn09iq8MDLCvxyUakZ4FAopaOmtKqUBJhFTYEnKu4OnXM+zel+O5t3JsXZ5g+ZwoHc3Sj/xVIaHXjy5U/l0YIWp0ISAeFaSzQbSoacCKokDJYuSu0oJEFC5ZleTSlQmakt6mkBCgtQRZ27HBYDAYDAaDwWAwGAwGg+FYjHnFwtPJQkKO0oBm14YEl6xJELHAVRqtQVJbT17w7SKQCCGxpCAetUjn4FdPpPmbb/bypV/08+oeB8fVgCh4DXt52FQo8lOZU/6jAT+hWtQSTO+ysS1h/JWrQShfoasUtiU4Z26MD17YSGeLBUHkrvLEXdSYHyoNBoPBYDAYDAaDwWAwjFJOC9UiOIIdREVqDZYQXLa6ga1nJ1BK47rK/93aJjALe/ICfgI2QcSGdFZzx6Np/vpbPfzvOwd46V0H1xeshS/0SgmiIO4GHr3KiIZ1jm0LpowLBN5al2aMo4rWDK6r0Fowb7LFTec3ML7V8n5FAwV/bhMRbzAYDAaDwWAwGAwGg6F+GdMWDWGklEVjU61BSKZ32VyxvoGDA4rHXsogFb5QWnuFLSz0SimxpEQLSOcVL73t8M6BFI+9lOPsORE2Lo6xZFaUqC3QCBAatCcOBzettSdWSSW9oMTa3VpVCXxTPYHbC9sUBLnMvLZWfoXUok78AF5sSzNtnIVtaTJ572c69LphZFB4/UHiRfTnXZjUIblqQyNnz44BupBUjdCmkMFgMBgMBoPBYDAYDAZDvXLaCLzge+wGCcq058e7cm6MwbTiUJ/L7m4XqTWWVRrxW0vKhd6o7QlT/SmXZ950eGN/jsdeznHWzAgbzoyxYm6cREz64q5GudpXCRVCgcbLxqZC718v9zoShJNmBWgVCKWehYX2lVNBUfT1/lu7SM2IJZjaaWNJgVI6JEIbRhKp/P/RkkxO0d4kuXJdAxcujROxQWvfrkVKE0ltMBgMBoPBYDAYDAaDYVRwWgm8R1s1eCLvpiVxcnnNf/thP4cHFFLXn/AZCE5SKoSQRCOe0JvKKV54O8fb3XmefCPPzAkZls+xOXNGlAVTo1hWsfzK9xUdLiq0nu71ZAkn0yv5OV40sxQSq+xvtFZlthi1qQPbgmnjbCIWRlisEEopkCC0JJdX/P/t3VuwneV9mPHnfb913gcJCWEhBBJIwhxkYcA4RiCOtjHYdYyDHXyKnaZNUmc6k+lNL3pRz7RXvetFM5PJTJqm7kwvOtN4krZOfMgkacZ2HMd2AzY2BpuDBEZCgISkvdda3/v24lvfXmsLCUtCh722nt94C7zZh7XX+rYunvVf/3e+F3joXV0e3dNjrheAQM55xf3uS5IkSZIkvZmLKvACy6Y76x2cRRH5wK1d9r6c+MO/OMyho4lmY+XFnao3jW5XSoQYaRaRRoTFYeIfn+nz3acX+c6TBddtbvHObS12bmmweUODzesaxCIuq7s5J8qUlt41eb+s9MB1okldqKZeywQxQAjLb//CYub5AyU/2z+gXQRu2Npk/VxBHoXvcUQ/jz8I1eNQxMCWywpCDAwTECCX1WOss6M+aDHnTLOAe2/q8qn7Zlk7O9q7O3FNreRrX5IkSZIkadJFF3gr1cvyU6ribsqJGCKfua/Hc/uHfOmbRxkME63mCo49E7epOogtMldUgfPlw5mvf/8Yf/X4Alsua7JzS4Mbr2qxfVPButmC+ZnIupmCbidSLAu+VeQqy2qnwRsPZqt31nLO75P6kLgTRVyoQ26CXN0Vx8dcqILu/kNDDhwq+fmriZ++OOAHzwz5f88MKGLgtx6c4VfvmiWEaiHC+Pucz8c7Lk2Sr59vsH428sLBIZyH+/jiUk1n1ysYbt3R5tG7emy5rEFOmUw+6bUmSZIkSZK0kl2UgXdyErYOOplEqxn45D0z7D1Y8s0fLjAoE83RPl5iXPEHk5UJQoRGESg6BeTMCy8PefbnQ/73t4+xZiay9bImW99WsO3yJm+/osnl6yPddmSuA7PdsGylw3JVEK/71/kKYfX3CSeYyB3LLA4SRxfh6GLJQh9eei3xk70D/vGZAY/9rM9T+4YUDShCoNmAw8cS/+fvF9ixqckt21sEIoRUHUZ3XqP++H5sFJl37mjx/CslR45V157euvrxzBkWB4ntl7f42B09btzaAqq4Cyv4yRxJkiRJkqQ3cVEG3jcaHbRFYMemgk/f2+PgocQTzy9SxNEkZUqkFR55YxzvkA0BcgiQ0ujwKHj9WOKxn/V57JlMTtBqRjaui1y/ucmNW5rsurrFlrcVdJqBEAJFCBRFJsZADIEYT7S99yTyaM/A8UJmfH+fzr2ZyTmTcnXbyxwYlpmFQWL/a4mnXhjy1AsDfrK35Cf7Brz4WslwkAkxQIBOu1rbAJkQIr124Ls/6fMn3zjK1RsbXDI7Gn8mMXq4z8uqhvp7VQLv3tHiG48v8OphJvbxGh7P1GTc7Q8Tc72CD7+nw56dHRoxkHO9liTh8K4kSZIkSZpGBt6JtQOQCDFw9zs6vHhwyH/+askz+0u6zUiOkXghFrSeltFUMhBJBOKyHa4ZYLRvNhcwKDPP7S/Ze6Dka99fIEbotSIb10e2bmiw+dImV20o2HxpZMtlTTasLeqvMiFMfvWJd58sBofRx9b/PNHXWnaLgcCrRxMvvZJ48ZUhLx7MPLN/wJN7Bzz9wpCDR1KVjHN1SFYCyJlYQBgF3XBcnC5ipD9MfOOHfa6/8hifuGd2NCGcSOlMAvSZGX+v6ue94aoW8zMNhsMhob082uv0TMbdYZmIMfDxO2f45ffMMNONS7uXq+ndFf6rLUmSJEmSdBIXfeAdT2tWL9Gu97F+/K5ZDi1k/stXjnD4aKKIyz74Qt/sNxUn/oRx6AoAIS5rryklEpBKSAM4tlhy6FjiZy+WtBoLtBqBVjPQiIFOK7B2NrKmF1kzE5jtRua6gdluwVwvMNeJzHYDMx2IJ12nUN2FgxL6g0S/TAwGMBhm+iX0B/D6YublQyX7D5UceLXk4OHEsT4My8ygzJRlZmGYWVwM9IeZMmeKACFkQqx+8viG9QZVuK0eukQIkWYj8sIrA/70WwtseVuD3dd3liJvzufnMa4vqfoxumJ9wXWbG/zwuUg52g1d3WIz76mqnqsZx91Bmeg0A/fu6vIre3psWBshs3SwnveuJEmSJEmaZhd94IVx3B1H3mrf66fumeXIscwffeXIaNKPZROx0+JEL++vf95Yr52I45nanBOLg8yxPpQpk1K13zdnaDUC7SY0G4FWo/pnswg0G5lWI9JsBpoB8km3OWTIkZRHXzePv37KkFJmMISFQWahnznWz/QH1VRuUcfbWL0VMdNqRgLhDbPAy4Nu9QPW/15PzcYYKWLg8WcX+eJfBq7e0ODyS4uJz4dIJMVzm/+WH+4VuHVHm7/7UZ+fvjig3aqGoR3kPXWxOqGODKRc7TLedXWL33xwlq2XFUCoDlZcut/jSn/ORpIkSZIk6aQMvCPHR96cM7125NG7Z3h+f8mffvsovdFL/VfDYUzH3/4M5NF0cgiRxqhz1p02hDr+Vm/9QWJhUK3aHW23IOWyimqnsss01DtxR98jjPplGAXNUVRtNeJoJ3B1IzNvXOxQnvDxOHm0qw/ZS6mKf8f6iX94csCXvnmE33ponjC6Bor6gL209EnnRB13q+sqsOfGFt96oslzBwbk0aoNC+/pGN1POZPKwI4rG3z63h7bNzWrdyfjriRJkiRJWj0MvBOq6FP9eyCTM2y8pMGj98zy/MEh33+qT7sZlsLftEfeSQHeEDEnY2ouxy95DwGKIlIAFMs+5UTHqr2pN07evlG1UzcxOUo7+X3O9HGIoynPdiOyOEj8ybeOsXVjkw/c2qMoqhUJxSgEnsvNHPXtr4JjYL5XcPv1bf7+yUV+9mJJtwN1kF5N19y5UD9OIcPRfmbjuoJf/qUud97Ypj6or34yw/tSkiRJkiStBhaO41Qv/4+jA8mq/HjLtiafvX+WjesapByWJkbTKY2qTq8w8VZdKunkZ6dRxdp0mm+nEngDEFIkx8nbc3aklAgRcs48+1LiD758hK9//xgARagO4qr3tJ7Lx3v8tat75bZr29yyvU2qLkTgzEP2xaIK4NW9tTBIzLQD99/U4cHbujQbYWn6vLofvS8lSZIkSdLqYOU4gTq2VeGvftl8h0/f12PtTKAcHn9A0+pXrzV4M+EM307tBpybizVOrGNoN+HH+/r8/pcPL0XeMIq8kx97btRTvECGS+cL7n1Hh22bGhzr56Ud0Kv9SYUzVU83ZyANMzHCfTd1+Mx9PdbPR8iBnPPEKpYLfYslSZIkSZLODjPHCdSHj0EcTf0lZruBT9w9y4O3dZmbiQyGaRTdvAtXh0SIgRjgieeH/OFfHOZvHlsAIIRqB3A6h5Pb9eQ4QKonx7e3eeCWDo1ifNjd5BoRVSbvl5QyJZm7d3Z49J4ZtlzWAiAznpB2ElqSJEmSJK0mlo6TqGLReO8sBHrtyL/88Dy3X98hhrAU4vJFMsW7WtVxMABFjAQy3316wBe/foRvP7kAhPMSeetDvwBSTlwyF3noti737uoSQyYtTRJ7vU1auj9CIgBv39ziU/fNcMu20d7dlJcm7o3jkiRJkiRptTHwnkQ9UTkZ9HJOzHYiv/uROW66psmhowlyJnDud7Tq3Kof4xCqg9WaReBvHl/gj75yhGf3D4FqXUMdeWH8JMDZHUqyYAAAFINJREFUvA1Lk7yjlQzbN7X43HtnufKyJomwbGrcq20cxXOGMgU2zEc++94et729PfrvmXzc77IkSZIkSdJqYu34BSbDUL0H9cpLG3z2vbO8Y0uTI4tpFOM8uGnajV/mnyhile2/8YNFfu/PDvPTF0tgvK6hehuH3rMlpfSGKeGbt7X4Fw/N0oqBY4OSiYW8Z+8bT6kYGcXdRKcJ/+Q9Xfbc2KEI1cF5AExM40uSJEmSJK02xRe+8IUvXOgbsdKFECYmNQMhZLZuaNAfwtM/H3DoyCgIxkRKVQDUdKoCbvV4t5qRhUHm2f1DDhwqmesGrtzQJISwFA+rwBjIOZFDOPVD407h+8cYKXMihsCOTQ3W9CI/eHbA4aPLJ8xDyJzGcXWrRkqJQGRQVr+bH7i1xyfvmWXjJcVod3b1cTFGgr+UkiRJkiRplTLwnqKc82iKt96DGti6scFiP/PYswNSBnL1/sTFmNtWlzqyNorIsMw8tW/Ic/tLiqKa4G4340ToHcXe0eecjZiYcybnTLEUeSM7t7bYMB95dn9i/6EEZGIRRztm80UUMRMpVb+Pg5SIAd59bYfffnCOHVc0gDD6fa0i78Vzv0iSJEmSpIuRgfcUjacqgVCta+i2Ips3NHjlSOLJvdWe1hgCJt7VoQq4iaKIZDIvHEw8/kyfI4uZ9fOR9XPFKB4GIC89CXA2Iu/kJG8xemIhBLh2c4v184GXXh3y0qvj0BljqA6KW+WXXbULu/p5y7KamN+5pcnnPzTHO7e3gUBeWnFRPS4GXkmSJEmStJoZeE9DzpkcIiGlKt9mmJ8pePumJk/sHfLc/iGBsxf5dOHlHIihCoYhBg4dSXzriT4HDmc2XlJw6ZpIEasD2OrIC+MnBN7qNVBP8lb/XgXcbZe32LSuqCZ5X6smeasgvPqfWKh/zpwDwxK2XlbwmfvmeO/NXYAqhC/tL87u3ZUkSZIkSauegfc0hFBNBy5/XxV5t1/e5NtPLnLgUEmMUBh5V4UQGO1Vrh7Logg0C3j6xQE/fLZPWcIlswWzncldr5OhN5NSGE3gnv61UK+BqNaD5KXIu/nSJhvWBJ7aV7LvYEmjCGctKq9U9c9Wxd3MurnAx+6a5ZE7ezQKSGkc1+v7TJIkSZIkabWzgJym6uXwEYijSd0qKl1/ZYPPf3CODfMFg2E1bRmXJgk1zWKElCKMJrdDCMQAT+4r+f0vH+bf//fX+PN/WODo4niaNsZYLW7IEUhEIgk4k8uhvo7qYFnH43de0+b2G1oUEdLSoW+r81d68ucflomiAffs6vDQbV3azdEu5EB1P098rCRJkiRJ0mrnBO8Zyjkthbb6peCb1hcMU+AnewccWUg0YyDE1TlNebGpVu3We5gDMQYymYXFzN6DQx5/tmTf/iGtVuCK9Y1qihRg6c9cVf/RdG99KNqp7s2tp3NrGWg3A/PdyP5XS57ZX7Ka983W91cmc2wxc+eNHX79fXNsv7wYfQBAJGPclSRJkiRJF5fGhb4B06qaqqynOxMhJGY7gU/f1+O5A0O+8p1j9MtEo6gOZMPwtCpUj2EipUgRIzFUj//e/QO+dLjkWz9e5IFbOty9q8POLa1qN++ouVZPCoy35ObE6GtBNRF+Kt+7/pwMITI/E1k3V1BmWK3PJdQTuWWZWBhkbt3R4tP3zbBzS5OlYA7EWD0ukiRJkiRJFxMD71tQx93xS+gDa3oFv/G+GV47kvjrxxdo5EyMGbdhrCZ1jE2EECmK6v8v9BM/2pt47cgxvvPUgBuvarLr6hY7NjXY+rYGIcTRtG4m5Vzt5aWe4E1wCusFUkoE4ujjoUyZ0Xliq9Jk3IXANZc3+LX759h9XRuoJ3vjaFcyvzCSS5IkSZIkrTYG3rdqYj9qHXl3XNHiNz8wx6uHS/7h6T6z7QIC7gZddarHsn5cW41Iq4DXjpT838eG/N2PF9l6WcG1m1rcsKXBTVe3uOLSgo1rGxRFnBjlzZQpM46241UMJxrKzSRSrr77Yh8OHC4pVtllVcfa6nA5SAQ2zBd84u4Z7rupQ4yBskwUxXjPtb9bkiRJkiTpYhTyeJGs3oLjIy8Evvrdo/yH/3GIn75UMt+JRt5VbvKxDVQHnw0T9AeJZiNww5Utrr2iwTUbm2zbVLDxkoL1c5H182f2PEvOmS9+/Qh/8OXDHD6aIeRVdW1Vq08iw5TotgIP397jtx+aY+1sHO0xrj/yF6+3kCRJkiRJWq2c4D1L6p28ACkFYsy89+Yuew8kfu9/HeLoYqLZiBMR2CK16owe0wTEBMRMs4g0YiDlwBPPD3j8mT7DBJetiVx7RZOdW1vsuqbFlesjrWagiIFmAUURaBSBRsiE0SRrDJlmhIVhZmER/vqxBf7nN45y4PWSTqMYHbBWrXqYbmk0wRsZDBMhwG072jy8u8fa2Qi5OmzNsCtJkiRJkuQE71lVhdvq5eUhQAiRg4cS//UvX+cP/vwwRagCnvtCV78TRfycxwetZQIpwzBlSNBsZNbNNVg3E1i/pjo4bd1cZL5X0G1Drx2Y7UZm2gXPvjTgO08u8t2n+xw4VNJqFEs7gRNxqvNuGh08F2MkZVhYLNlxRZN/84k1/NKODoTqPgw5Vj+tv0SSJEmSJOkiZ+A9y1KCKj2NI+9Pfz7kP37pEH/9j4tLe0NDSKTkBOLF4GQT2/Xu2ASQoYgBqv8RQ/VEQCAvvS+EQBGqg9WGJQwTZDJFrA5dm/brqXrSY3TYXIaFfsmOK1r88wdmeOhdPYqCpdUM9cT8NP+8kiRJkiRJZ4MrGs66RIrVFGW1QxSuflvBr79vhn0vD/nR85lMIhCrmJWwUq1yk3F3lC+p1gtU76//a0pATpQAKZMmvkaqKzD14WPV5xWxPmRsyuMu47ibMwyHiSsvbfDR3T0+eFtvtNe6CryuOZEkSZIkSRpzgvccWPYy84kQ9TePLfBv/9urvPjqkG6jIGUj1cVuvK/3zXfnhol/n/yFnf6lDCOjHz9nSCnTacEn753hc++bY74bl1ZbGHclSZIkSZKWs5KcAzEuD1F59FL8PTs7/KuPzDPXLji8UK1qqF+mr4tTXP7HCWWq/lm/TQbeVRF3gdGiClLOhJC596YuH7l9hvluJBl3JUmSJEmSTspSco6llAgxUuYqYH3ol7p89I4ea3qBY4uJEKpoZefVyYQTvK0mabRMN2U4tpDYtbXNR97T46oNDSATMgSMu5IkSZIkSSdiLTmH6hiVEoSJscvffHCW99/SpVWEamIxVvt4jby62NTRtkyJwTCz5W0NPn5Pj3dd2wKqnbuESObNV1hIkiRJkiRdrCwm51gVeatym3OCDJfMFnx8T4/bb2gzHObRCodR5L2gt1Y6fybjblkGLp2P/NMH5rhnZ4cihqW9uzlP/yFykiRJkiRJ54rJ5LyI1S7ePJpIJHPTNW0eubPHtk0NhilQHXUXiY7xarUbXeL170SZApfMBR6+vceHbusy01l+qJp/S0mSJEmSJJ2c6eQ8iHE8rZgZR977burymXtn6TShP0jV4VnRg9e0yo1+H3KGYZnoNOGunR1+4/2zzHaXx92UEiSndyVJkiRJkk7GbHKe1LFqaZI3VUt5H9nT43c+NEe/hLKsw9YFvrHSOZUmfh/glm1tHr2rx2yvOj5uMu7GaNyVJEmSJEl6M6aT82gyWoUYSWUCAh9+T4/P3D9DWVYTjTk7xatVKo0PS1sYZK5Y1+CRPT2uv6o+VC0RGf+eSJIkSZIk6c1ZUM6zOvKmlCBAyol1cwWfu3+WPTs7xADDNJ5wlFaLlFI1np7hyEJi0/oGj9zR5a6dbYpYrS7JGRLGXUmSJEmSpFNlRbkgqrs9jmIXwJUbGvyzB2Z4+5VNcg6kPBmDL+BNlc6C8XqSRH+YWTsTefj2Lo/smaXdDGTC+FA1SZIkSZIknTJrygUQ4/E7eauCe+uODo/eNcvGtZH+IC3FX5uXplk1uFvtni5ToN2Eh97V5ZE7ZpnrRVLOkNKy3wlJkiRJkiSdGkvKBZZSIoQ68mYe3t3l4Tt6zHQCR/uJwlUNmnaxun5TThQx8+7r23zqvhkuX1+QUiZkyNTXuX8lSZIkSZIknQ5rygUUY1yaVsy52kEKgc9/cI7339IlBOgPR5ONJEOvpk5K1aFpZUqUZWDHphaP3tlj2+VNqhH1TGY81e7wriRJkiRJ0ukxp6wA41UN4/f97kfm+OC7uhzrZ3LOROoYbOTVdJi8rlOCuV7gV+7o8e63t4D6CQ3wryFJkiRJkqQzZ1lZAca7R1k6VO3S+QafuX+Ge97R5fWFREpVDEvJyKspMFq3EDIs9BOtRuBTd/d4380dOq1qJUmuR3e9niVJkiRJks6YgXeFqKZz64ejeun6rqvb/OpdPa7f3KRMUKY8isA+bFrZEpEQYKFMzHcDH7i1y8fumuWSuQgEch5d8+7dlSRJkiRJekssKytI/ZJ2GL98fc87Ojxy5wxrZsLSCgf3lGrFStUfIUIqE60i8p7rO/z6+2e5bG0Vd+vrvD5UzetZkiRJkiTpzJlWVpDJ6BVCJOVEuxF4eHePX7mjx7HFzGBYvZzdA9e0IsXq+s05kwnsurrJJ++tD1VjWdz1UDVJkiRJkqS3zryywtQHqaUEMVQhbLYb+bX7Z3nwti6DISwOEsVSDJZWhvrJCTIsLiY2byj46O4e79reHv33DMRlk+qSJEmSJEl6a6wsK1J98NRoWjcn1s0V/LtPr2HX1U1SrvfxGnm1MtTRNmfoDxPzMwUP3NLlvTd3iTFArq7TGL1eJUmSJEmSziYD7wpUDzemNJroHe3enZ8p+NePrOUdW1oc7SfKMi+bhDT26kIYx91EmTIQ+PDtXT62p0uvDTmn0VMVcXxNS5IkSZIk6aywtKxQ1X7SepK3imSQuXl7k4/u7nLdFU3KDMOynvRN4ESvzqe0fHJ3WAaKAt53S4eP7u5x+boGZKrDAXMcTe/6V44kSZIkSdLZFHLO+ULfCJ3c5KFUIUAIkaMLJd//2YD/9Gev880nFpjvRiAQwtJnkZIHWOncqSZx6wPVqv26IcLu69p8/kOz3Lil3rubJvZKe01KkiRJkiSdbQbeKXCiyAvwvacW+eOvHeGr31sg5UyzEYijyjv5Ob4kXmfT8XG3LKsVDLuv7/A7H5xl1zXL4249Ve51KEmSJEmSdPY1LvQN0C82GWqrWJYIIfDObW1ajcAlc5G/fXyBZ/YnmkWiUURjms6RRCQC1W7ofpkgw83b2/zG+2eW4m72CQZJkiRJkqTzwgneKbJskhcIMQKZl15J/NXjC3z9ewv88Lk++18rIQTajUgMS2e0kRmHN+lUHR9pAzAoE4MhzPUCt13b5hN3z3DHDR0AypQonNyVJEmSJEk6Lwy8U2bpELUYCTkRCFVxI/CTfX2+8USfr31vgadfGPLK60MGw0CrCY0C4mi1gw+4zkSZEmWC/gDmepFtGxvsvr7FA7d2ue7KFpDJORNCHXfduStJkiRJknSuGXinVL0HNaU42ssLVboNfP/pRb75o0X+/seLPPPzktcXMocXMmWZibH62AgQR/+UJqSlP6orKlVbGOg0A712pNWEW7e3+cjuLjdva9FtVXufcwpkDLuSJEmSJEnnk4F3Sh1/gBVMvhS+Cr2HjpR89+k+f/uDRb794z77Xi4ZpkzIUJJJqQpz4fzffK1AmdETBRlCyBAiIWcI0O0ErtvU4KZtLW68qsWtO1qsnSnqz1q2jsG9u5IkSZIkSeePgXfK/aLQW5aZMsGRxczz+0uef3nIvpdL9h0s2fdKydHFRDTxCshkOs1ItxXotQPdVmCmG7hqQ4ObtrbYuD7SakSKkCmKwGTYBeOuJEmSJEnShWDgXSXePPTWMv1Bpj/MLA4zi4PxFK8EEEOmiJEYMzFEiiLTbobRGobl18rxU7uuZpAkSZIkSTr/DLyrTB3alpaoMj5ULQYIwQKn05dzIuXlidewK0mSJEmSdOEZeFex6rCsN0721nzgdTInm+t2DYMkSZIkSdLKYuCVJEmSJEmSpCnlGJ4kSZIkSZIkTSkDryRJkiRJkiRNKQOvJEmSJEmSJE0pA68kSZIkSZIkTSkDryRJkiRJkiRNKQOvJEmSJEmSJE0pA68kSZIkSZIkTSkDryRJkiRJkiRNKQOvJEmSJEmSJE0pA68kSZIkSZIkTSkDryRJkiRJkiRNKQOvJEmSJEmSJE0pA68kSZIkSZIkTSkDryRJkiRJkiRNKQOvJEmSJEmSJE0pA68kSZIkSZIkTSkDryRJkiRJkiRNKQOvJEmSJEmSJE0pA68kSZIkSZIkTSkDryRJkiRJkiRNKQOvJEmSJEmSJE0pA68kSZIkSZIkTSkDryRJkiRJkiRNKQOvJEmSJEmSJE0pA68kSZIkSZIkTSkDryRJkiRJkiRNKQOvJEmSJEmSJE0pA68kSZIkSZIkTSkDryRJkiRJkiRNKQOvJEmSJEmSJE0pA68kSZIkSZIkTSkDryRJkiRJkiRNKQOvJEmSJEmSJE0pA68kSZIkSZIkTSkDryRJkiRJkiRNKQOvJEmSJEmSJE0pA68kSZIkSZIkTSkDryRJkiRJkiRNKQOvJEmSJEmSJE0pA68kSZIkSZIkTSkDryRJkiRJkiRNKQOvJEmSJEmSJE0pA68kSZIkSZIkTSkDryRJkiRJkiRNKQOvJEmSJEmSJE0pA68kSZIkSZIkTSkDryRJkiRJkiRNKQOvJEmSJEmSJE0pA68kSZIkSZIkTSkDryRJkiRJkiRNKQOvJEmSJEmSJE0pA68kSZIkSZIkTSkDryRJkiRJkiRNKQOvJEmSJEmSJE0pA68kSZIkSZIkTSkDryRJkiRJkiRNKQOvJEmSJEmSJE0pA68kSZIkSZIkTSkDryRJkiRJkiRNKQOvJEmSJEmSJE0pA68kSZIkSZIkTSkDryRJkiRJkiRNKQOvJEmSJEmSJE0pA68kSZIkSZIkTSkDryRJkiRJkiRNqf8PiDITWkRvEc4AAAAASUVORK5CYII=;" parent="1" vertex="1">
          <mxGeometry x="823" y="392" width="120" height="39.46" as="geometry" />
        </mxCell>
        <mxCell id="gQKAg9snvbFnoSpJ1Kl--70" value="&lt;b&gt;&lt;font style=&quot;font-size: 15px;&quot;&gt;Packet Monitoring&lt;/font&gt;&lt;/b&gt;" style="text;html=1;align=center;verticalAlign=middle;whiteSpace=wrap;rounded=0;" parent="1" vertex="1">
          <mxGeometry x="809" y="423.46" width="143" height="30" as="geometry" />
        </mxCell>
        <mxCell id="gQKAg9snvbFnoSpJ1Kl--71" value="" style="endArrow=classic;html=1;rounded=0;entryX=-0.022;entryY=1.067;entryDx=0;entryDy=0;entryPerimeter=0;exitX=0.047;exitY=0.206;exitDx=0;exitDy=0;exitPerimeter=0;" parent="1" source="gQKAg9snvbFnoSpJ1Kl--59" edge="1">
          <mxGeometry width="50" height="50" relative="1" as="geometry">
            <mxPoint x="814" y="170" as="sourcePoint" />
            <mxPoint x="538.3600000000001" y="41.01999999999998" as="targetPoint" />
            <Array as="points">
              <mxPoint x="820" y="41" />
            </Array>
          </mxGeometry>
        </mxCell>
        <mxCell id="gQKAg9snvbFnoSpJ1Kl--80" value="" style="endArrow=classic;html=1;rounded=0;" parent="1" edge="1">
          <mxGeometry width="50" height="50" relative="1" as="geometry">
            <mxPoint x="380" y="420" as="sourcePoint" />
            <mxPoint x="380" y="480" as="targetPoint" />
          </mxGeometry>
        </mxCell>
        <mxCell id="gQKAg9snvbFnoSpJ1Kl--81" value="&lt;b&gt;Spring&lt;/b&gt;&lt;div&gt;&lt;b&gt;Boot&lt;/b&gt;&lt;/div&gt;" style="text;html=1;align=center;verticalAlign=middle;whiteSpace=wrap;rounded=0;" parent="1" vertex="1">
          <mxGeometry x="92.5" y="121" width="60" height="30" as="geometry" />
        </mxCell>
        <mxCell id="gQKAg9snvbFnoSpJ1Kl--82" value="&lt;b&gt;Spring&lt;/b&gt;&lt;div&gt;&lt;b&gt;Boot&lt;/b&gt;&lt;/div&gt;" style="text;html=1;align=center;verticalAlign=middle;whiteSpace=wrap;rounded=0;" parent="1" vertex="1">
          <mxGeometry x="871" y="128" width="60" height="30" as="geometry" />
        </mxCell>
        <mxCell id="1sUUCFTYEPu1m_X2lx19-2" value="" style="verticalLabelPosition=bottom;verticalAlign=top;html=1;shape=mxgraph.basic.diag_round_rect;dx=6;whiteSpace=wrap;fillColor=#d5e8d4;gradientColor=#97d077;strokeColor=#82b366;" vertex="1" parent="1">
          <mxGeometry x="35.5" y="390" width="100" height="30" as="geometry" />
        </mxCell>
        <mxCell id="1sUUCFTYEPu1m_X2lx19-3" value="" style="verticalLabelPosition=bottom;verticalAlign=top;html=1;shape=mxgraph.basic.diag_round_rect;dx=6;whiteSpace=wrap;fillColor=#d5e8d4;gradientColor=#97d077;strokeColor=#82b366;" vertex="1" parent="1">
          <mxGeometry x="34" y="280" width="100" height="40" as="geometry" />
        </mxCell>
        <mxCell id="1sUUCFTYEPu1m_X2lx19-4" value="&lt;b&gt;&lt;font style=&quot;font-size: 15px;&quot;&gt;producerkafka&lt;/font&gt;&lt;/b&gt;&lt;div&gt;&lt;b&gt;&lt;font style=&quot;font-size: 15px;&quot;&gt;(ns: sre-kafka-client)&lt;/font&gt;&lt;/b&gt;&lt;/div&gt;" style="text;html=1;align=center;verticalAlign=middle;whiteSpace=wrap;rounded=0;" vertex="1" parent="1">
          <mxGeometry x="59.5" y="282" width="60" height="30" as="geometry" />
        </mxCell>
        <mxCell id="1sUUCFTYEPu1m_X2lx19-5" value="&lt;b&gt;&lt;font style=&quot;font-size: 15px;&quot;&gt;producerkafka&lt;/font&gt;&lt;/b&gt;&lt;div&gt;&lt;b&gt;&lt;font style=&quot;font-size: 15px;&quot;&gt;(ns: sre-kafka-client)&lt;/font&gt;&lt;/b&gt;&lt;/div&gt;" style="text;html=1;align=center;verticalAlign=middle;whiteSpace=wrap;rounded=0;" vertex="1" parent="1">
          <mxGeometry x="59.5" y="404.87" width="60" height="30" as="geometry" />
        </mxCell>
        <mxCell id="1sUUCFTYEPu1m_X2lx19-6" value="" style="endArrow=classic;html=1;rounded=0;" edge="1" parent="1">
          <mxGeometry width="50" height="50" relative="1" as="geometry">
            <mxPoint x="170" y="470" as="sourcePoint" />
            <mxPoint x="106.5" y="211" as="targetPoint" />
          </mxGeometry>
        </mxCell>
        <mxCell id="1sUUCFTYEPu1m_X2lx19-7" value="" style="endArrow=classic;html=1;rounded=0;" edge="1" parent="1">
          <mxGeometry width="50" height="50" relative="1" as="geometry">
            <mxPoint x="170" y="470" as="sourcePoint" />
            <mxPoint x="110" y="330" as="targetPoint" />
            <Array as="points">
              <mxPoint x="117" y="350" />
            </Array>
          </mxGeometry>
        </mxCell>
        <mxCell id="1sUUCFTYEPu1m_X2lx19-8" value="" style="endArrow=classic;html=1;rounded=0;" edge="1" parent="1">
          <mxGeometry width="50" height="50" relative="1" as="geometry">
            <mxPoint x="170" y="470" as="sourcePoint" />
            <mxPoint x="75.5" y="403" as="targetPoint" />
            <Array as="points">
              <mxPoint x="82.5" y="423" />
            </Array>
          </mxGeometry>
        </mxCell>
        <mxCell id="1sUUCFTYEPu1m_X2lx19-11" value="&lt;b&gt;&lt;font color=&quot;#3333ff&quot;&gt;{PODS}&lt;/font&gt;&lt;/b&gt;" style="text;html=1;align=center;verticalAlign=middle;resizable=0;points=[];autosize=1;strokeColor=none;fillColor=none;" vertex="1" parent="1">
          <mxGeometry x="121" y="158" width="70" height="30" as="geometry" />
        </mxCell>
        <mxCell id="1sUUCFTYEPu1m_X2lx19-12" value="&lt;b&gt;{PODS}&lt;/b&gt;" style="text;html=1;align=center;verticalAlign=middle;resizable=0;points=[];autosize=1;strokeColor=none;fillColor=none;" vertex="1" parent="1">
          <mxGeometry x="117" y="276" width="70" height="30" as="geometry" />
        </mxCell>
        <mxCell id="1sUUCFTYEPu1m_X2lx19-13" value="&lt;b&gt;{PODS}&lt;/b&gt;" style="text;html=1;align=center;verticalAlign=middle;resizable=0;points=[];autosize=1;strokeColor=none;fillColor=none;" vertex="1" parent="1">
          <mxGeometry x="62" y="367" width="70" height="30" as="geometry" />
        </mxCell>
        <mxCell id="1sUUCFTYEPu1m_X2lx19-14" value="" style="image;sketch=0;aspect=fixed;html=1;points=[];align=center;fontSize=12;image=img/lib/mscae/Kubernetes_Services.svg;" vertex="1" parent="1">
          <mxGeometry x="137" y="470" width="50" height="37" as="geometry" />
        </mxCell>
        <mxCell id="1sUUCFTYEPu1m_X2lx19-16" value="" style="image;aspect=fixed;perimeter=ellipsePerimeter;html=1;align=center;shadow=0;dashed=0;spacingTop=3;image=img/lib/active_directory/laptop_client.svg;" vertex="1" parent="1">
          <mxGeometry x="21.5" y="560" width="45" height="50" as="geometry" />
        </mxCell>
        <mxCell id="1sUUCFTYEPu1m_X2lx19-17" value="&lt;b&gt;JMETER&lt;/b&gt; &lt;b&gt;Load&lt;/b&gt;/&lt;div&gt;&lt;b&gt;RestClient&lt;/b&gt;&lt;/div&gt;" style="text;html=1;align=center;verticalAlign=middle;resizable=0;points=[];autosize=1;strokeColor=none;fillColor=none;" vertex="1" parent="1">
          <mxGeometry x="-35" y="533" width="110" height="40" as="geometry" />
        </mxCell>
        <mxCell id="1sUUCFTYEPu1m_X2lx19-19" value="" style="endArrow=classic;html=1;rounded=0;entryX=0;entryY=0.25;entryDx=0;entryDy=0;" edge="1" parent="1" target="gQKAg9snvbFnoSpJ1Kl--78">
          <mxGeometry width="50" height="50" relative="1" as="geometry">
            <mxPoint x="190" y="440" as="sourcePoint" />
            <mxPoint x="390" y="490" as="targetPoint" />
          </mxGeometry>
        </mxCell>
        <mxCell id="1sUUCFTYEPu1m_X2lx19-20" value="" style="endArrow=classic;html=1;rounded=0;" edge="1" parent="1">
          <mxGeometry width="50" height="50" relative="1" as="geometry">
            <mxPoint x="690" y="430" as="sourcePoint" />
            <mxPoint x="490" y="500" as="targetPoint" />
          </mxGeometry>
        </mxCell>
        <mxCell id="1sUUCFTYEPu1m_X2lx19-21" value="&lt;b&gt;K8s &lt;font color=&quot;#6666ff&quot;&gt;Service&lt;/font&gt;&lt;/b&gt;&lt;div&gt;&lt;b&gt;ns: kafka-cluster&lt;/b&gt;&lt;/div&gt;&lt;div&gt;&lt;b style=&quot;background-color: initial;&quot;&gt;cluster.svc:9092&lt;/b&gt;&lt;/div&gt;" style="text;html=1;align=center;verticalAlign=middle;resizable=0;points=[];autosize=1;strokeColor=none;fillColor=none;" vertex="1" parent="1">
          <mxGeometry x="541" y="-3" width="120" height="60" as="geometry" />
        </mxCell>
        <mxCell id="1sUUCFTYEPu1m_X2lx19-22" value="" style="image;sketch=0;aspect=fixed;html=1;points=[];align=center;fontSize=12;image=img/lib/mscae/Kubernetes_Services.svg;" vertex="1" parent="1">
          <mxGeometry x="501.25" y="20" width="50" height="37" as="geometry" />
        </mxCell>
        <mxCell id="1sUUCFTYEPu1m_X2lx19-24" value="" style="endArrow=classic;html=1;rounded=0;exitX=0.276;exitY=1.022;exitDx=0;exitDy=0;exitPerimeter=0;entryX=-0.013;entryY=0.486;entryDx=0;entryDy=0;entryPerimeter=0;" edge="1" parent="1" source="1sUUCFTYEPu1m_X2lx19-11" target="1sUUCFTYEPu1m_X2lx19-22">
          <mxGeometry width="50" height="50" relative="1" as="geometry">
            <mxPoint x="162" y="178" as="sourcePoint" />
            <mxPoint x="251" y="221" as="targetPoint" />
            <Array as="points">
              <mxPoint x="150" y="50" />
            </Array>
          </mxGeometry>
        </mxCell>
        <mxCell id="1sUUCFTYEPu1m_X2lx19-25" value="" style="endArrow=classic;html=1;rounded=0;exitX=0.276;exitY=1.022;exitDx=0;exitDy=0;exitPerimeter=0;entryX=0.133;entryY=0.901;entryDx=0;entryDy=0;entryPerimeter=0;" edge="1" parent="1" target="1sUUCFTYEPu1m_X2lx19-22">
          <mxGeometry width="50" height="50" relative="1" as="geometry">
            <mxPoint x="132" y="297" as="sourcePoint" />
            <mxPoint x="282" y="326" as="targetPoint" />
            <Array as="points">
              <mxPoint x="280" y="53" />
            </Array>
          </mxGeometry>
        </mxCell>
        <mxCell id="1sUUCFTYEPu1m_X2lx19-26" value="" style="endArrow=classic;html=1;rounded=0;exitX=0.276;exitY=1.022;exitDx=0;exitDy=0;exitPerimeter=0;entryX=0.048;entryY=0.802;entryDx=0;entryDy=0;entryPerimeter=0;" edge="1" parent="1" target="1sUUCFTYEPu1m_X2lx19-22">
          <mxGeometry width="50" height="50" relative="1" as="geometry">
            <mxPoint x="139.5" y="400" as="sourcePoint" />
            <mxPoint x="300" y="260" as="targetPoint" />
            <Array as="points">
              <mxPoint x="240" y="70" />
            </Array>
          </mxGeometry>
        </mxCell>
        <mxCell id="1sUUCFTYEPu1m_X2lx19-27" value="" style="outlineConnect=0;dashed=0;verticalLabelPosition=bottom;verticalAlign=top;align=center;html=1;shape=mxgraph.aws3.router;fillColor=#F58536;gradientColor=none;" vertex="1" parent="1">
          <mxGeometry x="134" y="559" width="32.5" height="51" as="geometry" />
        </mxCell>
        <mxCell id="1sUUCFTYEPu1m_X2lx19-28" value="" style="endArrow=classic;html=1;rounded=0;entryX=0.031;entryY=0.394;entryDx=0;entryDy=0;entryPerimeter=0;" edge="1" parent="1" target="1sUUCFTYEPu1m_X2lx19-27">
          <mxGeometry width="50" height="50" relative="1" as="geometry">
            <mxPoint x="66" y="573" as="sourcePoint" />
            <mxPoint x="191" y="618" as="targetPoint" />
          </mxGeometry>
        </mxCell>
        <mxCell id="1sUUCFTYEPu1m_X2lx19-29" value="&lt;b&gt;K8s &lt;font color=&quot;#3333ff&quot;&gt;Router &lt;/font&gt;producerkafka&lt;/b&gt;&lt;div&gt;&lt;b&gt;ns:sre-kafka-client&lt;/b&gt;&lt;/div&gt;&lt;div&gt;&lt;b&gt;https://producerkafka.useast2: 8088&lt;/b&gt;&lt;/div&gt;" style="text;html=1;align=center;verticalAlign=middle;resizable=0;points=[];autosize=1;strokeColor=none;fillColor=none;" vertex="1" parent="1">
          <mxGeometry x="73" y="600" width="230" height="60" as="geometry" />
        </mxCell>
        <mxCell id="1sUUCFTYEPu1m_X2lx19-30" value="" style="endArrow=classic;html=1;rounded=0;entryX=0.44;entryY=0.937;entryDx=0;entryDy=0;entryPerimeter=0;" edge="1" parent="1" target="1sUUCFTYEPu1m_X2lx19-14">
          <mxGeometry width="50" height="50" relative="1" as="geometry">
            <mxPoint x="151" y="558" as="sourcePoint" />
            <mxPoint x="220" y="564" as="targetPoint" />
          </mxGeometry>
        </mxCell>
        <mxCell id="1sUUCFTYEPu1m_X2lx19-31" value="&lt;b&gt;k8s &lt;font color=&quot;#3333ff&quot;&gt;Service&lt;/font&gt;&lt;/b&gt;&lt;div&gt;&lt;b&gt;ns:sre-kafka-client&lt;/b&gt;&lt;font color=&quot;#3333ff&quot;&gt;&lt;b&gt;&lt;br&gt;&lt;/b&gt;&lt;/font&gt;&lt;div&gt;&lt;b&gt;producer-kafka&lt;/b&gt;&lt;/div&gt;&lt;/div&gt;" style="text;html=1;align=center;verticalAlign=middle;resizable=0;points=[];autosize=1;strokeColor=none;fillColor=none;" vertex="1" parent="1">
          <mxGeometry x="27" y="453" width="130" height="60" as="geometry" />
        </mxCell>
        <mxCell id="1sUUCFTYEPu1m_X2lx19-32" value="&lt;b&gt;gamedayproducer&lt;/b&gt;&lt;div&gt;&lt;b&gt;pods&lt;/b&gt;&lt;/div&gt;&lt;div&gt;&lt;b&gt;&lt;br&gt;&lt;/b&gt;&lt;/div&gt;" style="text;html=1;align=center;verticalAlign=middle;resizable=0;points=[];autosize=1;strokeColor=none;fillColor=none;" vertex="1" parent="1">
          <mxGeometry x="-15" y="212" width="130" height="60" as="geometry" />
        </mxCell>
        <mxCell id="1sUUCFTYEPu1m_X2lx19-34" value="" style="endArrow=classic;html=1;rounded=0;exitX=0.5;exitY=1;exitDx=0;exitDy=0;exitPerimeter=0;entryX=0.456;entryY=-0.029;entryDx=0;entryDy=0;entryPerimeter=0;" edge="1" parent="1">
          <mxGeometry width="50" height="50" relative="1" as="geometry">
            <mxPoint x="782.5" y="360" as="sourcePoint" />
            <mxPoint x="882" y="399" as="targetPoint" />
          </mxGeometry>
        </mxCell>
        <mxCell id="1sUUCFTYEPu1m_X2lx19-36" value="" style="endArrow=classic;html=1;rounded=0;entryX=-0.022;entryY=1.067;entryDx=0;entryDy=0;entryPerimeter=0;exitX=0.12;exitY=0.167;exitDx=0;exitDy=0;exitPerimeter=0;" edge="1" parent="1" source="gQKAg9snvbFnoSpJ1Kl--64">
          <mxGeometry width="50" height="50" relative="1" as="geometry">
            <mxPoint x="824" y="246" as="sourcePoint" />
            <mxPoint x="548" y="47" as="targetPoint" />
            <Array as="points">
              <mxPoint x="830" y="47" />
            </Array>
          </mxGeometry>
        </mxCell>
        <mxCell id="1sUUCFTYEPu1m_X2lx19-37" value="gameday-consumergroup" style="text;html=1;align=center;verticalAlign=middle;resizable=0;points=[];autosize=1;strokeColor=none;fillColor=none;" vertex="1" parent="1">
          <mxGeometry x="830" y="228" width="160" height="30" as="geometry" />
        </mxCell>
        <mxCell id="1sUUCFTYEPu1m_X2lx19-38" value="&lt;b&gt;{PODS}&lt;/b&gt;" style="text;html=1;align=center;verticalAlign=middle;resizable=0;points=[];autosize=1;strokeColor=none;fillColor=none;" vertex="1" parent="1">
          <mxGeometry x="895" y="178" width="70" height="30" as="geometry" />
        </mxCell>
        <mxCell id="1sUUCFTYEPu1m_X2lx19-39" value="&lt;b&gt;&lt;font color=&quot;#3333ff&quot;&gt;{PODS}&lt;/font&gt;&lt;/b&gt;" style="text;html=1;align=center;verticalAlign=middle;resizable=0;points=[];autosize=1;strokeColor=none;fillColor=none;" vertex="1" parent="1">
          <mxGeometry x="900" y="275" width="70" height="30" as="geometry" />
        </mxCell>
        <UserObject label="" treeRoot="1" id="1sUUCFTYEPu1m_X2lx19-41">
          <mxCell style="whiteSpace=wrap;html=1;align=center;treeFolding=1;treeMoving=1;newEdgeStyle={&quot;edgeStyle&quot;:&quot;elbowEdgeStyle&quot;,&quot;startArrow&quot;:&quot;none&quot;,&quot;endArrow&quot;:&quot;none&quot;};fillColor=#bac8d3;strokeColor=#23445d;" vertex="1" parent="1">
            <mxGeometry x="648" y="110" width="125" height="260" as="geometry" />
          </mxCell>
        </UserObject>
        <mxCell id="1sUUCFTYEPu1m_X2lx19-42" value="&lt;b&gt;Broker 2&lt;/b&gt;" style="text;html=1;align=center;verticalAlign=middle;whiteSpace=wrap;rounded=0;" vertex="1" parent="1">
          <mxGeometry x="521.5" y="116" width="60" height="30" as="geometry" />
        </mxCell>
        <mxCell id="1sUUCFTYEPu1m_X2lx19-43" value="&lt;b&gt;Broker 3&lt;/b&gt;" style="text;html=1;align=center;verticalAlign=middle;whiteSpace=wrap;rounded=0;" vertex="1" parent="1">
          <mxGeometry x="679.5" y="116" width="60" height="30" as="geometry" />
        </mxCell>
        <mxCell id="1sUUCFTYEPu1m_X2lx19-46" value="sre-payment-topic&lt;div&gt;P1&lt;/div&gt;" style="rounded=0;whiteSpace=wrap;html=1;" vertex="1" parent="1">
          <mxGeometry x="661" y="310" width="100" height="26" as="geometry" />
        </mxCell>
        <mxCell id="1sUUCFTYEPu1m_X2lx19-44" value="" style="line;strokeWidth=4;html=1;perimeter=backbonePerimeter;points=[];outlineConnect=0;" vertex="1" parent="1">
          <mxGeometry x="648" y="145" width="125" height="10" as="geometry" />
        </mxCell>
        <mxCell id="1sUUCFTYEPu1m_X2lx19-45" value="P1&amp;nbsp; &amp;nbsp; &amp;nbsp; &amp;nbsp; &amp;nbsp;P2&amp;nbsp; &amp;nbsp; &amp;nbsp; P3" style="rounded=0;whiteSpace=wrap;html=1;" vertex="1" parent="1">
          <mxGeometry x="660" y="194.5" width="100" height="29.5" as="geometry" />
        </mxCell>
        <mxCell id="1sUUCFTYEPu1m_X2lx19-47" value="" style="line;strokeWidth=2;direction=south;html=1;" vertex="1" parent="1">
          <mxGeometry x="679.5" y="197" width="9.5" height="26" as="geometry" />
        </mxCell>
        <mxCell id="1sUUCFTYEPu1m_X2lx19-51" value="" style="line;strokeWidth=2;direction=south;html=1;" vertex="1" parent="1">
          <mxGeometry x="565.5" y="196" width="10" height="26" as="geometry" />
        </mxCell>
        <mxCell id="1sUUCFTYEPu1m_X2lx19-53" value="" style="line;strokeWidth=2;direction=south;html=1;" vertex="1" parent="1">
          <mxGeometry x="720.5" y="197" width="9.5" height="26" as="geometry" />
        </mxCell>
        <mxCell id="1sUUCFTYEPu1m_X2lx19-57" value="sre-gameday-topic-1&lt;div&gt;Replica 3&lt;/div&gt;" style="text;html=1;align=center;verticalAlign=middle;whiteSpace=wrap;rounded=0;" vertex="1" parent="1">
          <mxGeometry x="636.5" y="158" width="150" height="30" as="geometry" />
        </mxCell>
        <mxCell id="1sUUCFTYEPu1m_X2lx19-59" value="sre-gameday-topic-1&lt;div&gt;Replica 2&lt;/div&gt;" style="text;html=1;align=center;verticalAlign=middle;whiteSpace=wrap;rounded=0;" vertex="1" parent="1">
          <mxGeometry x="500" y="164" width="112.88" height="30" as="geometry" />
        </mxCell>
        <mxCell id="1sUUCFTYEPu1m_X2lx19-60" value="" style="endArrow=classic;html=1;rounded=0;exitX=0.093;exitY=1.069;exitDx=0;exitDy=0;exitPerimeter=0;" edge="1" parent="1" target="1sUUCFTYEPu1m_X2lx19-45">
          <mxGeometry width="50" height="50" relative="1" as="geometry">
            <mxPoint x="871.0000000000002" y="205.346" as="sourcePoint" />
            <mxPoint x="558.7" y="304" as="targetPoint" />
            <Array as="points">
              <mxPoint x="850.7" y="243" />
            </Array>
          </mxGeometry>
        </mxCell>
        <mxCell id="1sUUCFTYEPu1m_X2lx19-62" value="" style="endArrow=classic;html=1;rounded=0;exitX=0.093;exitY=1.069;exitDx=0;exitDy=0;exitPerimeter=0;entryX=0;entryY=0.75;entryDx=0;entryDy=0;" edge="1" parent="1" target="gQKAg9snvbFnoSpJ1Kl--23">
          <mxGeometry width="50" height="50" relative="1" as="geometry">
            <mxPoint x="881.0000000000002" y="215.346" as="sourcePoint" />
            <mxPoint x="694" y="227" as="targetPoint" />
            <Array as="points">
              <mxPoint x="860.7" y="253" />
            </Array>
          </mxGeometry>
        </mxCell>
        <mxCell id="1sUUCFTYEPu1m_X2lx19-63" value="" style="endArrow=classic;html=1;rounded=0;entryX=0.5;entryY=1;entryDx=0;entryDy=0;" edge="1" parent="1" target="gQKAg9snvbFnoSpJ1Kl--24">
          <mxGeometry width="50" height="50" relative="1" as="geometry">
            <mxPoint x="810" y="290" as="sourcePoint" />
            <mxPoint x="892" y="409" as="targetPoint" />
          </mxGeometry>
        </mxCell>
        <mxCell id="1sUUCFTYEPu1m_X2lx19-64" value="" style="endArrow=classic;html=1;rounded=0;entryX=0.42;entryY=0.09;entryDx=0;entryDy=0;entryPerimeter=0;" edge="1" parent="1" target="1sUUCFTYEPu1m_X2lx19-46">
          <mxGeometry width="50" height="50" relative="1" as="geometry">
            <mxPoint x="820" y="300" as="sourcePoint" />
            <mxPoint x="569" y="230" as="targetPoint" />
          </mxGeometry>
        </mxCell>
        <mxCell id="1sUUCFTYEPu1m_X2lx19-65" value="" style="endArrow=classic;html=1;rounded=0;entryX=0.882;entryY=1.044;entryDx=0;entryDy=0;entryPerimeter=0;" edge="1" parent="1" target="1sUUCFTYEPu1m_X2lx19-31">
          <mxGeometry width="50" height="50" relative="1" as="geometry">
            <mxPoint x="70" y="570" as="sourcePoint" />
            <mxPoint x="145" y="589" as="targetPoint" />
          </mxGeometry>
        </mxCell>
      </root>
    </mxGraphModel>
  </diagram>
</mxfile>
